<?xml version="1.0" encoding="utf-8"?>
<!-- Generator: Adobe Illustrator 21.1.0, SVG Export Plug-In . SVG Version: 6.00 Build 0)  -->
<svg version="1.1" id="Capa_1" xmlns="http://www.w3.org/2000/svg" xmlns:xlink="http://www.w3.org/1999/xlink" x="0px" y="0px"
	 viewBox="0 0 49 49.2" style="enable-background:new 0 0 49 49.2;" xml:space="preserve">
<g>
	<path d="M48.4,44.6h-2V26.3c0-0.4-0.3-0.7-0.7-0.7c-0.4,0-0.7,0.3-0.7,0.7v18.4h-4.4V19.1H45v3.8c0,0.4,0.3,0.7,0.7,0.7
		c0.4,0,0.7-0.3,0.7-0.7v-4.5c0-0.4-0.3-0.7-0.7-0.7h-5.8c-0.4,0-0.7,0.3-0.7,0.7v26.2h-2.8V30.8c0-0.4-0.3-0.7-0.7-0.7h-5.8
		c-0.4,0-0.7,0.3-0.7,0.7v13.8h-2.8V25c0-0.4-0.3-0.7-0.7-0.7h-5.8c-0.4,0-0.7,0.3-0.7,0.7v19.6h-2.8v-7c0-0.4-0.3-0.7-0.7-0.7H9.6
		c-0.4,0-0.7,0.3-0.7,0.7v7H4.5v-4h1.6c0.4,0,0.7-0.3,0.7-0.7c0-0.4-0.3-0.7-0.7-0.7H4.5v-9.3h1.6c0.4,0,0.7-0.3,0.7-0.7
		c0-0.4-0.3-0.7-0.7-0.7H4.5v-9.3h1.6c0.4,0,0.7-0.3,0.7-0.7c0-0.4-0.3-0.7-0.7-0.7H4.5V8.3h1.6c0.4,0,0.7-0.3,0.7-0.7
		c0-0.4-0.3-0.7-0.7-0.7H4.5V0.7C4.5,0.3,4.2,0,3.8,0H0.7C0.3,0,0,0.3,0,0.7v12.1c0,0.4,0.3,0.7,0.7,0.7s0.7-0.3,0.7-0.7V1.4h1.7
		v43.9c0,0.4,0.3,0.7,0.7,0.7h43.9v1.7H2.3c-0.5,0-0.8-0.4-0.8-0.8V16.2c0-0.4-0.3-0.7-0.7-0.7S0,15.8,0,16.2v30.7
		c0,1.3,1,2.3,2.3,2.3h46.2c0.4,0,0.7-0.3,0.7-0.7v-3.1C49.2,44.9,48.8,44.6,48.4,44.6z M30.5,31.5h4.4v13.1h-4.4
		C30.5,44.6,30.5,31.5,30.5,31.5z M20.4,25.7h4.4v18.9h-4.4C20.4,44.6,20.4,25.7,20.4,25.7z M10.4,38.3h4.4v6.3h-4.4
		C10.4,44.6,10.4,38.3,10.4,38.3z"/>
	<path d="M12.6,21.6c0.5,0,1-0.2,1.4-0.5l8.9-6.8l8.8,5.1c0.9,0.5,2.1,0.3,2.8-0.5l6.4-7.3c0.3,0.9,1.2,1.5,2.1,1.5l0.1,0
		c1.3-0.1,2.2-1.1,2.2-2.4l-0.2-4.8c0-0.6-0.3-1.2-0.7-1.6c-0.4-0.4-1-0.6-1.6-0.6l-4.8,0.2c-1.3,0-2.2,1.1-2.2,2.4
		c0,1.1,0.9,2,1.9,2.2l-5.4,6.1l-2.7-1.6c-0.3-0.2-0.8-0.1-1,0.3c-0.2,0.3-0.1,0.8,0.3,1L32,16c0.3,0.2,0.7,0.1,0.9-0.1l6.8-7.8
		C40,7.9,40,7.6,39.9,7.3c-0.1-0.3-0.4-0.4-0.7-0.4L38,7c-0.5,0-0.8-0.3-0.9-0.8c0-0.5,0.3-0.8,0.8-0.9l4.8-0.2
		c0.2,0,0.4,0.1,0.6,0.2c0.2,0.2,0.3,0.4,0.3,0.6l0.2,4.8c0,0.5-0.3,0.8-0.8,0.9h0c-0.4,0-0.8-0.4-0.8-0.8l0-1
		c0-0.3-0.2-0.6-0.5-0.6c-0.3-0.1-0.6,0-0.8,0.2l-7.5,8.5c-0.3,0.3-0.7,0.4-1,0.2l-9.2-5.3c-0.3-0.1-0.6-0.1-0.8,0.1L13.1,20
		c-0.1,0.1-0.3,0.2-0.5,0.2c-0.3,0-0.5-0.1-0.7-0.3c-0.3-0.4-0.2-0.9,0.2-1.2l10.1-7.8c0.3-0.2,0.6-0.2,0.9-0.1l2.8,1.6
		c0.3,0.2,0.8,0.1,1-0.3c0.2-0.3,0.1-0.8-0.3-1l-2.8-1.6C23,9.2,22,9.2,21.3,9.8l-10.1,7.8c-1,0.8-1.2,2.2-0.4,3.2
		C11.2,21.3,11.8,21.6,12.6,21.6L12.6,21.6z"/>
</g>
</svg>
