<?xml version="1.0" encoding="utf-8"?>
<!-- Generator: Adobe Illustrator 21.1.0, SVG Export Plug-In . SVG Version: 6.00 Build 0)  -->
<svg version="1.1" id="Capa_1" xmlns="http://www.w3.org/2000/svg" xmlns:xlink="http://www.w3.org/1999/xlink" x="0px" y="0px"
	 viewBox="0 0 43.6 38.5" style="enable-background:new 0 0 43.6 38.5;" xml:space="preserve">
<style type="text/css">
	.st0{filter:url(#prefix__a);}
</style>
<filter  id="prefix__a">
	<feColorMatrix  in="SourceGraphic" values="0 0 0 0 0.098039 0 0 0 0 0.501961 0 0 0 0 1.000000 0 0 0 1.000000 0">
		</feColorMatrix>
</filter>
<g transform="translate(-20 -22)" class="st0">
	<g>
		<path d="M57.9,35.7H37.6c-0.4,0-0.6,0.3-0.6,0.6c0,0.4,0.3,0.6,0.6,0.6h20.3c0.4,0,0.6-0.3,0.6-0.6S58.2,35.7,57.9,35.7L57.9,35.7
			z M57.9,40.6H37.6c-0.4,0-0.6,0.3-0.6,0.6s0.3,0.6,0.6,0.6h20.3c0.4,0,0.6-0.3,0.6-0.6S58.2,40.6,57.9,40.6z M57.9,45.5H37.6
			c-0.4,0-0.6,0.3-0.6,0.6s0.3,0.6,0.6,0.6h20.3c0.4,0,0.6-0.3,0.6-0.6C58.5,45.8,58.2,45.5,57.9,45.5z"/>
		<path d="M59.9,30.1H35.6c-2,0-3.7,1.7-3.7,3.7v15.3c0,2,1.7,3.7,3.7,3.7h17.1c0.2,0,0.4,0.1,0.5,0.2l5.5,7
			c0.2,0.3,0.5,0.4,0.9,0.4c0.1,0,0.2,0,0.4-0.1c0.5-0.2,0.7-0.6,0.7-1v-6.6c1.7-0.3,3-1.8,3-3.7V33.8C63.6,31.8,62,30.1,59.9,30.1
			L59.9,30.1z M62.3,49.2c0,1.3-1.1,2.4-2.4,2.4c-0.3,0-0.6,0.3-0.6,0.6v6.7l-5.2-6.6c-0.4-0.5-0.9-0.7-1.5-0.7H35.6
			c-1.3,0-2.4-1.1-2.4-2.4V33.8c0-1.3,1.1-2.4,2.4-2.4h24.3c1.3,0,2.4,1.1,2.4,2.4V49.2L62.3,49.2z"/>
		<path d="M29.4,40.7c-0.4,0.1-0.8,0.3-1.1,0.6l-4.4,5.6v-5.6c0-0.3-0.3-0.6-0.6-0.6c-1.1,0-2-0.9-2-2V25.3c0-1.1,0.9-2,2-2h21.2
			c1.1,0,2,0.9,2,2v2.5c0,0.4,0.3,0.6,0.6,0.6c0.4,0,0.6-0.3,0.6-0.6v-2.5c0-1.8-1.5-3.3-3.3-3.3H23.3c-1.8,0-3.3,1.5-3.3,3.3v13.3
			c0,1.6,1.1,2.9,2.6,3.2v5.7c0,0.5,0.3,0.8,0.7,1c0.1,0,0.2,0.1,0.4,0.1c0.3,0,0.6-0.1,0.8-0.4l4.8-6.1c0.1-0.1,0.2-0.1,0.3-0.2
			c0.3,0,0.6-0.4,0.5-0.7C30.1,40.9,29.8,40.6,29.4,40.7L29.4,40.7z"/>
	</g>
</g>
</svg>
