<?xml version="1.0" encoding="utf-8"?>
<!-- Generator: Adobe Illustrator 21.1.0, SVG Export Plug-In . SVG Version: 6.00 Build 0)  -->
<svg version="1.1" id="Capa_1" xmlns="http://www.w3.org/2000/svg" xmlns:xlink="http://www.w3.org/1999/xlink" x="0px" y="0px"
	 viewBox="0 0 51.8 53.6" style="enable-background:new 0 0 51.8 53.6;" xml:space="preserve">
<style type="text/css">
	.st0{filter:url(#prefix__a);}
</style>
<filter  id="prefix__a">
	<feColorMatrix  in="SourceGraphic" values="0 0 0 0 0.098039 0 0 0 0 0.501961 0 0 0 0 1.000000 0 0 0 1.000000 0">
		</feColorMatrix>
</filter>
<g transform="translate(-16 -15)" class="st0">
	<g>
		<path d="M55.3,52.4l-0.6-0.1L54.4,51c3.7-0.9,6.5-4.3,6.5-8.4v-1.7h0.9c2.4,0,4.3-1.9,4.3-4.3V24.9c1.1-1.8,1.7-3.9,1.7-6.1
			c0-1.1-0.9-2-2-2c-0.6,0-1.2,0.3-1.6,0.8l-1,1.3c-0.6,0.8-1.6,1.3-2.6,1.3c-0.7,0-1.4-0.2-2-0.7l-1.9-1.4c-2.7-2-6-3.1-9.4-3.1
			h-1.5c-4.2,0-8.2,2.2-10.5,5.7c-1.2-0.3-2.5-0.5-3.8-0.5c-8.6,0-15.6,7-15.6,15.6s7,15.6,15.6,15.6c3.4,0,6.5-1.1,9.1-2.9
			c1.2,1.3,2.7,2.2,4.4,2.7l-0.3,1.3l-0.6,0.1c-7.3,1.5-12.6,7.9-12.6,15.3v0.9h36.3v-0.9C67.8,60.3,62.6,53.8,55.3,52.4z
			 M48.3,57.2l-3.1,2.1L44.7,54l0.4-0.1L48.3,57.2L48.3,57.2z M48.8,59l0.9-0.6l0.9,0.6V63l-0.9,0.9L48.8,63V59z M51.1,57.2l3.2-3.2
			l0.4,0.1l-0.5,5.2C54.2,59.3,51.1,57.2,51.1,57.2z M61.8,39.2h-0.9V34h0.9c1.4,0,2.6,1.2,2.6,2.6C64.4,38,63.2,39.2,61.8,39.2z
			 M64.4,33.2c-0.7-0.5-1.6-0.9-2.6-0.9h-0.9v-2.8c1.3-0.6,2.5-1.4,3.5-2.4C64.4,27.1,64.4,33.2,64.4,33.2z M45.8,16.7h1.5
			c3,0,6,1,8.4,2.8l1.9,1.4c0.9,0.6,1.9,1,3,1c1.6,0,3.1-0.8,4-2l1-1.3c0.1-0.2,0.5-0.1,0.5,0.2c0,5.6-4.5,10.1-10.1,10.1
			c-2.9,0-5.8-0.6-8.6-1.6l-3.8-1.5c-0.1,0-0.2-0.1-0.4-0.1c-1.7-1.9-3.8-3.4-6.2-4.3C39.1,18.4,42.3,16.7,45.8,16.7z M17.7,35.7
			c0-7.6,6.2-13.8,13.8-13.8s13.8,6.2,13.8,13.8s-6.2,13.8-13.8,13.8S17.7,43.4,17.7,35.7z M42,47.3c3.2-2.8,5.1-7,5.1-11.5
			c0-2.8-0.7-5.4-2-7.7l1.8,0.7c2.9,1.2,6,1.8,9.2,1.8c1.1,0,2.2-0.2,3.2-0.4v12.5c0,3.8-3.1,6.9-6.9,6.9h-5.2
			C45.1,49.6,43.3,48.7,42,47.3z M47.1,51.3h5.2c0.1,0,0.3,0,0.4,0l0.4,1.5l-3.4,3.4l-3.4-3.4l0.4-1.5C46.8,51.3,47,51.3,47.1,51.3z
			 M33.3,66.8c0.4-5.7,4.3-10.7,9.7-12.4l0.8,7.8l3.3-2.2v3.6l2.6,2.6l2.6-2.6v-3.6l3.3,2.2l0.8-7.8c5.4,1.7,9.3,6.6,9.7,12.4
			C66.1,66.8,33.3,66.8,33.3,66.8z"/>
		<path d="M54.9,38.3c1.4,0,2.6-1.2,2.6-2.6c0-1.4-1.2-2.6-2.6-2.6c-1.4,0-2.6,1.2-2.6,2.6C52.3,37.2,53.5,38.3,54.9,38.3z
			 M54.9,34.9c0.5,0,0.9,0.4,0.9,0.9s-0.4,0.9-0.9,0.9S54,36.2,54,35.7S54.4,34.9,54.9,34.9z M54.9,42.6h-1.7c0,1-0.8,1.7-1.7,1.7
			h-5.2v1.7h5.2C53.3,46.1,54.9,44.6,54.9,42.6z M43.5,36.2l0.3-0.5l-0.3-0.5c-2.8-4-7.3-6.4-11.9-6.4s-9.1,2.4-11.9,6.4l-0.3,0.5
			l0.3,0.5c2.8,4,7.3,6.4,11.9,6.4S40.7,40.2,43.5,36.2z M36.7,35.7c0,2.7-2,4.9-4.6,5.1c-0.2,0-0.4,0-0.6,0c-0.2,0-0.4,0-0.6,0
			c-2.6-0.3-4.6-2.5-4.6-5.1c0-2.7,2-4.9,4.6-5.1c0.2,0,0.4,0,0.6,0c0.2,0,0.4,0,0.6,0C34.7,30.9,36.7,33.1,36.7,35.7z M21.4,35.7
			c1.2-1.6,2.7-2.8,4.3-3.7c-0.7,1.1-1.1,2.3-1.1,3.7c0,1.4,0.4,2.6,1.1,3.7C24.1,38.5,22.6,37.3,21.4,35.7z M37.4,39.4
			c0.7-1.1,1.1-2.3,1.1-3.7c0-1.4-0.4-2.6-1.1-3.7c1.7,0.9,3.1,2.1,4.3,3.7C40.5,37.3,39,38.5,37.4,39.4z"/>
	</g>
</g>
</svg>
