<?xml version="1.0" encoding="utf-8"?>
<!-- Generator: Adobe Illustrator 21.1.0, SVG Export Plug-In . SVG Version: 6.00 Build 0)  -->
<svg version="1.1" id="Capa_1" xmlns="http://www.w3.org/2000/svg" xmlns:xlink="http://www.w3.org/1999/xlink" x="0px" y="0px"
	 viewBox="0 0 39 45" style="enable-background:new 0 0 39 45;" xml:space="preserve">
<style type="text/css">
	.st0{filter:url(#prefix__a);}
</style>
<filter  id="prefix__a">
	<feColorMatrix  in="SourceGraphic" values="0 0 0 0 0.098039 0 0 0 0 0.501961 0 0 0 0 1.000000 0 0 0 1.000000 0">
		</feColorMatrix>
</filter>
<g transform="translate(-22 -19)" class="st0">
	<g>
		<path d="M60.5,56.1c-3.7-3.8-5.6-8.3-5.6-13.3v-7.4c0-5.6-3.6-9.3-6.8-10.8c-0.9-0.4-1.8-0.8-2.8-1v-0.5c0-2.3-1.8-4.1-4-4.1
			c-2.2,0-4,1.8-4,4.1v0.5c-0.9,0.2-1.7,0.5-2.5,0.9c-3.5,1.7-7,5.6-7,10.8v7.4c0,5.2-1.8,9.7-5.3,13.3c-0.2,0.2-0.3,0.5-0.2,0.8
			c0.1,0.3,0.3,0.5,0.6,0.6l7.6,1.3c1.4,0.2,2.7,0.5,3.9,0.6c1.4,2.8,4.1,4.6,7.1,4.6c3,0,5.7-1.8,7.1-4.6c1.2-0.2,2.5-0.4,3.9-0.6
			l7.6-1.3c0.3-0.1,0.5-0.3,0.6-0.6S60.7,56.3,60.5,56.1z M39,23.1c0-1.4,1.1-2.5,2.4-2.5c1.3,0,2.4,1.1,2.4,2.5v0.1
			c-1.6-0.2-3.2-0.2-4.8,0C39,23.3,39,23.1,39,23.1z M41.5,62.4c-2,0-3.9-1-5.1-2.7c1.8,0.2,3.4,0.3,5.1,0.3c1.7,0,3.3-0.1,5.1-0.3
			C45.4,61.3,43.5,62.4,41.5,62.4L41.5,62.4z M52.3,57.2c-1.5,0.3-2.9,0.5-4.2,0.7h0c-0.6,0.1-1.2,0.1-1.7,0.2l0,0
			c-0.5,0.1-1,0.1-1.5,0.1c-0.1,0-0.2,0-0.3,0c-0.4,0-0.8,0.1-1.3,0.1c-0.1,0-0.2,0-0.3,0c-1,0-2,0-3,0l-0.3,0c-0.4,0-0.8,0-1.2-0.1
			l-0.3,0c-0.5,0-1-0.1-1.5-0.1l0,0c-0.6-0.1-1.1-0.1-1.7-0.2h0c-1.3-0.2-2.7-0.4-4.3-0.7l-6.1-1.1c3.2-3.7,4.8-8.2,4.8-13.4v-7.4
			c0-4.4,3.1-7.9,6.1-9.3c0.9-0.4,1.8-0.7,2.8-1c0,0,0,0,0,0c2-0.5,4-0.5,6-0.1c0,0,0,0,0,0c1,0.2,2.1,0.6,3,1
			c2.9,1.4,5.9,4.8,5.9,9.3v7.4c0,4.9,1.7,9.5,5,13.4L52.3,57.2L52.3,57.2z"/>
		<path d="M46.5,28.3c-3.1-1.5-6.9-1.5-9.9,0c-1.7,0.8-4.7,3.2-4.7,7.1c0,0.5,0.4,0.8,0.8,0.8h0c0.4,0,0.8-0.4,0.8-0.8
			c0-3,2.4-4.9,3.8-5.6c2.7-1.3,5.9-1.3,8.6,0c0.4,0.2,0.9,0,1.1-0.4C47,28.9,46.9,28.5,46.5,28.3z"/>
	</g>
</g>
</svg>
