<?xml version="1.0" encoding="utf-8"?>
<!-- Generator: Adobe Illustrator 21.1.0, SVG Export Plug-In . SVG Version: 6.00 Build 0)  -->
<svg version="1.1" id="Capa_1" xmlns="http://www.w3.org/2000/svg" xmlns:xlink="http://www.w3.org/1999/xlink" x="0px" y="0px"
	 viewBox="0 0 47.9 42" style="enable-background:new 0 0 47.9 42;" xml:space="preserve">
<g transform="translate(-17 -20)">
	<g>
		<path d="M51.1,43.4c0.8,0,1.4,0.3,1.9,0.8s0.7,1.1,0.8,1.7v0.2v5c0,0.8-0.3,1.4-0.8,1.9s-1.1,0.7-1.7,0.8h-0.2h-6.5
			c-0.8,0-1.4-0.3-1.9-0.8s-0.7-1.1-0.8-1.7v-0.2v-5c0-0.8,0.3-1.4,0.8-1.9c0.5-0.4,1.1-0.7,1.7-0.8h0.2H51.1z M51.1,44.8h-6.5h-0.1
			c-0.3,0-0.6,0.2-0.8,0.4c-0.2,0.2-0.4,0.6-0.4,1l0,0v5v0.1c0,0.3,0.2,0.6,0.4,0.8c0.2,0.2,0.6,0.4,1,0.4h6.5h0.1
			c0.3,0,0.6-0.2,0.8-0.4c0.2-0.2,0.4-0.6,0.4-1l0,0v-5V46c0-0.3-0.2-0.6-0.4-0.8C51.8,45,51.4,44.8,51.1,44.8L51.1,44.8z"/>
		<path d="M64.9,33.8c0-0.2,0-0.4-0.2-0.6l-7.1-12.6c-0.2-0.4-0.6-0.6-1-0.6H25.3c-0.4,0-0.8,0.2-1,0.6l-7.1,12.6
			c-0.1,0.2-0.2,0.4-0.2,0.6c0,2.8,1.7,5.2,4.1,6.3v20.7c0,0.6,0.5,1.2,1.2,1.2h37.4c0.6,0,1.2-0.5,1.2-1.2V40.3v-0.1
			C63.2,39.1,64.9,36.7,64.9,33.8z M26,22.5h30l5.6,9.8H20.4L26,22.5z M51.1,34.6c-0.4,2.1-2.2,3.7-4.4,3.7c-2.2,0-4.1-1.6-4.4-3.7
			H51.1z M39.7,34.6c-0.4,2.1-2.2,3.7-4.4,3.7c-2.2,0-4.1-1.6-4.5-3.7H39.7z M19.4,34.6h8.9c-0.4,2.1-2.2,3.7-4.5,3.7
			C21.7,38.4,19.8,36.8,19.4,34.6z M36.7,59.7H30V47c0-0.9,0.7-1.7,1.7-1.7h3.4c0.9,0,1.7,0.7,1.7,1.7L36.7,59.7L36.7,59.7
			L36.7,59.7z M58.5,59.7H39.1V47c0-2.2-1.8-4-4-4h-3.4c-2.2,0-4,1.8-4,4v12.7h-4.2v-19c0.1,0,0.3,0,0.4,0c2.4,0,4.5-1.2,5.7-3
			c1.2,1.8,3.3,3,5.7,3s4.5-1.2,5.7-3c1.2,1.8,3.3,3,5.7,3s4.5-1.2,5.7-3c1.2,1.8,3.3,3,5.7,3c0.1,0,0.3,0,0.4,0V59.7L58.5,59.7
			L58.5,59.7z M58.1,38.4c-2.2,0-4.1-1.6-4.4-3.7h8.9C62.1,36.8,60.3,38.4,58.1,38.4z"/>
	</g>
</g>
</svg>
