<?xml version="1.0" encoding="utf-8"?>
<!-- Generator: Adobe Illustrator 21.1.0, SVG Export Plug-In . SVG Version: 6.00 Build 0)  -->
<svg version="1.1" id="Capa_1" xmlns="http://www.w3.org/2000/svg" xmlns:xlink="http://www.w3.org/1999/xlink" x="0px" y="0px"
	 viewBox="0 0 48 48" style="enable-background:new 0 0 48 48;" xml:space="preserve">
<style type="text/css">
	.st0{filter:url(#prefix__a);}
</style>
<filter  id="prefix__a">
	<feColorMatrix  in="SourceGraphic" values="0 0 0 0 0.098039 0 0 0 0 0.501961 0 0 0 0 1.000000 0 0 0 1.000000 0">
		</feColorMatrix>
</filter>
<g transform="translate(-18 -18)" class="st0">
	<g>
		<path d="M37.5,18.3c-0.2-0.2-0.5-0.3-0.8-0.2l-13.3,4.4l-4-4c-0.3-0.3-0.8-0.3-1.1,0c-0.3,0.3-0.3,0.8,0,1.1l4.1,4.1L18,36.6
			c-0.1,0.3,0,0.6,0.2,0.8l28.3,28.2c0.3,0.3,0.8,0.3,1.1,0l18.1-18.1c0.3-0.3,0.3-0.8,0-1.1L37.5,18.3L37.5,18.3z M47.1,64
			L19.7,36.7l3.9-11.6l3,3c-1.1,1.7-0.8,4,0.8,5.3c1.6,1.3,3.9,1.2,5.4-0.3c1.5-1.4,1.6-3.8,0.3-5.3c-1.3-1.6-3.6-1.9-5.3-0.8
			l-3.2-3.2l12.1-4l27.4,27.3L47.1,64L47.1,64z M29.4,30.9c0.3,0.3,0.8,0.3,1.1,0c0.3-0.3,0.3-0.8,0-1.1L29,28.1
			c1.1-0.5,2.3-0.2,3,0.8c0.7,1,0.6,2.2-0.3,3.1c-1,0.9-2.4,0.9-3.4,0c-0.7-0.7-0.9-1.8-0.5-2.7L29.4,30.9L29.4,30.9z"/>
		<path d="M34.6,48.2l2.3-2.3l12.4,12.4l-2.3,2.3L34.6,48.2z M40.3,42.5l2.3-2.3L55,52.7L52.7,55L40.3,42.5z M43.7,39.2l2.3-2.3
			l12.4,12.4l-2.3,2.3L43.7,39.2z M47.1,35.8l1.1-1.1l12.4,12.4l-1.1,1.1L47.1,35.8z M38,44.8l1.1-1.1l12.4,12.4l-1.1,1.1L38,44.8z"
			/>
	</g>
</g>
</svg>
