<?xml version="1.0" encoding="utf-8"?>
<!-- Generator: Adobe Illustrator 21.1.0, SVG Export Plug-In . SVG Version: 6.00 Build 0)  -->
<svg version="1.1" id="Capa_1" xmlns="http://www.w3.org/2000/svg" xmlns:xlink="http://www.w3.org/1999/xlink" x="0px" y="0px"
	 viewBox="0 0 16.1 16.1" style="enable-background:new 0 0 16.1 16.1;" xml:space="preserve">
<path d="M3.6,16.1H0.3V5.4h3.3V16.1z M1.9,3.9C0.9,3.9,0,3,0,1.9C0,0.9,0.9,0,1.9,0C3,0,3.9,0.9,3.9,1.9C3.9,3,3,3.9,1.9,3.9
	L1.9,3.9z M16.1,16.1h-3.3v-5.2c0-1.2,0-2.9-1.7-2.9c-1.7,0-2,1.4-2,2.8v5.3H5.7V5.4h3.2v1.5h0c0.4-0.8,1.5-1.7,3.2-1.7
	c3.4,0,4,2.2,4,5.1L16.1,16.1L16.1,16.1L16.1,16.1z"/>
</svg>
