<?xml version="1.0" encoding="utf-8"?>
<!-- Generator: Adobe Illustrator 21.1.0, SVG Export Plug-In . SVG Version: 6.00 Build 0)  -->
<svg version="1.1" id="Capa_1" xmlns="http://www.w3.org/2000/svg" xmlns:xlink="http://www.w3.org/1999/xlink" x="0px" y="0px"
	 viewBox="0 0 22.3 22.3" style="enable-background:new 0 0 22.3 22.3;" xml:space="preserve">
<path d="M11.2,0C5,0,0,5,0,11.2s5,11.2,11.2,11.2s11.2-5,11.2-11.2S17.3,0,11.2,0z M14.9,16.1l-0.5,0.5c-0.1,0.1-0.2,0.3-0.3,0.5
	c-0.1,0.3-0.1,0.5-0.2,0.8l-0.8,2.1c-0.6,0.1-1.3,0.2-1.9,0.2v-1.2c0.1-0.6-0.3-1.6-1-2.3c-0.3-0.3-0.4-0.6-0.4-1v-1.4
	c0-0.5-0.3-1-0.7-1.3c-0.6-0.4-1.6-0.9-2.2-1.2c-0.5-0.3-1-0.6-1.4-1l0,0C5,10.4,4.7,10.1,4.5,9.8C4.1,9.2,3.4,8.1,3,7.5
	c0.9-2,2.6-3.7,4.6-4.6l1.1,0.5c0.5,0.2,1-0.1,1-0.6V2.3c0.4-0.1,0.7-0.1,1.1-0.1l1.3,1.3c0.3,0.3,0.3,0.7,0,1l-0.2,0.2l-0.5,0.5
	c-0.1,0.1-0.1,0.4,0,0.5l0.2,0.2c0.1,0.1,0.1,0.4,0,0.5l-0.4,0.4c-0.1,0.1-0.2,0.1-0.3,0.1h-0.4c-0.1,0-0.2,0-0.3,0.1L9.9,7.4
	C9.8,7.5,9.8,7.7,9.8,7.8l0.7,1.4c0.1,0.2-0.1,0.5-0.3,0.5H10c-0.1,0-0.2,0-0.2-0.1L9.3,9.3C9.1,9.1,8.9,9,8.6,9.1L7.2,9.6
	C7,9.7,6.8,9.9,6.8,10.1c0,0.2,0.1,0.4,0.3,0.5l0.5,0.2C8.1,11,8.5,11.2,9,11.2c0.5,0,1,1.2,1.4,1.4h3c0.4,0,0.7,0.2,1,0.4l0.6,0.6
	c0.3,0.3,0.4,0.6,0.4,1C15.5,15.2,15.3,15.7,14.9,16.1L14.9,16.1z M18.8,12c-0.3-0.1-0.5-0.2-0.6-0.4l-0.8-1.2
	c-0.2-0.4-0.2-0.8,0-1.2l0.9-1.3c0.1-0.2,0.2-0.3,0.4-0.4l0.6-0.3c0.6,1.2,1,2.6,1,4c0,0.4,0,0.8-0.1,1.1L18.8,12L18.8,12z"/>
</svg>
