<svg xmlns="http://www.w3.org/2000/svg" xmlns:xlink="http://www.w3.org/1999/xlink" width="404" height="518" viewBox="0 0 404 518">
    <defs>
        <linearGradient id="prefix__b" x1="32.15%" x2="66.494%" y1="8.304%" y2="81.985%">
            <stop offset="0%" stop-color="#15539E"/>
            <stop offset="100%" stop-color="#092965"/>
        </linearGradient>
        <linearGradient id="prefix__e" x1="17.808%" x2="79.747%" y1="34.01%" y2="62.266%">
            <stop offset="0%" stop-color="#15539E"/>
            <stop offset="100%" stop-color="#092965"/>
        </linearGradient>
        <linearGradient id="prefix__i" x1="78.277%" x2="10.34%" y1="44.803%" y2="59.126%">
            <stop offset="0%" stop-color="#4F6FCE"/>
            <stop offset="100%" stop-color="#3B3B5D"/>
        </linearGradient>
        <linearGradient id="prefix__j" x1="93.38%" x2="0%" y1="29.372%" y2="56.299%">
            <stop offset="0%" stop-color="#C0E1FF"/>
            <stop offset="100%" stop-color="#FFF"/>
        </linearGradient>
        <linearGradient id="prefix__l" x1="34.089%" x2="60.38%" y1="26.255%" y2="81.985%">
            <stop offset="0%" stop-color="#56A1FF"/>
            <stop offset="100%" stop-color="#5187DC"/>
        </linearGradient>
        <linearGradient id="prefix__m" x1="67.45%" x2="25.524%" y1="44.803%" y2="59.126%">
            <stop offset="0%" stop-color="#4F6FCE"/>
            <stop offset="100%" stop-color="#3B3B5D"/>
        </linearGradient>
        <linearGradient id="prefix__n" x1="103.36%" x2="40.441%" y1="39.997%" y2="57.366%">
            <stop offset="0%" stop-color="#364D83" stop-opacity=".602"/>
            <stop offset="100%" stop-color="#B2C4FF"/>
        </linearGradient>
        <linearGradient id="prefix__p" x1="103.442%" x2="-24.957%" y1="48.816%" y2="52.079%">
            <stop offset="0%" stop-color="#4F6FCE"/>
            <stop offset="100%" stop-color="#3B3B5D"/>
        </linearGradient>
        <linearGradient id="prefix__q" x1="81.338%" x2="6.046%" y1="44.803%" y2="59.126%">
            <stop offset="0%" stop-color="#4F6FCE"/>
            <stop offset="100%" stop-color="#3B3B5D"/>
        </linearGradient>
        <linearGradient id="prefix__u" x1="88.586%" x2="5.525%" y1="23.035%" y2="58.233%">
            <stop offset="0%" stop-color="#C0E1FF"/>
            <stop offset="100%" stop-color="#FFF"/>
        </linearGradient>
        <linearGradient id="prefix__v" x1="64.948%" x2="32.771%" y1="23.035%" y2="58.233%">
            <stop offset="0%" stop-color="#C0E1FF"/>
            <stop offset="100%" stop-color="#FFF"/>
        </linearGradient>
        <linearGradient id="prefix__x" x1="33.948%" x2="60.473%" y1="26.255%" y2="81.985%">
            <stop offset="0%" stop-color="#56A1FF"/>
            <stop offset="100%" stop-color="#5187DC"/>
        </linearGradient>
        <linearGradient id="prefix__A" x1="46.26%" x2="53.456%" y1="8.304%" y2="81.985%">
            <stop offset="0%" stop-color="#15539E"/>
            <stop offset="100%" stop-color="#092965"/>
        </linearGradient>
        <linearGradient id="prefix__E" x1="51.547%" x2="38.044%" y1="47.39%" y2="17.777%">
            <stop offset="0%" stop-color="#30334F"/>
            <stop offset="100%" stop-color="#181E36"/>
        </linearGradient>
        <linearGradient id="prefix__G" x1="59.835%" x2="24.998%" y1="55.499%" y2="42.6%">
            <stop offset="0%" stop-color="#FFF"/>
            <stop offset="100%" stop-color="#E6E6E6"/>
        </linearGradient>
        <linearGradient id="prefix__H" x1="50%" x2="76.333%" y1="119.771%" y2="-36.944%">
            <stop offset="0%" stop-color="#BFD5FF"/>
            <stop offset="100%" stop-color="#8493F2"/>
        </linearGradient>
        <linearGradient id="prefix__I" x1="50%" x2="50%" y1="0%" y2="100%">
            <stop offset="0%" stop-color="#6F49E5"/>
            <stop offset="100%" stop-color="#A265E9"/>
        </linearGradient>
        <linearGradient id="prefix__J" x1="69.428%" x2="37.605%" y1="60.199%" y2="31.896%">
            <stop offset="0%" stop-color="#334A98"/>
            <stop offset="100%" stop-color="#2F76FF"/>
        </linearGradient>
        <linearGradient id="prefix__K" x1="66.616%" x2="29.455%" y1="30.859%" y2="87.589%">
            <stop offset="0%" stop-color="#334A98"/>
            <stop offset="100%" stop-color="#2F76FF"/>
        </linearGradient>
        <linearGradient id="prefix__L" x1="50%" x2="89.265%" y1="84.656%" y2="6.814%">
            <stop offset="0%" stop-color="#BFD5FF"/>
            <stop offset="100%" stop-color="#8493F2"/>
        </linearGradient>
        <linearGradient id="prefix__M" x1="79.048%" x2="20.952%" y1="-5.87%" y2="100%">
            <stop offset="0%" stop-color="#E1E9FE"/>
            <stop offset="100%" stop-color="#C5D5FD"/>
        </linearGradient>
        <linearGradient id="prefix__N" x1="50%" x2="88.454%" y1="119.771%" y2="-36.944%">
            <stop offset="0%" stop-color="#BFD5FF"/>
            <stop offset="100%" stop-color="#8493F2"/>
        </linearGradient>
        <linearGradient id="prefix__O" x1="68.077%" x2="40.607%" y1="69.773%" y2="36.717%">
            <stop offset="0%" stop-color="#E1E9FE"/>
            <stop offset="100%" stop-color="#C5D5FD"/>
        </linearGradient>
        <path id="prefix__a" d="M3 0h336c1.657 0 3 1.343 3 3v413.062c0 1.657-1.343 3-3 3-.09 0-.18-.004-.27-.012l-336-30.46c-1.546-.14-2.73-1.436-2.73-2.988V3c0-1.657 1.343-3 3-3z"/>
        <path id="prefix__c" d="M5.24 2.33c1.025-.65 4.225-1.07 7.255-1.624 1.007-.184 2-.537 2.894-.654 1.41-.185 2.97.36 4.061 1.12 1.092.762.036 1.488.545 4.668.508 3.18 1.64 6.824.957 8.767-.456 1.295-1.188 2.209-2.197 2.74.041 3.563-.369 5.915-1.23 7.058-1.291 1.714-8.74 4.82-12.285 2.859-3.545-1.96.334-5.47-1.201-10.503C2.504 11.728-.403 8.967.047 6.601.497 4.233 3.62 3.356 5.24 2.33z"/>
        <path id="prefix__f" d="M6.732 6.949c0 1.081.084 1.754.253 2.017.698-.263 1.372.184 2.022 1.342.976 1.737 1.274 3.638.737 5.387-.537 1.749-3.323 2.453-5.845 1.01C.46 14.72.429 10.514.779 10.141c.35-.373 1.775-.313-.35-7.406-1.418-4.73.683-3.325 6.303 4.214z"/>
        <path id="prefix__h" d="M6.197.894l160.414 94.072c3.343 1.96 6.053 6.51 6.053 10.16v128.092c0 3.651-2.71 5.022-6.053 3.062L6.197 142.208c-3.343-1.96-6.053-6.51-6.053-10.16V3.955c0-3.652 2.71-5.022 6.053-3.062z"/>
        <path id="prefix__B" d="M17.356 8.13c1.044-.714 1.765-1.164 2.165-1.35.985-.457 5.888-6.655 6.215-6.502 1.219.567 4.65 2.062 5.43 5.933-3.95 4.97-7.074 8.898-9.371 11.782-1.506 2.04-.316 9.593 0 11.632.21 1.359-.25 2.511-1.381 3.456-4.04 1.641-8.983 1.515-14.83-.38-2.554-1.026-4.18-2.385-4.88-4.075-.47-.982-.47-3.293 0-6.932-.764-5.377-.5-12.089.759-14.913C2.72 3.956 5.15 3.032 7.623 4.098c.388.167.621-.189.7-1.066l9.033 5.097z"/>
        <path id="prefix__D" d="M9.195 12.304c-.71 0-1.887.144-.944 2.502.944 2.358-1.707 3.723-2.54 3.396-.833-.328-3.57-4.5-5.031-5.606-.974-.737-.902-2.172.218-4.304-.833-2.19-.264-3.769 1.705-4.738C5.558 2.099 10.337-.458 12.393.07c1.371.352 1.882.853 1.53 1.503 2.204 1.032 2.733 2.104 1.587 3.213-1.145 1.11-2.747 1.867-4.805 2.271 1.374.763 1.937 1.617 1.688 2.562-.372 1.417-.758 3.075 0 4.247.759 1.171 3.64 1.067 3.911 0 .356.812.262 3.367.131 3.963-.13.596.363 1.5-2.31 1.5-2.671 0-1.657-2.615-2.477-4.524-.82-1.909-1.743-2.502-2.453-2.502z"/>
        <ellipse id="prefix__r" cx="33.264" cy="40.068" rx="27.216" ry="35.532"/>
        <ellipse id="prefix__t" cx="42.525" cy="44.165" rx="37.611" ry="39.879"/>
        <ellipse id="prefix__y" cx="13.052" cy="15.932" rx="8.293" ry="13.767"/>
        <filter id="prefix__o" width="100%" height="100%" x="0%" y="0%" filterUnits="objectBoundingBox">
            <feGaussianBlur in="SourceGraphic"/>
        </filter>
    </defs>
    <g fill="none" fill-rule="evenodd">
        <circle cx="254.5" cy="149.5" r="149.5" fill="#E1FFF8"/>
        <g transform="translate(17 86)">
            <use fill="#FFF" xlink:href="#prefix__a"/>
        </g>
        <g>
            <g>
                <g>
                    <path fill="#477FCC" d="M0 118.457L22.434 131.079 22.434 25.333 0 12.141z" transform="translate(0 124) matrix(-1 0 0 1 369.702 29.862) translate(118.379)"/>
                    <path fill="#528CE2" d="M22.434 131.079L43.874 118.382 43.874 13.03 22.434 25.333z" transform="translate(0 124) matrix(-1 0 0 1 369.702 29.862) translate(118.379)"/>
                    <path fill="#80B1FF" d="M22.434 25.333L0 12.141 21.028 0 43.874 13.03z" transform="translate(0 124) matrix(-1 0 0 1 369.702 29.862) translate(118.379)"/>
                </g>
                <g>
                    <path fill="#477FCC" d="M0 96.9L22.434 109.523 22.434 25.333 0 12.141z" transform="translate(0 124) matrix(-1 0 0 1 369.702 29.862) translate(80.162 43.82)"/>
                    <path fill="#528CE2" d="M22.434 109.523L43.874 96.825 43.874 13.03 22.434 25.333z" transform="translate(0 124) matrix(-1 0 0 1 369.702 29.862) translate(80.162 43.82)"/>
                    <path fill="#80B1FF" d="M22.434 25.333L0 12.141 21.028 0 43.874 13.03z" transform="translate(0 124) matrix(-1 0 0 1 369.702 29.862) translate(80.162 43.82)"/>
                </g>
                <g>
                    <path fill="#477FCC" d="M0 63.865L22.434 76.488 22.434 25.333 0 12.141z" transform="translate(0 124) matrix(-1 0 0 1 369.702 29.862) translate(40.335 100.354)"/>
                    <path fill="#528CE2" d="M22.434 76.488L43.874 63.79 43.874 13.03 22.434 25.333z" transform="translate(0 124) matrix(-1 0 0 1 369.702 29.862) translate(40.335 100.354)"/>
                    <path fill="#80B1FF" d="M22.434 25.333L0 12.141 21.028 0 43.874 13.03z" transform="translate(0 124) matrix(-1 0 0 1 369.702 29.862) translate(40.335 100.354)"/>
                </g>
                <g>
                    <path fill="#477FCC" d="M0 77.488L22.434 90.11 22.434 25.333 0 12.141z" transform="translate(0 124) matrix(-1 0 0 1 369.702 29.862) translate(.168 110.23)"/>
                    <path fill="#528CE2" d="M22.434 90.11L43.874 77.413 43.874 13.03 22.434 25.333z" transform="translate(0 124) matrix(-1 0 0 1 369.702 29.862) translate(.168 110.23)"/>
                    <path fill="#80B1FF" d="M22.434 25.333L0 12.141 21.028 0 43.874 13.03z" transform="translate(0 124) matrix(-1 0 0 1 369.702 29.862) translate(.168 110.23)"/>
                </g>
            </g>
            <g>
                <g>
                    <path fill="#051B4D" d="M41.019 89.094c-.567 1.02-.047 2.794 1.56 5.32 2.408 3.789 4.648 5.116 7.147 5.447 2.5.331.692-3.925-1.151-5.819-1.228-1.262-2.321-3.3-3.278-6.11l-4.278 1.162z" transform="translate(0 124) matrix(-1 0 0 1 324.37 89.068) translate(0 .338)"/>
                    <path fill="#FFBBB0" d="M44.052 79.448l1.626 9.34c1.647 3.31 2.897 5.439 3.75 6.388 1.279 1.424-1.85 2.525-3.75 1.223-1.267-.868-2.73-2.929-4.39-6.183l-2.654-9.41 5.418-1.358z" transform="translate(0 124) matrix(-1 0 0 1 324.37 89.068) translate(0 .338)"/>
                    <path fill="#051B4D" d="M53.945 78.34c-.038 1.36.628 2.538 2 3.53 2.056 1.487 3.77 1.029 5.628 1.962 1.856.934 7.259.26 7.682-1.703.424-1.962-6.215-2.447-6.652-2.681-.291-.156-3.177-.526-8.658-1.109z" transform="translate(0 124) matrix(-1 0 0 1 324.37 89.068) translate(0 .338)"/>
                    <path fill="#FFBBB0" d="M53.17 70.286l4.708 6.047c.752.966 1.753 1.708 2.894 2.148 1.878.723 3.339 1.184 4.383 1.384 2.03.388 1.667 2.087-1.113 2.745-1.57.372-3.786.064-6.646-.924-1.012-.349-1.925-.934-2.666-1.707l-.427-.446-5.277-5.507 4.144-3.74z" transform="translate(0 124) matrix(-1 0 0 1 324.37 89.068) translate(0 .338)"/>
                    <path fill="#30334F" d="M17.947 6.785c2.813-.52 2.587-6.522-1.702-5.893-3.362 0-5.797-2.476-8.82.822-3.023 3.297-2.11 10.421-2.476 14.658-.365 4.237.624 4.156 3.29 5.199 2.665 1.043 13.671 1.02 11.312-4.722-2.36-5.741-1.188-7.52-1.604-10.064z" transform="translate(0 124) matrix(-1 0 0 1 324.37 89.068) translate(0 .338)"/>
                    <path fill="url(#prefix__b)" d="M19.384 41.445C29.529 45.3 35.688 49.26 37.859 53.324c2.17 4.064 4.401 12.931 6.692 26.603-1.878 2.588-4.3 3.322-7.268 2.202L28.14 54.373l-14.26-8.318 5.505-4.61z" transform="translate(0 124) matrix(-1 0 0 1 324.37 89.068) translate(0 .338)"/>
                    <path fill="#A9AAC4" d="M19.384 41.445C29.529 45.3 35.688 49.26 37.859 53.324c2.17 4.064 4.401 12.931 6.692 26.603-1.878 2.588-4.3 3.322-7.268 2.202L28.14 54.373l-14.26-8.318 5.505-4.61z" style="mix-blend-mode:multiply" transform="translate(0 124) matrix(-1 0 0 1 324.37 89.068) translate(0 .338)"/>
                    <g transform="translate(0 124) matrix(-1 0 0 1 324.37 89.068) translate(0 .338) translate(1.877 17.692)">
                        <mask id="prefix__d" fill="#fff">
                            <use xlink:href="#prefix__c"/>
                        </mask>
                        <use fill="#586DFF" xlink:href="#prefix__c"/>
                        <path fill="#A9AAC4" d="M-1.078 6.41C2.032 8.255 4 10.766 4.826 13.94c1.24 4.763 3.589 4.933 6.304 4.418 2.715-.515 4.93-1.413 8.633-1.036 3.703.378 1.386 1.687-1.303 1.397-2.688-.29-4.134.036-6.73 1.063-2.595 1.027-4.876 1.007-6.353-.537.445 2.824.015 4.719 5.69 5.656 5.673.938-7.334 9.208-10.832.598-2.332-5.74-2.77-12.104-1.313-19.09z" style="mix-blend-mode:multiply" mask="url(#prefix__d)"/>
                    </g>
                    <path fill="url(#prefix__e)" d="M3.772 44.646c-.806 5.275.154 9.342 2.879 12.199 2.724 2.857 12.12 4.504 28.185 4.942l12.828 13.274c2.043.737 4.42-.207 7.13-2.834-6.722-9.525-11.728-15.59-15.02-18.192-3.292-2.602-11.924-6.102-25.896-10.499l-10.106 1.11z" transform="translate(0 124) matrix(-1 0 0 1 324.37 89.068) translate(0 .338)"/>
                    <path fill="#0D3677" d="M12.665 42.594c1.393.487 1.797 1.813 1.213 3.981-.876 3.252-1.695 3.233-2.345 2.384-.65-.85-1.197-3.69-.31-5.027.59-.892 1.072-1.338 1.442-1.338z" style="mix-blend-mode:multiply" transform="translate(0 124) matrix(-1 0 0 1 324.37 89.068) translate(0 .338)"/>
                    <g>
                        <g transform="translate(0 124) matrix(-1 0 0 1 324.37 89.068) translate(0 .338) translate(7.127 4.494) translate(1.125 4.869)">
                            <mask id="prefix__g" fill="#fff">
                                <use xlink:href="#prefix__f"/>
                            </mask>
                            <use fill="#FFBBB0" xlink:href="#prefix__f"/>
                            <path fill="#A9AAC4" d="M1.64 3.71s.986 5.482 5.345 5.256c4.36-.226 1.005-2.804.502-3.237-.502-.432-5.848-2.02-5.848-2.02z" mask="url(#prefix__g)" opacity=".2" style="mix-blend-mode:multiply"/>
                        </g>
                        <path fill="#FFBBB0" d="M10.1 0c.509.71.764 2.168.764 4.373 0 3.308.34 7.9-2.327 7.98-2.666.08-4.253-.608-5.672-2.42C1.92 8.725 1.45 7.959 1.454 7.635.622 7.453.148 7.06.034 6.459c-.172-.903.3-1.75 1.565-1.75 1.266 0 5.403.536 7.085-4.428.284.117.54.151.768.102.228-.05.444-.177.647-.383z" transform="translate(0 124) matrix(-1 0 0 1 324.37 89.068) translate(0 .338) translate(7.127 4.494)"/>
                    </g>
                    <g transform="translate(0 124) matrix(-1 0 0 1 324.37 89.068) translate(0 .338) translate(10.127 32.957)">
                        <path fill="#092965" d="M22.494 7.643L1.122 19.973c-.358.206-.481.663-.275 1.021.066.114.16.208.274.274l12.586 7.29c.578.334 1.29.335 1.87.003l21.432-12.298c.359-.206.483-.664.277-1.022-.066-.114-.16-.21-.274-.275L24.366 7.644c-.579-.335-1.293-.335-1.872-.001z"/>
                        <path fill="#FFF" d="M22.494 6.894L1.122 19.224c-.358.206-.481.663-.275 1.021.066.114.16.208.274.274l12.586 7.29c.578.334 1.29.335 1.87.003l21.432-12.298c.359-.206.483-.664.277-1.022-.066-.114-.16-.21-.274-.275L24.366 6.895c-.579-.335-1.293-.335-1.872-.001z"/>
                        <path fill="#B8D1F8" d="M14.193 28.074l4.205-14.832c.189-.666.633-1.23 1.235-1.568L39.683.382c.134-.076.302-.06.422.038l.226.187c.224.187.32.486.246.769L36.95 15.057 14.64 28.35l-.447-.275z"/>
                        <path fill="#DCE9FF" d="M14.64 28.349l4.134-14.726c.188-.67.635-1.236 1.24-1.576L40.088.789c.18-.1.409-.037.51.144.045.081.059.177.038.268l-3.31 14.231L14.64 28.349z"/>
                        <ellipse cx="28.989" cy="14.832" fill="#092965" rx="1" ry="1.124" transform="rotate(32 28.99 14.832)"/>
                    </g>
                    <path fill="#FFBBB0" d="M12.665 42.614c5.512 1.138 8.747 1.707 9.707 1.707 1.332 0 4.815.323 6.424 1.23l-1.52 5.056c-.97-.168-1.962-.81-2.882-1.783-.72-.762-1.395-1.168-2.022-1.217H10.248c-.164-1.842-.054-3.162.333-3.96.386-.799 1.08-1.143 2.084-1.033z" transform="translate(0 124) matrix(-1 0 0 1 324.37 89.068) translate(0 .338)"/>
                    <g>
                        <path fill="#0D3677" d="M20.077 9.527c2.112-.245 3.08-.005 2.903.72-.177.724-1.05 1.153-2.619 1.285l-.284-2.005z" style="mix-blend-mode:multiply" transform="translate(0 124) matrix(-1 0 0 1 324.37 89.068) translate(0 .338) rotate(92 10.567 28.383)"/>
                        <path fill="#FFBBB0" d="M17.081 8.51L20.919.101l2.169 3.566-1.248 7.063c-1.19 1.316-2.35 1.442-3.48.377s-1.556-1.93-1.279-2.599z" transform="translate(0 124) matrix(-1 0 0 1 324.37 89.068) translate(0 .338) rotate(92 10.567 28.383)"/>
                        <path fill="#586DFF" d="M.313 18.973c.07-.59.4-1.172.987-1.748.658-.646 5.699-2.076 15.12-4.29l.836-4.8c1.316 2.15 3.233 2.888 5.751 2.213-.32 2.83-.813 4.61-1.476 5.337-.498.546-6.191 3.342-13.935 4.303-1.714.212-4.142-.126-7.283-1.015z" transform="translate(0 124) matrix(-1 0 0 1 324.37 89.068) translate(0 .338) rotate(92 10.567 28.383)"/>
                    </g>
                    <path fill="#586DFF" d="M3.252 22.2C1.084 23.947 0 26.086 0 28.619c0 3.798 1.807 15.577 2.592 16.588.524.675 3.6 2.055 9.226 4.142-1.177-2.166-.895-4.41.847-6.734-1.245-.434-3.15-1.063-5.717-1.885-.44-4.81-.873-8.958-1.3-12.445-.427-3.488-1.225-5.516-2.396-6.083z" transform="translate(0 124) matrix(-1 0 0 1 324.37 89.068) translate(0 .338)"/>
                </g>
                <g>
                    <path fill="#C7DCFF" d="M.067 1.598V20.6c0 .983.523 1.891 1.373 2.384l22.915 13.29c.439.254 1.001.104 1.255-.334.082-.14.124-.3.124-.461V16.532c0-.98-.52-1.887-1.368-2.38L1.448.803C1.01.55.448.697.192 1.136c-.082.14-.125.3-.125.462z" transform="translate(0 124) matrix(-1 0 0 1 324.37 89.068) matrix(-1 0 0 1 47.776 6.048)"/>
                    <path fill="#528BE1" d="M2.216 5.164L4.801 6.628 4.801 19.908 2.216 18.444zM6.832 7.931L9.417 9.395 9.417 22.49 6.832 21.027zM11.449 10.329L14.034 11.792 14.034 25.072 11.449 23.609zM16.065 12.911L18.65 14.375 18.65 27.654 16.065 26.191zM20.681 15.309L23.267 16.772 23.267 29.683 20.681 28.22z" transform="translate(0 124) matrix(-1 0 0 1 324.37 89.068) matrix(-1 0 0 1 47.776 6.048)"/>
                    <path fill="#FFF" d="M2.216 13.28L4.801 14.743 4.801 22.121 2.216 20.658zM6.832 19.551L9.417 21.015 9.417 24.703 6.832 23.24zM11.449 18.444L14.034 19.908 14.034 27.286 11.449 25.822zM16.065 18.813L18.65 20.277 18.65 29.868 16.065 28.404zM20.681 17.522L23.267 18.986 23.267 31.897 20.681 30.433z" transform="translate(0 124) matrix(-1 0 0 1 324.37 89.068) matrix(-1 0 0 1 47.776 6.048)"/>
                </g>
            </g>
            <g transform="translate(0 124) matrix(-1 0 0 1 180.702 0)">
                <g>
                    <path fill="#80B1FF" d="M116.97 190.12l5.95 18.293c2.862 8.798-.802 18.4-8.798 23.053l-29.438 17.131c-3.553 2.068-7.942 2.074-11.5.015l-30.996-17.933c-2.347-1.358-3.15-4.362-1.79-6.71.422-.73 1.026-1.34 1.752-1.769l28.941-17.091c7.859-4.641 11.485-14.083 8.754-22.791l-4.36-13.9 41.485 21.702z" transform="translate(1.512)"/>
                    <g>
                        <path fill="#DCE9FF" d="M81.42 21.498l5.918 17.755c2.964 8.894-.77 18.643-8.918 23.281L50.324 78.527c-3.502 1.993-7.793 2-11.302.02L7.485 60.736c-2.362-1.333-3.195-4.329-1.862-6.69.432-.764 1.06-1.398 1.82-1.837l27.31-15.784c8.006-4.627 11.701-14.212 8.872-23.015L39.315 0 81.42 21.498z" transform="translate(1.512) translate(33.989 168.418)"/>
                        <path fill="#BDCCE6" d="M39.316 0l2.81 1.435 40.369 23.289 4.843 14.53c1.537 4.611 1.273 9.454-.474 13.694L42.813 27.534c1.96-4.324 2.35-9.34.812-14.123L39.315 0z" transform="translate(1.512) translate(33.989 168.418)"/>
                    </g>
                    <path fill="#80B1FF" d="M7.202.564L3.474 2.39C1.374 3.416.11 5.615.278 7.947l8.606 119.386c.422 5.85 3.546 11.168 8.45 14.385l146.433 96.074c2.377 1.56 5.394 1.774 7.968.566l3.075-1.444c1.723-.81 2.824-2.542 2.824-4.445V107.455c0-6.72-3.584-12.932-9.402-16.296L11.819.724c-1.416-.819-3.147-.879-4.617-.16z" transform="translate(1.512)"/>
                    <path fill="#FFF" d="M.014 6.992L.221 131.73c.011 6.691 3.574 12.874 9.357 16.239l155.833 90.67c2.344 1.364 5.35.569 6.714-1.775.437-.75.666-1.602.666-2.47V110.245c0-6.688-3.548-12.874-9.322-16.25L7.403 2.745c-2.34-1.37-5.348-.581-6.717 1.76-.441.754-.673 1.613-.672 2.487z" transform="translate(1.512)"/>
                </g>
                <g transform="translate(0 2.786)">
                    <mask id="prefix__k" fill="#fff">
                        <use xlink:href="#prefix__h"/>
                    </mask>
                    <use fill="url(#prefix__i)" xlink:href="#prefix__h"/>
                    <path fill="url(#prefix__j)" d="M-16.254 100.158L193.629 221.868 193.629 283.732 -16.254 162.022z" mask="url(#prefix__k)"/>
                    <path fill="#DAE8FF" d="M34.097 27.076L5.696 10.2 5.696 105.241 34.097 120.948z" mask="url(#prefix__k)"/>
                </g>
                <path fill="#FFF" d="M5.696 104.328L161.645 12.986 161.645 107.818 5.696 196.541z" transform="matrix(-1 0 0 1 167.341 0)"/>
                <path fill="#91B2F0" d="M5.696 12.986l19.121 11.199v94.239h-.479L5.696 107.818V12.986z"/>
                <g>
                    <path fill="#80B1FF" d="M4.255 3.256v38.526c0 2.001 1.065 3.85 2.796 4.855l46.438 26.947c.894.518 2.039.214 2.558-.68.165-.285.252-.609.252-.939V33.553c0-1.997-1.061-3.844-2.787-4.85L7.068 1.64c-.893-.52-2.038-.218-2.559.675-.166.286-.254.61-.254.942z" transform="translate(95.634 75.978)"/>
                    <path fill="#FFF" fill-rule="nonzero" d="M44.115 35.406l-12.527-7.208.02-1.256 12.442 7.16.065 1.304zm1.689-.785v5.764l4.216 2.431v-5.771l-4.216-2.424zm-12.828-2.417l.08 1.253 11.06 6.366-.043-1.231-11.097-6.388zM44.115 46.258L31.588 39.05l.02-1.256 12.442 7.159.065 1.305zm1.689-.785v5.764l4.216 2.431v-5.771l-4.216-2.424zm-12.828-2.417l.08 1.253 11.06 6.366-.043-1.232-11.097-6.387zM44.115 56.361l-12.527-7.207.02-1.256 12.442 7.158.065 1.305zm1.689-.784v5.764l4.216 2.43v-5.77l-4.216-2.424zM32.976 53.16l.08 1.253 11.06 6.365-.043-1.231-11.097-6.387z" transform="translate(95.634 75.978)"/>
                    <g>
                        <path fill="url(#prefix__l)" d="M17.399 31.169c4.696-.008 8.514-6.364 8.527-14.196.013-7.833-3.782-14.176-8.478-14.167-.772 0-2.118-.14-4.038-.424-2.986 5.812-4.483 10.685-4.49 14.62-.005 3.538.985 8.046 2.972 13.525 2.662.43 4.497.644 5.507.642z" transform="translate(95.634 75.978) rotate(6 -105.206 41.628) rotate(-21 17.423 16.775)"/>
                        <g transform="translate(95.634 75.978) rotate(6 -105.206 41.628) translate(.092 1.801)">
                            <ellipse cx="12.852" cy="16.443" fill="#ADCCFF" rx="8.316" ry="14.175" transform="rotate(-20 12.852 16.443)"/>
                            <path fill="#FFF" fill-rule="nonzero" d="M10.398 16.174l4.597 13.862c3.353.354 5.625-1.53 6.815-5.652.828-3.046.444-6.701-1.153-10.966l-10.26 2.756z"/>
                        </g>
                    </g>
                </g>
                <g>
                    <path fill="#80B1FF" d="M4.255 3.256v38.526c0 2.001 1.065 3.85 2.796 4.855l46.438 26.947c.894.518 2.039.214 2.558-.68.165-.285.252-.609.252-.939V33.553c0-1.997-1.061-3.844-2.787-4.85L7.068 1.64c-.893-.52-2.038-.218-2.559.675-.166.286-.254.61-.254.942z" transform="translate(38.608 42.854)"/>
                    <path fill="#FFF" fill-rule="nonzero" d="M44.115 35.406l-12.527-7.208.02-1.256 12.442 7.16.065 1.304zm1.689-.785v5.764l4.216 2.431v-5.771l-4.216-2.424zm-12.828-2.417l.08 1.253 11.06 6.366-.043-1.231-11.097-6.388zM44.115 46.258L31.588 39.05l.02-1.256 12.442 7.159.065 1.305zm1.689-.785v5.764l4.216 2.431v-5.771l-4.216-2.424zm-12.828-2.417l.08 1.253 11.06 6.366-.043-1.232-11.097-6.387zM44.115 56.361l-12.527-7.207.02-1.256 12.442 7.158.065 1.305zm1.689-.784v5.764l4.216 2.43v-5.77l-4.216-2.424zM32.976 53.16l.08 1.253 11.06 6.365-.043-1.231-11.097-6.387z" transform="translate(38.608 42.854)"/>
                    <g>
                        <path fill="url(#prefix__l)" d="M17.399 31.169c4.696-.008 8.514-6.364 8.527-14.196.013-7.833-3.782-14.176-8.478-14.167-.772 0-2.118-.14-4.038-.424-2.986 5.812-4.483 10.685-4.49 14.62-.005 3.538.985 8.046 2.972 13.525 2.662.43 4.497.644 5.507.642z" transform="translate(38.608 42.854) rotate(6 -105.206 41.628) rotate(-21 17.423 16.775)"/>
                        <g transform="translate(38.608 42.854) rotate(6 -105.206 41.628) translate(.092 1.801)">
                            <ellipse cx="12.852" cy="16.443" fill="#ADCCFF" rx="8.316" ry="14.175" transform="rotate(-20 12.852 16.443)"/>
                            <path fill="#FFF" fill-rule="nonzero" d="M10.398 16.174l4.597 13.862c3.353.354 5.625-1.53 6.815-5.652.828-3.046.444-6.701-1.153-10.966l-10.26 2.756z"/>
                        </g>
                    </g>
                </g>
                <path stroke="#DDE7F9" stroke-width=".68" d="M150.212 182.676L41.291 121.105c-1.218-.689-1.956-1.993-1.919-3.391l.523-19.782c.017-.626.538-1.12 1.164-1.103.191.005.379.058.544.155l108.434 63.639c1.157.678 1.867 1.919 1.867 3.26v17.806c0 .627-.508 1.134-1.134 1.134-.195 0-.388-.05-.558-.147z"/>
                <ellipse cx="80.892" cy="173.691" fill="url(#prefix__m)" rx="2.268" ry="3.969" transform="scale(-1 1) rotate(18 0 -337.041)"/>
            </g>
            <g transform="translate(0 124) matrix(-1 0 0 1 212.344 30.268)">
                <ellipse cx="25.594" cy="232.631" fill="url(#prefix__n)" filter="url(#prefix__o)" opacity=".211" rx="25.326" ry="14.931"/>
                <path fill="#80B1FF" d="M6.658 181.746L34.54 98.244c.132-.396.56-.61.957-.478l.056.022 13.914 5.915c.358.152.542.55.427.92L22.61 192.292c-2.296 4.76-6.215 5.95-11.76 3.57-5.543-2.38-6.941-7.085-4.193-14.116z"/>
                <ellipse cx="42.267" cy="101.564" fill="url(#prefix__p)" rx="8.316" ry="3.969" transform="rotate(24 42.267 101.564)"/>
                <g transform="matrix(-1 0 0 1 103.846 0)">
                    <g>
                        <path fill="#DCE9FF" d="M.008 3.971L9.953.351l7.499 20.602c.785 2.158-.327 4.544-2.485 5.33l-2.131.775c-2.158.786-4.544-.327-5.33-2.485L.008 3.971z" transform="translate(47.634 76.328)"/>
                        <path fill="#A9AAC4" d="M2.226 9.993l1.808 5.044c2.052-.018 3.966-.422 5.743-1.213 1.776-.79 3.016-2.068 3.72-3.831l-1.337-3.54-9.934 3.54z" style="mix-blend-mode:multiply" transform="translate(47.634 76.328)"/>
                    </g>
                    <ellipse cx="38.934" cy="47.628" fill="url(#prefix__q)" rx="32.13" ry="41.958" transform="rotate(10 38.934 47.628)"/>
                    <ellipse cx="47.628" cy="47.25" fill="#80B1FF" rx="32.13" ry="41.958" transform="rotate(10 47.628 47.25)"/>
                    <g transform="translate(14.457 7.56)">
                        <mask id="prefix__s" fill="#fff">
                            <use xlink:href="#prefix__r"/>
                        </mask>
                        <use fill="#3F699D" transform="rotate(10 33.264 40.068)" xlink:href="#prefix__r"/>
                        <g mask="url(#prefix__s)">
                            <g transform="translate(-24.148 -5.292)">
                                <mask id="prefix__w" fill="#fff">
                                    <use xlink:href="#prefix__t"/>
                                </mask>
                                <use fill="url(#prefix__u)" transform="rotate(7 42.525 44.165)" xlink:href="#prefix__t"/>
                                <path fill="url(#prefix__v)" d="M60.408 11.085c13.1 4.262 20.94 20.959 17.759 39.001-2.44 13.842-10.706 24.72-20.64 28.821-13.1-4.262-20.94-20.959-17.759-39 2.42-13.722 10.563-24.532 20.38-28.714z" mask="url(#prefix__w)"/>
                                <g mask="url(#prefix__w)">
                                    <g>
                                        <path fill="#80B1FF" d="M4.153 3.16v37.344c0 1.954 1.043 3.76 2.736 4.735l45.335 26.14c.871.502 1.985.203 2.488-.668.16-.277.244-.59.244-.91V32.567c0-1.95-1.04-3.753-2.727-4.73L6.888 1.583c-.87-.504-1.985-.207-2.49.664-.16.278-.245.592-.245.913z" transform="matrix(-1 0 0 1 55.058 3.374)"/>
                                        <path fill="#FFF" fill-rule="nonzero" d="M43.062 34.342l-12.228-6.991.02-1.218 12.145 6.943.063 1.266zm1.649-.761v5.59l4.115 2.359v-5.598L44.71 33.58zm-12.522-2.345l.078 1.216 10.795 6.174-.04-1.194-10.833-6.196zM43.062 44.868l-12.228-6.991.02-1.219 12.145 6.944.063 1.266zm1.649-.761v5.59l4.115 2.358v-5.598l-4.115-2.35zm-12.522-2.345l.078 1.216 10.795 6.174-.04-1.195-10.833-6.195zM43.062 54.668l-12.228-6.992.02-1.218 12.145 6.944.063 1.266zm1.649-.762v5.591l4.115 2.358v-5.598l-4.115-2.35zm-12.522-2.344l.078 1.215 10.795 6.175-.04-1.195-10.833-6.195z" transform="matrix(-1 0 0 1 55.058 3.374)"/>
                                        <g>
                                            <path fill="url(#prefix__x)" d="M17.012 30.244c4.58.002 8.29-6.16 8.287-13.764-.003-7.603-3.718-13.768-8.298-13.77-.753 0-2.066-.14-3.94-.42-2.9 5.636-4.35 10.364-4.348 14.184.002 3.434.977 7.813 2.926 13.135 2.597.423 4.388.634 5.373.635z" transform="matrix(-1 0 0 1 55.058 3.374) rotate(6 -101.944 40.488) rotate(-21 17.006 16.267)"/>
                                            <g transform="matrix(-1 0 0 1 55.058 3.374) rotate(6 -101.944 40.488) translate(.202 1.55)">
                                                <mask id="prefix__z" fill="#fff">
                                                    <use xlink:href="#prefix__y"/>
                                                </mask>
                                                <use fill="#ADCCFF" transform="rotate(-21 13.052 15.932)" xlink:href="#prefix__y"/>
                                                <path fill="#FFF" d="M21.28 9.802l-9.201 6.02 6.087 14.477c3.147-2.065 4.719-5.48 4.715-10.246-.003-4.766-.537-8.183-1.6-10.251z" mask="url(#prefix__z)" transform="rotate(-6 17.48 20.05)"/>
                                            </g>
                                        </g>
                                    </g>
                                </g>
                                <path fill="#80B1FF" d="M57.078 -52.542H106.06V85.888H57.078z" mask="url(#prefix__w)" opacity=".467"/>
                            </g>
                        </g>
                        <path stroke="#DDE7F9" stroke-width=".68" d="M-78.231 50.549l.142 17.295c.008.973.534 1.867 1.38 2.346l101.537 57.502c.49.278 1.113.106 1.39-.385.087-.153.133-.326.133-.503v-15.948c0-.97-.518-1.869-1.358-2.355L-76.7 49.657c-.487-.282-1.112-.116-1.394.372-.091.158-.139.337-.137.52z" mask="url(#prefix__s)" transform="matrix(-1 0 0 1 -51.895 0)"/>
                    </g>
                </g>
                <g transform="translate(9.718 109.592)">
                    <path fill="#30334F" d="M.177 119.49C.06 120.282 0 120.88 0 121.286c0 .606 1.064 1.586 3.176 1.423 2.112-.163 3.923-2.124 4.106-2.334.182-.21-.19-1.85 1.07-2.279 1.258-.428 1.495.45 3.55-.868 2.055-1.318 1.964-4.78.789-5.594-.783-.543-4.955 2.075-12.514 7.856zM15.15 128.96c-.227.605-.34 1.253-.34 1.945 0 1.037 2.022 1.594 4.457 1.594s1.488-1.012 3.13-1.303c1.641-.291 1.43.725 3.827.725 2.397 0 5.685-.478 6.157-2.961.314-1.655-5.43-1.655-17.23 0z"/>
                    <path fill="#181E36" d="M.846 112.759c-.419.94-.701 3.172-.846 6.696.315 1.461 1.439 2.071 3.37 1.83 2.895-.36 2.324-1.72 6.64-3.905 4.317-2.185 4.045-5.11 2.912-5.816-1.133-.706-2.552-1.131-6.178-.138-2.418.663-4.384 1.107-5.898 1.333zM23.495 121.904c.583 1.474 2.038 2.392 4.366 2.755 3.491.544 5.273 2.041 4.955 3.492-.317 1.45-2.062 3.167-5.933 2.787-3.87-.38-4.672-.015-6.643.173s-4.29.192-5.256-1.384c-.233-1.242-.233-2.794 0-4.656.348-2.793.944-2.993.944-3.95 0-.637 2.522-.376 7.567.783z"/>
                    <path fill="#C47770" d="M23.597 10.398c.379.811.719 1.359 1.02 1.644.45.428-.07 1.005-.545 1.005-.317 0-.475-.883-.475-2.649z"/>
                    <path fill="url(#prefix__A)" d="M26.149 50.906c1.066 1.707.765 5.977.868 9.753.234 8.604-.558 18.914-.558 20.912 0 2.874-1.31 23.696-1.31 28.501 0 3.204-.172 7.065-.514 11.583-3.83 1.866-7.036 1.809-9.62-.171.541-26.21.812-40.104.812-41.683 0-1.58-.096-2.822-.286-3.728-2.18 9.784-3.27 15.326-3.27 16.626 0 1.3-1.164 8.112-3.491 20.435-1.407 1.264-2.972 1.727-4.696 1.39-1.724-.336-2.983-.99-3.776-1.964.531-12.169 1.483-19.702 2.854-22.6.29-5.642 1.793-20.984 1.793-24.742 0-3.758-1.78-10.949.451-17.361 2.23-6.412 17.249-2.547 20.743 3.049z"/>
                    <path stroke="#1C478A" stroke-width=".5" d="M24.181 50.19c1.133.975.454 33.041.454 39.452 0 4.274-.686 14.866-2.057 31.776"/>
                    <ellipse cx="23.996" cy="9.698" stroke="#30334F" stroke-width=".5" rx="1.286" ry="1.862" transform="rotate(-18 23.996 9.698)"/>
                    <path fill="#092965" d="M6.041 44.38c-.376.014-.564.49-.564 1.428 0 1.407 1.543 3.16 3.077 4.192 1.535 1.032 6.078 2.192 13.199 1.5 2.385-.468 3.73-1.761 4.036-3.881l-19.748-3.24z"/>
                    <rect width="2.2" height="1" x="21.246" y="7.461" fill="#30334F" rx=".427"/>
                    <path fill="#AC6A5A" d="M21.575 4.415c1.168 2.241 1.753 3.82 1.753 4.736 0 1.375.85 1.319.85 3.125s.097 5.513-.85 6.403c-.632.593-1.824.75-3.578.471-.277 1.89-.277 3.066 0 3.53.277.463.639.83 1.084 1.097-3.47-.227-5.694-.593-6.673-1.098-.979-.504-1.348-1.395-1.107-2.674.359.047.538-.083.538-.392v-3.559c-.361-5.24.077-8.575 1.314-10.002 1.238-1.427 3.461-1.973 6.669-1.637zM30.789 18.278c0-1.015 2.21-5.449 6.633-13.301.273 8.701-.507 14.315-2.34 16.84-2.862-1.345-4.293-2.524-4.293-3.54zM2.185 34.811c-.47 4.64.532 7.83 3.01 9.569l1.46-10.005-4.47.436z"/>
                    <path fill="#586DFF" d="M6.819 21.817c-1.98 2.521-3.699 6.684-5.157 12.487.432 1.52 1.708 2.28 3.828 2.28L6.82 21.818z"/>
                    <g transform="translate(4.66 16.48)">
                        <mask id="prefix__C" fill="#fff">
                            <use xlink:href="#prefix__B"/>
                        </mask>
                        <use fill="#586DFF" xlink:href="#prefix__B"/>
                        <path stroke="#D8D8D8" stroke-width=".5" d="M-.415 8.514C3.46 14.127 10.762 17.4 21.489 18.33" style="mix-blend-mode:multiply" mask="url(#prefix__C)"/>
                    </g>
                    <g transform="translate(7.877 .182)">
                        <mask id="prefix__F" fill="#fff">
                            <use xlink:href="#prefix__D"/>
                        </mask>
                        <use fill="#30334F" xlink:href="#prefix__D"/>
                        <path fill="url(#prefix__E)" d="M10.705 7.058c-4.506.604-5.315 3.328-2.429 8.173 4.33 7.267 1.617-1.474 3.836-2.366 1.48-.595 1.48-2.688 0-6.278l-1.407.471z" mask="url(#prefix__F)"/>
                    </g>
                    <path fill="#4A5CD8" d="M13.484 19.025c-.106.473.65.92 2.264 1.34 2.424.63 4.402 1.404 5.447 2.923l.997 1.322c-5.247-1.331-8.317-2.35-9.21-3.056-1.338-1.06-.341-1.73-.341-1.73l.843-.8z"/>
                    <path fill="#828EB7" d="M14.496 56.681v1.875c2.456.792 5.012.91 7.668.353V57.3c-1.83.073-3.193.073-4.092 0-.898-.072-2.09-.279-3.576-.619zM15.54 76.073l-.594-10.047c-.954-.164-1.742-.433-2.362-.808-.62-.374-1.36-1.027-2.22-1.958-.189 3.641.069 6.879.773 9.714 1.057 4.251 2.872 8.657 2.66 10.951l1.744-7.852z" style="mix-blend-mode:multiply"/>
                    <path stroke="#30334F" stroke-width=".5" d="M25.021 8.739L17.565 12.154"/>
                    <path stroke="#1C478A" stroke-width=".5" d="M13.684 74.82L7.782 113.816M10.03 53.571c-1.397 6.536-.362 10.596 3.103 12.18"/>
                    <path fill="#AC6A5A" d="M18.29 13.047c-.763-.893-1.422-1.19-1.978-.893-.835.447-1.115 1.627 0 3.148.743 1.014 1.5 1.122 2.27.322l-.292-2.577z"/>
                    <path fill="url(#prefix__G)" d="M18.17 13.6c-.373-.485-.695-.647-.966-.485-.408.243-.544.886 0 1.714.363.552.732.61 1.108.175l-.142-1.403z" style="mix-blend-mode:multiply"/>
                </g>
            </g>
            <g>
                <path fill="url(#prefix__H)" d="M39.096 8.58l-3.138-5.186 15.223 8.86c2.857 1.374 4.845 4.303 5.493 8.524L33.761 31.374l2.972-22.079c.808-.31 1.597-.547 2.363-.714z" transform="translate(0 124) rotate(60 -32.3 359.27)"/>
                <path fill="url(#prefix__I)" d="M33.761 31.374L19.805 52.446c-2.587-2.045-4.143-5.704-4.143-10.684 0-11.322 8.044-25.185 17.966-30.964 1.059-.616 2.096-1.116 3.105-1.503l-2.972 22.08z" transform="translate(0 124) rotate(60 -32.3 359.27)"/>
                <path fill="url(#prefix__J)" d="M33.761 31.374L19.805 52.446 4.155 43.335 21.083 0.183 36.733 9.295z" transform="translate(0 124) rotate(60 -32.3 359.27)"/>
                <path fill="url(#prefix__K)" d="M18.11 22.262L4.156 43.335C1.567 41.289.012 37.63.012 32.65c0-11.323 8.043-25.186 17.966-30.965C19.037 1.07 20.074.57 21.083.183l-2.972 22.08z" transform="translate(0 124) rotate(60 -32.3 359.27)"/>
                <path fill="url(#prefix__L)" d="M40.932 11.614L51.365 17.689 33.761 31.374 23.327 25.3z" transform="translate(0 124) rotate(60 -32.3 359.27)"/>
                <path fill="url(#prefix__M)" d="M26.3 3.22c7.51-2.88 13.418.494 14.632 8.394L23.327 25.3 26.3 3.22z" transform="translate(0 124) rotate(60 -32.3 359.27)"/>
                <path fill="url(#prefix__N)" d="M20.578 51.28L33.76 31.374l12.304-9.565c.205-1.36.312-2.701.312-4.01 0-1.116-.078-2.167-.229-3.148l10.526 6.127c.151.98.23 2.031.23 3.148 0 11.323-8.044 25.186-17.967 30.964-5.558 3.237-10.527 3.25-13.823.645L14.588 49.41c1.63 1.289 3.671 1.937 5.99 1.87z" transform="translate(0 124) rotate(60 -32.3 359.27)"/>
                <path fill="url(#prefix__O)" d="M14.588 49.409l13.956-21.072L46.148 14.65c.15.981.23 2.032.23 3.149 0 11.323-8.044 25.186-17.967 30.964-5.558 3.237-10.527 3.25-13.823.645z" transform="translate(0 124) rotate(60 -32.3 359.27)"/>
            </g>
        </g>
        <g fill="#258AFF">
            <path d="M5.4 2.559c0 1.413-1.208 2.558-2.7 2.558C1.208 5.117 0 3.972 0 2.56 0 1.145 1.208 0 2.7 0c1.492 0 2.7 1.145 2.7 2.559M5.4 15.352c0 1.413-1.208 2.558-2.7 2.558-1.492 0-2.7-1.145-2.7-2.558 0-1.414 1.208-2.559 2.7-2.559 1.492 0 2.7 1.145 2.7 2.559M19.8 15.352c0 1.413-1.208 2.558-2.7 2.558-1.492 0-2.7-1.145-2.7-2.558 0-1.414 1.208-2.559 2.7-2.559 1.492 0 2.7 1.145 2.7 2.559M33.3 15.352c0 1.413-1.208 2.558-2.7 2.558-1.492 0-2.7-1.145-2.7-2.558 0-1.414 1.208-2.559 2.7-2.559 1.492 0 2.7 1.145 2.7 2.559M46.8 15.352c0 1.413-1.208 2.558-2.7 2.558-1.492 0-2.7-1.145-2.7-2.558 0-1.414 1.208-2.559 2.7-2.559 1.492 0 2.7 1.145 2.7 2.559M61.2 15.352c0 1.413-1.208 2.558-2.7 2.558-1.492 0-2.7-1.145-2.7-2.558 0-1.414 1.208-2.559 2.7-2.559 1.492 0 2.7 1.145 2.7 2.559M74.7 15.352c0 1.413-1.208 2.558-2.7 2.558-1.492 0-2.7-1.145-2.7-2.558 0-1.414 1.208-2.559 2.7-2.559 1.492 0 2.7 1.145 2.7 2.559M89.1 15.352c0 1.413-1.208 2.558-2.7 2.558-1.492 0-2.7-1.145-2.7-2.558 0-1.414 1.208-2.559 2.7-2.559 1.492 0 2.7 1.145 2.7 2.559M102.6 15.352c0 1.413-1.208 2.558-2.7 2.558-1.492 0-2.7-1.145-2.7-2.558 0-1.414 1.208-2.559 2.7-2.559 1.492 0 2.7 1.145 2.7 2.559M5.4 28.998c0 1.414-1.208 2.559-2.7 2.559-1.492 0-2.7-1.145-2.7-2.56 0-1.413 1.208-2.558 2.7-2.558 1.492 0 2.7 1.145 2.7 2.559M19.8 28.998c0 1.414-1.208 2.559-2.7 2.559-1.492 0-2.7-1.145-2.7-2.56 0-1.413 1.208-2.558 2.7-2.558 1.492 0 2.7 1.145 2.7 2.559M33.3 28.998c0 1.414-1.208 2.559-2.7 2.559-1.492 0-2.7-1.145-2.7-2.56 0-1.413 1.208-2.558 2.7-2.558 1.492 0 2.7 1.145 2.7 2.559M46.8 28.998c0 1.414-1.208 2.559-2.7 2.559-1.492 0-2.7-1.145-2.7-2.56 0-1.413 1.208-2.558 2.7-2.558 1.492 0 2.7 1.145 2.7 2.559M61.2 28.998c0 1.414-1.208 2.559-2.7 2.559-1.492 0-2.7-1.145-2.7-2.56 0-1.413 1.208-2.558 2.7-2.558 1.492 0 2.7 1.145 2.7 2.559M74.7 28.998c0 1.414-1.208 2.559-2.7 2.559-1.492 0-2.7-1.145-2.7-2.56 0-1.413 1.208-2.558 2.7-2.558 1.492 0 2.7 1.145 2.7 2.559M89.1 28.998c0 1.414-1.208 2.559-2.7 2.559-1.492 0-2.7-1.145-2.7-2.56 0-1.413 1.208-2.558 2.7-2.558 1.492 0 2.7 1.145 2.7 2.559M102.6 28.998c0 1.414-1.208 2.559-2.7 2.559-1.492 0-2.7-1.145-2.7-2.56 0-1.413 1.208-2.558 2.7-2.558 1.492 0 2.7 1.145 2.7 2.559M5.4 41.791c0 1.414-1.208 2.559-2.7 2.559-1.492 0-2.7-1.145-2.7-2.559 0-1.414 1.208-2.559 2.7-2.559 1.492 0 2.7 1.145 2.7 2.56M19.8 41.791c0 1.414-1.208 2.559-2.7 2.559-1.492 0-2.7-1.145-2.7-2.559 0-1.414 1.208-2.559 2.7-2.559 1.492 0 2.7 1.145 2.7 2.56M33.3 41.791c0 1.414-1.208 2.559-2.7 2.559-1.492 0-2.7-1.145-2.7-2.559 0-1.414 1.208-2.559 2.7-2.559 1.492 0 2.7 1.145 2.7 2.56M46.8 41.791c0 1.414-1.208 2.559-2.7 2.559-1.492 0-2.7-1.145-2.7-2.559 0-1.414 1.208-2.559 2.7-2.559 1.492 0 2.7 1.145 2.7 2.56M61.2 41.791c0 1.414-1.208 2.559-2.7 2.559-1.492 0-2.7-1.145-2.7-2.559 0-1.414 1.208-2.559 2.7-2.559 1.492 0 2.7 1.145 2.7 2.56M74.7 41.791c0 1.414-1.208 2.559-2.7 2.559-1.492 0-2.7-1.145-2.7-2.559 0-1.414 1.208-2.559 2.7-2.559 1.492 0 2.7 1.145 2.7 2.56M89.1 41.791c0 1.414-1.208 2.559-2.7 2.559-1.492 0-2.7-1.145-2.7-2.559 0-1.414 1.208-2.559 2.7-2.559 1.492 0 2.7 1.145 2.7 2.56M102.6 41.791c0 1.414-1.208 2.559-2.7 2.559-1.492 0-2.7-1.145-2.7-2.559 0-1.414 1.208-2.559 2.7-2.559 1.492 0 2.7 1.145 2.7 2.56M5.4 55.437c0 1.414-1.208 2.559-2.7 2.559-1.492 0-2.7-1.145-2.7-2.559 0-1.413 1.208-2.558 2.7-2.558 1.492 0 2.7 1.145 2.7 2.558M19.8 55.437c0 1.414-1.208 2.559-2.7 2.559-1.492 0-2.7-1.145-2.7-2.559 0-1.413 1.208-2.558 2.7-2.558 1.492 0 2.7 1.145 2.7 2.558M33.3 55.437c0 1.414-1.208 2.559-2.7 2.559-1.492 0-2.7-1.145-2.7-2.559 0-1.413 1.208-2.558 2.7-2.558 1.492 0 2.7 1.145 2.7 2.558M46.8 55.437c0 1.414-1.208 2.559-2.7 2.559-1.492 0-2.7-1.145-2.7-2.559 0-1.413 1.208-2.558 2.7-2.558 1.492 0 2.7 1.145 2.7 2.558M61.2 55.437c0 1.414-1.208 2.559-2.7 2.559-1.492 0-2.7-1.145-2.7-2.559 0-1.413 1.208-2.558 2.7-2.558 1.492 0 2.7 1.145 2.7 2.558M74.7 55.437c0 1.414-1.208 2.559-2.7 2.559-1.492 0-2.7-1.145-2.7-2.559 0-1.413 1.208-2.558 2.7-2.558 1.492 0 2.7 1.145 2.7 2.558M89.1 55.437c0 1.414-1.208 2.559-2.7 2.559-1.492 0-2.7-1.145-2.7-2.559 0-1.413 1.208-2.558 2.7-2.558 1.492 0 2.7 1.145 2.7 2.558M102.6 55.437c0 1.414-1.208 2.559-2.7 2.559-1.492 0-2.7-1.145-2.7-2.559 0-1.413 1.208-2.558 2.7-2.558 1.492 0 2.7 1.145 2.7 2.558M5.4 68.23c0 1.414-1.208 2.559-2.7 2.559-1.492 0-2.7-1.145-2.7-2.559 0-1.413 1.208-2.558 2.7-2.558 1.492 0 2.7 1.145 2.7 2.558M19.8 68.23c0 1.414-1.208 2.559-2.7 2.559-1.492 0-2.7-1.145-2.7-2.559 0-1.413 1.208-2.558 2.7-2.558 1.492 0 2.7 1.145 2.7 2.558M33.3 68.23c0 1.414-1.208 2.559-2.7 2.559-1.492 0-2.7-1.145-2.7-2.559 0-1.413 1.208-2.558 2.7-2.558 1.492 0 2.7 1.145 2.7 2.558M46.8 68.23c0 1.414-1.208 2.559-2.7 2.559-1.492 0-2.7-1.145-2.7-2.559 0-1.413 1.208-2.558 2.7-2.558 1.492 0 2.7 1.145 2.7 2.558M61.2 68.23c0 1.414-1.208 2.559-2.7 2.559-1.492 0-2.7-1.145-2.7-2.559 0-1.413 1.208-2.558 2.7-2.558 1.492 0 2.7 1.145 2.7 2.558M74.7 68.23c0 1.414-1.208 2.559-2.7 2.559-1.492 0-2.7-1.145-2.7-2.559 0-1.413 1.208-2.558 2.7-2.558 1.492 0 2.7 1.145 2.7 2.558M89.1 68.23c0 1.414-1.208 2.559-2.7 2.559-1.492 0-2.7-1.145-2.7-2.559 0-1.413 1.208-2.558 2.7-2.558 1.492 0 2.7 1.145 2.7 2.558M102.6 68.23c0 1.414-1.208 2.559-2.7 2.559-1.492 0-2.7-1.145-2.7-2.559 0-1.413 1.208-2.558 2.7-2.558 1.492 0 2.7 1.145 2.7 2.558M5.4 81.876c0 1.414-1.208 2.56-2.7 2.56-1.492 0-2.7-1.146-2.7-2.56 0-1.413 1.208-2.558 2.7-2.558 1.492 0 2.7 1.145 2.7 2.558M19.8 81.876c0 1.414-1.208 2.56-2.7 2.56-1.492 0-2.7-1.146-2.7-2.56 0-1.413 1.208-2.558 2.7-2.558 1.492 0 2.7 1.145 2.7 2.558M33.3 81.876c0 1.414-1.208 2.56-2.7 2.56-1.492 0-2.7-1.146-2.7-2.56 0-1.413 1.208-2.558 2.7-2.558 1.492 0 2.7 1.145 2.7 2.558M46.8 81.876c0 1.414-1.208 2.56-2.7 2.56-1.492 0-2.7-1.146-2.7-2.56 0-1.413 1.208-2.558 2.7-2.558 1.492 0 2.7 1.145 2.7 2.558M61.2 81.876c0 1.414-1.208 2.56-2.7 2.56-1.492 0-2.7-1.146-2.7-2.56 0-1.413 1.208-2.558 2.7-2.558 1.492 0 2.7 1.145 2.7 2.558M74.7 81.876c0 1.414-1.208 2.56-2.7 2.56-1.492 0-2.7-1.146-2.7-2.56 0-1.413 1.208-2.558 2.7-2.558 1.492 0 2.7 1.145 2.7 2.558M89.1 81.876c0 1.414-1.208 2.56-2.7 2.56-1.492 0-2.7-1.146-2.7-2.56 0-1.413 1.208-2.558 2.7-2.558 1.492 0 2.7 1.145 2.7 2.558M102.6 81.876c0 1.414-1.208 2.56-2.7 2.56-1.492 0-2.7-1.146-2.7-2.56 0-1.413 1.208-2.558 2.7-2.558 1.492 0 2.7 1.145 2.7 2.558M5.4 94.67c0 1.413-1.208 2.558-2.7 2.558-1.492 0-2.7-1.145-2.7-2.558 0-1.414 1.208-2.559 2.7-2.559 1.492 0 2.7 1.145 2.7 2.559M19.8 94.67c0 1.413-1.208 2.558-2.7 2.558-1.492 0-2.7-1.145-2.7-2.558 0-1.414 1.208-2.559 2.7-2.559 1.492 0 2.7 1.145 2.7 2.559M33.3 94.67c0 1.413-1.208 2.558-2.7 2.558-1.492 0-2.7-1.145-2.7-2.558 0-1.414 1.208-2.559 2.7-2.559 1.492 0 2.7 1.145 2.7 2.559M46.8 94.67c0 1.413-1.208 2.558-2.7 2.558-1.492 0-2.7-1.145-2.7-2.558 0-1.414 1.208-2.559 2.7-2.559 1.492 0 2.7 1.145 2.7 2.559M61.2 94.67c0 1.413-1.208 2.558-2.7 2.558-1.492 0-2.7-1.145-2.7-2.558 0-1.414 1.208-2.559 2.7-2.559 1.492 0 2.7 1.145 2.7 2.559M74.7 94.67c0 1.413-1.208 2.558-2.7 2.558-1.492 0-2.7-1.145-2.7-2.558 0-1.414 1.208-2.559 2.7-2.559 1.492 0 2.7 1.145 2.7 2.559M89.1 94.67c0 1.413-1.208 2.558-2.7 2.558-1.492 0-2.7-1.145-2.7-2.558 0-1.414 1.208-2.559 2.7-2.559 1.492 0 2.7 1.145 2.7 2.559M102.6 94.67c0 1.413-1.208 2.558-2.7 2.558-1.492 0-2.7-1.145-2.7-2.558 0-1.414 1.208-2.559 2.7-2.559 1.492 0 2.7 1.145 2.7 2.559M5.4 107.463c0 1.413-1.208 2.558-2.7 2.558-1.492 0-2.7-1.145-2.7-2.558 0-1.414 1.208-2.559 2.7-2.559 1.492 0 2.7 1.145 2.7 2.559M19.8 107.463c0 1.413-1.208 2.558-2.7 2.558-1.492 0-2.7-1.145-2.7-2.558 0-1.414 1.208-2.559 2.7-2.559 1.492 0 2.7 1.145 2.7 2.559M33.3 107.463c0 1.413-1.208 2.558-2.7 2.558-1.492 0-2.7-1.145-2.7-2.558 0-1.414 1.208-2.559 2.7-2.559 1.492 0 2.7 1.145 2.7 2.559M46.8 107.463c0 1.413-1.208 2.558-2.7 2.558-1.492 0-2.7-1.145-2.7-2.558 0-1.414 1.208-2.559 2.7-2.559 1.492 0 2.7 1.145 2.7 2.559M61.2 107.463c0 1.413-1.208 2.558-2.7 2.558-1.492 0-2.7-1.145-2.7-2.558 0-1.414 1.208-2.559 2.7-2.559 1.492 0 2.7 1.145 2.7 2.559M74.7 107.463c0 1.413-1.208 2.558-2.7 2.558-1.492 0-2.7-1.145-2.7-2.558 0-1.414 1.208-2.559 2.7-2.559 1.492 0 2.7 1.145 2.7 2.559M89.1 107.463c0 1.413-1.208 2.558-2.7 2.558-1.492 0-2.7-1.145-2.7-2.558 0-1.414 1.208-2.559 2.7-2.559 1.492 0 2.7 1.145 2.7 2.559M102.6 107.463c0 1.413-1.208 2.558-2.7 2.558-1.492 0-2.7-1.145-2.7-2.558 0-1.414 1.208-2.559 2.7-2.559 1.492 0 2.7 1.145 2.7 2.559M5.4 121.109c0 1.414-1.208 2.559-2.7 2.559-1.492 0-2.7-1.145-2.7-2.56 0-1.413 1.208-2.558 2.7-2.558 1.492 0 2.7 1.145 2.7 2.559M19.8 121.109c0 1.414-1.208 2.559-2.7 2.559-1.492 0-2.7-1.145-2.7-2.56 0-1.413 1.208-2.558 2.7-2.558 1.492 0 2.7 1.145 2.7 2.559M33.3 121.109c0 1.414-1.208 2.559-2.7 2.559-1.492 0-2.7-1.145-2.7-2.56 0-1.413 1.208-2.558 2.7-2.558 1.492 0 2.7 1.145 2.7 2.559M46.8 121.109c0 1.414-1.208 2.559-2.7 2.559-1.492 0-2.7-1.145-2.7-2.56 0-1.413 1.208-2.558 2.7-2.558 1.492 0 2.7 1.145 2.7 2.559M61.2 121.109c0 1.414-1.208 2.559-2.7 2.559-1.492 0-2.7-1.145-2.7-2.56 0-1.413 1.208-2.558 2.7-2.558 1.492 0 2.7 1.145 2.7 2.559M74.7 121.109c0 1.414-1.208 2.559-2.7 2.559-1.492 0-2.7-1.145-2.7-2.56 0-1.413 1.208-2.558 2.7-2.558 1.492 0 2.7 1.145 2.7 2.559M89.1 121.109c0 1.414-1.208 2.559-2.7 2.559-1.492 0-2.7-1.145-2.7-2.56 0-1.413 1.208-2.558 2.7-2.558 1.492 0 2.7 1.145 2.7 2.559M102.6 121.109c0 1.414-1.208 2.559-2.7 2.559-1.492 0-2.7-1.145-2.7-2.56 0-1.413 1.208-2.558 2.7-2.558 1.492 0 2.7 1.145 2.7 2.559M5.4 133.902c0 1.414-1.208 2.559-2.7 2.559-1.492 0-2.7-1.145-2.7-2.559 0-1.414 1.208-2.559 2.7-2.559 1.492 0 2.7 1.145 2.7 2.56M19.8 133.902c0 1.414-1.208 2.559-2.7 2.559-1.492 0-2.7-1.145-2.7-2.559 0-1.414 1.208-2.559 2.7-2.559 1.492 0 2.7 1.145 2.7 2.56M33.3 133.902c0 1.414-1.208 2.559-2.7 2.559-1.492 0-2.7-1.145-2.7-2.559 0-1.414 1.208-2.559 2.7-2.559 1.492 0 2.7 1.145 2.7 2.56M46.8 133.902c0 1.414-1.208 2.559-2.7 2.559-1.492 0-2.7-1.145-2.7-2.559 0-1.414 1.208-2.559 2.7-2.559 1.492 0 2.7 1.145 2.7 2.56M61.2 133.902c0 1.414-1.208 2.559-2.7 2.559-1.492 0-2.7-1.145-2.7-2.559 0-1.414 1.208-2.559 2.7-2.559 1.492 0 2.7 1.145 2.7 2.56M74.7 133.902c0 1.414-1.208 2.559-2.7 2.559-1.492 0-2.7-1.145-2.7-2.559 0-1.414 1.208-2.559 2.7-2.559 1.492 0 2.7 1.145 2.7 2.56M89.1 133.902c0 1.414-1.208 2.559-2.7 2.559-1.492 0-2.7-1.145-2.7-2.559 0-1.414 1.208-2.559 2.7-2.559 1.492 0 2.7 1.145 2.7 2.56M102.6 133.902c0 1.414-1.208 2.559-2.7 2.559-1.492 0-2.7-1.145-2.7-2.559 0-1.414 1.208-2.559 2.7-2.559 1.492 0 2.7 1.145 2.7 2.56M5.4 147.548c0 1.414-1.208 2.559-2.7 2.559-1.492 0-2.7-1.145-2.7-2.559 0-1.413 1.208-2.558 2.7-2.558 1.492 0 2.7 1.145 2.7 2.558M19.8 147.548c0 1.414-1.208 2.559-2.7 2.559-1.492 0-2.7-1.145-2.7-2.559 0-1.413 1.208-2.558 2.7-2.558 1.492 0 2.7 1.145 2.7 2.558M33.3 147.548c0 1.414-1.208 2.559-2.7 2.559-1.492 0-2.7-1.145-2.7-2.559 0-1.413 1.208-2.558 2.7-2.558 1.492 0 2.7 1.145 2.7 2.558M46.8 147.548c0 1.414-1.208 2.559-2.7 2.559-1.492 0-2.7-1.145-2.7-2.559 0-1.413 1.208-2.558 2.7-2.558 1.492 0 2.7 1.145 2.7 2.558M61.2 147.548c0 1.414-1.208 2.559-2.7 2.559-1.492 0-2.7-1.145-2.7-2.559 0-1.413 1.208-2.558 2.7-2.558 1.492 0 2.7 1.145 2.7 2.558M74.7 147.548c0 1.414-1.208 2.559-2.7 2.559-1.492 0-2.7-1.145-2.7-2.559 0-1.413 1.208-2.558 2.7-2.558 1.492 0 2.7 1.145 2.7 2.558M89.1 147.548c0 1.414-1.208 2.559-2.7 2.559-1.492 0-2.7-1.145-2.7-2.559 0-1.413 1.208-2.558 2.7-2.558 1.492 0 2.7 1.145 2.7 2.558M102.6 147.548c0 1.414-1.208 2.559-2.7 2.559-1.492 0-2.7-1.145-2.7-2.559 0-1.413 1.208-2.558 2.7-2.558 1.492 0 2.7 1.145 2.7 2.558M5.4 160.341c0 1.414-1.208 2.559-2.7 2.559-1.492 0-2.7-1.145-2.7-2.559 0-1.413 1.208-2.558 2.7-2.558 1.492 0 2.7 1.145 2.7 2.558M19.8 160.341c0 1.414-1.208 2.559-2.7 2.559-1.492 0-2.7-1.145-2.7-2.559 0-1.413 1.208-2.558 2.7-2.558 1.492 0 2.7 1.145 2.7 2.558M33.3 160.341c0 1.414-1.208 2.559-2.7 2.559-1.492 0-2.7-1.145-2.7-2.559 0-1.413 1.208-2.558 2.7-2.558 1.492 0 2.7 1.145 2.7 2.558M46.8 160.341c0 1.414-1.208 2.559-2.7 2.559-1.492 0-2.7-1.145-2.7-2.559 0-1.413 1.208-2.558 2.7-2.558 1.492 0 2.7 1.145 2.7 2.558M61.2 160.341c0 1.414-1.208 2.559-2.7 2.559-1.492 0-2.7-1.145-2.7-2.559 0-1.413 1.208-2.558 2.7-2.558 1.492 0 2.7 1.145 2.7 2.558M74.7 160.341c0 1.414-1.208 2.559-2.7 2.559-1.492 0-2.7-1.145-2.7-2.559 0-1.413 1.208-2.558 2.7-2.558 1.492 0 2.7 1.145 2.7 2.558M89.1 160.341c0 1.414-1.208 2.559-2.7 2.559-1.492 0-2.7-1.145-2.7-2.559 0-1.413 1.208-2.558 2.7-2.558 1.492 0 2.7 1.145 2.7 2.558M102.6 160.341c0 1.414-1.208 2.559-2.7 2.559-1.492 0-2.7-1.145-2.7-2.559 0-1.413 1.208-2.558 2.7-2.558 1.492 0 2.7 1.145 2.7 2.558M19.8 2.559c0 1.413-1.208 2.558-2.7 2.558-1.492 0-2.7-1.145-2.7-2.558C14.4 1.145 15.608 0 17.1 0c1.492 0 2.7 1.145 2.7 2.559M33.3 2.559c0 1.413-1.208 2.558-2.7 2.558-1.492 0-2.7-1.145-2.7-2.558C27.9 1.145 29.108 0 30.6 0c1.492 0 2.7 1.145 2.7 2.559M46.8 2.559c0 1.413-1.208 2.558-2.7 2.558-1.492 0-2.7-1.145-2.7-2.558C41.4 1.145 42.608 0 44.1 0c1.492 0 2.7 1.145 2.7 2.559M61.2 2.559c0 1.413-1.208 2.558-2.7 2.558-1.492 0-2.7-1.145-2.7-2.558C55.8 1.145 57.008 0 58.5 0c1.492 0 2.7 1.145 2.7 2.559M74.7 2.559c0 1.413-1.208 2.558-2.7 2.558-1.492 0-2.7-1.145-2.7-2.558C69.3 1.145 70.508 0 72 0c1.492 0 2.7 1.145 2.7 2.559M89.1 2.559c0 1.413-1.208 2.558-2.7 2.558-1.492 0-2.7-1.145-2.7-2.558C83.7 1.145 84.908 0 86.4 0c1.492 0 2.7 1.145 2.7 2.559M102.6 2.559c0 1.413-1.208 2.558-2.7 2.558-1.492 0-2.7-1.145-2.7-2.558C97.2 1.145 98.408 0 99.9 0c1.492 0 2.7 1.145 2.7 2.559" transform="rotate(90 -74.5 340.5)"/>
        </g>
    </g>
</svg>
