<?xml version="1.0" encoding="UTF-8"?>
<svg width="646px" height="425px" viewBox="0 0 646 425" version="1.1" xmlns="http://www.w3.org/2000/svg" xmlns:xlink="http://www.w3.org/1999/xlink">
    <title>home-video-img</title>
    <defs>
        <circle id="path-1" cx="116.279999" cy="116.279999" r="116.279999"></circle>
        <circle id="path-3" cx="45.749508" cy="45.749508" r="45.749508"></circle>
        <filter x="-15.3%" y="-10.9%" width="130.6%" height="130.6%" filterUnits="objectBoundingBox" id="filter-4">
            <feOffset dx="0" dy="4" in="SourceAlpha" result="shadowOffsetOuter1"></feOffset>
            <feGaussianBlur stdDeviation="4" in="shadowOffsetOuter1" result="shadowBlurOuter1"></feGaussianBlur>
            <feColorMatrix values="0 0 0 0 0   0 0 0 0 0   0 0 0 0 0  0 0 0 0.1 0" type="matrix" in="shadowBlurOuter1"></feColorMatrix>
        </filter>
        <path d="M19.0368475,1.37722714e-16 L118.211676,9.11328091e-15 C124.831203,-5.29507865e-15 127.231603,0.689230159 129.651603,1.98346032 C132.071603,3.27769047 133.970833,5.17692063 135.265064,7.59692061 C136.559294,10.0169206 137.248524,12.4173209 137.248524,19.0368475 L137.248524,118.211676 C137.248524,124.831203 136.559294,127.231603 135.265064,129.651603 C133.970833,132.071603 132.071603,133.970833 129.651603,135.265064 C127.231603,136.559294 124.831203,137.248524 118.211676,137.248524 L19.0368475,137.248524 C12.4173209,137.248524 10.0169206,136.559294 7.59692061,135.265064 C5.17692063,133.970833 3.27769047,132.071603 1.98346032,129.651603 C0.689230159,127.231603 -2.28979492e-16,124.831203 3.94093189e-16,118.211676 L1.41957509e-15,19.0368475 C-8.24814008e-16,12.4173209 0.689230159,10.0169206 1.98346032,7.59692061 C3.27769047,5.17692063 5.17692063,3.27769047 7.59692061,1.98346032 C10.0169206,0.689230159 12.4173209,-8.00208632e-17 19.0368475,1.37722714e-16 Z" id="path-5"></path>
        <filter x="-10.2%" y="-7.3%" width="120.4%" height="120.4%" filterUnits="objectBoundingBox" id="filter-6">
            <feOffset dx="0" dy="4" in="SourceAlpha" result="shadowOffsetOuter1"></feOffset>
            <feGaussianBlur stdDeviation="4" in="shadowOffsetOuter1" result="shadowBlurOuter1"></feGaussianBlur>
            <feColorMatrix values="0 0 0 0 0   0 0 0 0 0   0 0 0 0 0  0 0 0 0.1 0" type="matrix" in="shadowBlurOuter1"></feColorMatrix>
        </filter>
        <rect id="path-7" x="27.4497059" y="0" width="288.793781" height="188.716728" rx="9.26640032"></rect>
        <filter x="-0.2%" y="-0.3%" width="100.3%" height="101.1%" filterUnits="objectBoundingBox" id="filter-8">
            <feOffset dx="0" dy="1" in="SourceAlpha" result="shadowOffsetOuter1"></feOffset>
            <feColorMatrix values="0 0 0 0 0   0 0 0 0 0   0 0 0 0 0  0 0 0 0.2 0" type="matrix" in="shadowOffsetOuter1"></feColorMatrix>
        </filter>
        <filter x="-0.3%" y="-0.5%" width="100.7%" height="101.6%" filterUnits="objectBoundingBox" id="filter-9">
            <feGaussianBlur stdDeviation="0.5" in="SourceAlpha" result="shadowBlurInner1"></feGaussianBlur>
            <feOffset dx="0" dy="1" in="shadowBlurInner1" result="shadowOffsetInner1"></feOffset>
            <feComposite in="shadowOffsetInner1" in2="SourceAlpha" operator="arithmetic" k2="-1" k3="1" result="shadowInnerInner1"></feComposite>
            <feColorMatrix values="0 0 0 0 1   0 0 0 0 1   0 0 0 0 1  0 0 0 1 0" type="matrix" in="shadowInnerInner1"></feColorMatrix>
        </filter>
        <linearGradient x1="0%" y1="50%" x2="100%" y2="50%" id="linearGradient-10">
            <stop stop-color="#BCBDBF" offset="0%"></stop>
            <stop stop-color="#D8D8DF" offset="9.75964605%"></stop>
            <stop stop-color="#D8D8DF" offset="88.8213489%"></stop>
            <stop stop-color="#ADAABD" offset="100%"></stop>
        </linearGradient>
        <linearGradient x1="50%" y1="0%" x2="50%" y2="100%" id="linearGradient-11">
            <stop stop-color="#FFFFFF" offset="0%"></stop>
            <stop stop-color="#CDCBD5" offset="100%"></stop>
        </linearGradient>
        <rect id="path-12" x="0" y="3.17450995e-17" width="260.772206" height="162.41076"></rect>
    </defs>
    <g id="home-video-img" stroke="none" stroke-width="1" fill="none" fill-rule="evenodd">
        <g id="img-header" transform="translate(2.000000, 0.000000)">
            <g id="Combined-Shape-+-Combined-Shape-Mask" transform="translate(0.888227, 0.000000)">
                <mask id="mask-2" fill="white">
                    <use xlink:href="#path-1"></use>
                </mask>
                <g id="Mask" fill-rule="nonzero"></g>
                <path d="M124.406564,38.5468786 C125.459345,38.5468786 126.312793,39.4003267 126.312793,40.4531081 C126.312793,41.5058896 125.459345,42.3593376 124.406564,42.3593376 C123.353782,42.3593376 122.500334,41.5058896 122.500334,40.4531081 C122.500334,39.4003267 123.353782,38.5468786 124.406564,38.5468786 Z M109.156728,38.5468786 C110.209509,38.5468786 111.062957,39.4003267 111.062957,40.4531081 C111.062957,41.5058896 110.209509,42.3593376 109.156728,42.3593376 C108.103946,42.3593376 107.250498,41.5058896 107.250498,40.4531081 C107.250498,39.4003267 108.103946,38.5468786 109.156728,38.5468786 Z M93.9068915,38.5468786 C94.959673,38.5468786 95.813121,39.4003267 95.813121,40.4531081 C95.813121,41.5058896 94.959673,42.3593376 93.9068915,42.3593376 C92.85411,42.3593376 92.000662,41.5058896 92.000662,40.4531081 C92.000662,39.4003267 92.85411,38.5468786 93.9068915,38.5468786 Z M78.6570555,38.5468786 C79.709837,38.5468786 80.563285,39.4003267 80.563285,40.4531081 C80.563285,41.5058896 79.709837,42.3593376 78.6570555,42.3593376 C77.604274,42.3593376 76.750826,41.5058896 76.750826,40.4531081 C76.750826,39.4003267 77.604274,38.5468786 78.6570555,38.5468786 Z M63.4072195,38.5468786 C64.460001,38.5468786 65.313449,39.4003267 65.313449,40.4531081 C65.313449,41.5058896 64.460001,42.3593376 63.4072195,42.3593376 C62.3544381,42.3593376 61.50099,41.5058896 61.50099,40.4531081 C61.50099,39.4003267 62.3544381,38.5468786 63.4072195,38.5468786 Z M48.1573835,38.5468786 C49.210165,38.5468786 50.063613,39.4003267 50.063613,40.4531081 C50.063613,41.5058896 49.210165,42.3593376 48.1573835,42.3593376 C47.1046021,42.3593376 46.251154,41.5058896 46.251154,40.4531081 C46.251154,39.4003267 47.1046021,38.5468786 48.1573835,38.5468786 Z M215.905579,38.5468786 C216.958361,38.5468786 217.811809,39.4003267 217.811809,40.4531081 C217.811809,41.5058896 216.958361,42.3593376 215.905579,42.3593376 C214.852798,42.3593376 213.99935,41.5058896 213.99935,40.4531081 C213.99935,39.4003267 214.852798,38.5468786 215.905579,38.5468786 Z M200.655743,38.5468786 C201.708525,38.5468786 202.561973,39.4003267 202.561973,40.4531081 C202.561973,41.5058896 201.708525,42.3593376 200.655743,42.3593376 C199.602962,42.3593376 198.749514,41.5058896 198.749514,40.4531081 C198.749514,39.4003267 199.602962,38.5468786 200.655743,38.5468786 Z M185.405907,38.5468786 C186.458689,38.5468786 187.312137,39.4003267 187.312137,40.4531081 C187.312137,41.5058896 186.458689,42.3593376 185.405907,42.3593376 C184.353126,42.3593376 183.499678,41.5058896 183.499678,40.4531081 C183.499678,39.4003267 184.353126,38.5468786 185.405907,38.5468786 Z M170.156071,38.5468786 C171.208853,38.5468786 172.062301,39.4003267 172.062301,40.4531081 C172.062301,41.5058896 171.208853,42.3593376 170.156071,42.3593376 C169.10329,42.3593376 168.249842,41.5058896 168.249842,40.4531081 C168.249842,39.4003267 169.10329,38.5468786 170.156071,38.5468786 Z M154.906235,38.5468786 C155.959017,38.5468786 156.812465,39.4003267 156.812465,40.4531081 C156.812465,41.5058896 155.959017,42.3593376 154.906235,42.3593376 C153.853454,42.3593376 153.000006,41.5058896 153.000006,40.4531081 C153.000006,39.4003267 153.853454,38.5468786 154.906235,38.5468786 Z M139.656399,38.5468786 C140.709181,38.5468786 141.562629,39.4003267 141.562629,40.4531081 C141.562629,41.5058896 140.709181,42.3593376 139.656399,42.3593376 C138.603618,42.3593376 137.75017,41.5058896 137.75017,40.4531081 C137.75017,39.4003267 138.603618,38.5468786 139.656399,38.5468786 Z M223.530497,23.2970427 C224.583279,23.2970427 225.436727,24.1504907 225.436727,25.2032722 C225.436727,26.2560536 224.583279,27.1095016 223.530497,27.1095016 C222.477716,27.1095016 221.624268,26.2560536 221.624268,25.2032722 C221.624268,24.1504907 222.477716,23.2970427 223.530497,23.2970427 Z M208.280661,23.2970427 C209.333443,23.2970427 210.186891,24.1504907 210.186891,25.2032722 C210.186891,26.2560536 209.333443,27.1095016 208.280661,27.1095016 C207.22788,27.1095016 206.374432,26.2560536 206.374432,25.2032722 C206.374432,24.1504907 207.22788,23.2970427 208.280661,23.2970427 Z M193.030825,23.2970427 C194.083607,23.2970427 194.937055,24.1504907 194.937055,25.2032722 C194.937055,26.2560536 194.083607,27.1095016 193.030825,27.1095016 C191.978044,27.1095016 191.124596,26.2560536 191.124596,25.2032722 C191.124596,24.1504907 191.978044,23.2970427 193.030825,23.2970427 Z M177.780989,23.2970427 C178.833771,23.2970427 179.687219,24.1504907 179.687219,25.2032722 C179.687219,26.2560536 178.833771,27.1095016 177.780989,27.1095016 C176.728208,27.1095016 175.87476,26.2560536 175.87476,25.2032722 C175.87476,24.1504907 176.728208,23.2970427 177.780989,23.2970427 Z M162.531153,23.2970427 C163.583935,23.2970427 164.437383,24.1504907 164.437383,25.2032722 C164.437383,26.2560536 163.583935,27.1095016 162.531153,27.1095016 C161.478372,27.1095016 160.624924,26.2560536 160.624924,25.2032722 C160.624924,24.1504907 161.478372,23.2970427 162.531153,23.2970427 Z M147.281317,23.2970427 C148.334099,23.2970427 149.187547,24.1504907 149.187547,25.2032722 C149.187547,26.2560536 148.334099,27.1095016 147.281317,27.1095016 C146.228536,27.1095016 145.375088,26.2560536 145.375088,25.2032722 C145.375088,24.1504907 146.228536,23.2970427 147.281317,23.2970427 Z M132.031481,23.2970427 C133.084263,23.2970427 133.937711,24.1504907 133.937711,25.2032722 C133.937711,26.2560536 133.084263,27.1095016 132.031481,27.1095016 C130.9787,27.1095016 130.125252,26.2560536 130.125252,25.2032722 C130.125252,24.1504907 130.9787,23.2970427 132.031481,23.2970427 Z M116.781646,23.2970427 C117.834427,23.2970427 118.687875,24.1504907 118.687875,25.2032722 C118.687875,26.2560536 117.834427,27.1095016 116.781646,27.1095016 C115.728864,27.1095016 114.875416,26.2560536 114.875416,25.2032722 C114.875416,24.1504907 115.728864,23.2970427 116.781646,23.2970427 Z M101.53181,23.2970427 C102.584591,23.2970427 103.438039,24.1504907 103.438039,25.2032722 C103.438039,26.2560536 102.584591,27.1095016 101.53181,27.1095016 C100.479028,27.1095016 99.62558,26.2560536 99.62558,25.2032722 C99.62558,24.1504907 100.479028,23.2970427 101.53181,23.2970427 Z M86.2819735,23.2970427 C87.334755,23.2970427 88.188203,24.1504907 88.188203,25.2032722 C88.188203,26.2560536 87.334755,27.1095016 86.2819735,27.1095016 C85.229192,27.1095016 84.375744,26.2560536 84.375744,25.2032722 C84.375744,24.1504907 85.229192,23.2970427 86.2819735,23.2970427 Z M71.0321375,23.2970427 C72.084919,23.2970427 72.938367,24.1504907 72.938367,25.2032722 C72.938367,26.2560536 72.084919,27.1095016 71.0321375,27.1095016 C69.979356,27.1095016 69.125908,26.2560536 69.125908,25.2032722 C69.125908,24.1504907 69.979356,23.2970427 71.0321375,23.2970427 Z M55.7823015,23.2970427 C56.835083,23.2970427 57.688531,24.1504907 57.688531,25.2032722 C57.688531,26.2560536 56.835083,27.1095016 55.7823015,27.1095016 C54.7295201,27.1095016 53.876072,26.2560536 53.876072,25.2032722 C53.876072,24.1504907 54.7295201,23.2970427 55.7823015,23.2970427 Z M215.905579,8.04720666 C216.958361,8.04720666 217.811809,8.90065468 217.811809,9.95343616 C217.811809,11.0062176 216.958361,11.8596657 215.905579,11.8596657 C214.852798,11.8596657 213.99935,11.0062176 213.99935,9.95343616 C213.99935,8.90065468 214.852798,8.04720666 215.905579,8.04720666 Z M200.655743,8.04720666 C201.708525,8.04720666 202.561973,8.90065468 202.561973,9.95343616 C202.561973,11.0062176 201.708525,11.8596657 200.655743,11.8596657 C199.602962,11.8596657 198.749514,11.0062176 198.749514,9.95343616 C198.749514,8.90065468 199.602962,8.04720666 200.655743,8.04720666 Z M185.405907,8.04720666 C186.458689,8.04720666 187.312137,8.90065468 187.312137,9.95343616 C187.312137,11.0062176 186.458689,11.8596657 185.405907,11.8596657 C184.353126,11.8596657 183.499678,11.0062176 183.499678,9.95343616 C183.499678,8.90065468 184.353126,8.04720666 185.405907,8.04720666 Z M170.156071,8.04720666 C171.208853,8.04720666 172.062301,8.90065468 172.062301,9.95343616 C172.062301,11.0062176 171.208853,11.8596657 170.156071,11.8596657 C169.10329,11.8596657 168.249842,11.0062176 168.249842,9.95343616 C168.249842,8.90065468 169.10329,8.04720666 170.156071,8.04720666 Z M154.906235,8.04720666 C155.959017,8.04720666 156.812465,8.90065468 156.812465,9.95343616 C156.812465,11.0062176 155.959017,11.8596657 154.906235,11.8596657 C153.853454,11.8596657 153.000006,11.0062176 153.000006,9.95343616 C153.000006,8.90065468 153.853454,8.04720666 154.906235,8.04720666 Z M139.656399,8.04720666 C140.709181,8.04720666 141.562629,8.90065468 141.562629,9.95343616 C141.562629,11.0062176 140.709181,11.8596657 139.656399,11.8596657 C138.603618,11.8596657 137.75017,11.0062176 137.75017,9.95343616 C137.75017,8.90065468 138.603618,8.04720666 139.656399,8.04720666 Z M124.406564,8.04720666 C125.459345,8.04720666 126.312793,8.90065468 126.312793,9.95343616 C126.312793,11.0062176 125.459345,11.8596657 124.406564,11.8596657 C123.353782,11.8596657 122.500334,11.0062176 122.500334,9.95343616 C122.500334,8.90065468 123.353782,8.04720666 124.406564,8.04720666 Z M109.156728,8.04720666 C110.209509,8.04720666 111.062957,8.90065468 111.062957,9.95343616 C111.062957,11.0062176 110.209509,11.8596657 109.156728,11.8596657 C108.103946,11.8596657 107.250498,11.0062176 107.250498,9.95343616 C107.250498,8.90065468 108.103946,8.04720666 109.156728,8.04720666 Z M93.9068915,8.04720666 C94.959673,8.04720666 95.813121,8.90065468 95.813121,9.95343616 C95.813121,11.0062176 94.959673,11.8596657 93.9068915,11.8596657 C92.85411,11.8596657 92.000662,11.0062176 92.000662,9.95343616 C92.000662,8.90065468 92.85411,8.04720666 93.9068915,8.04720666 Z M78.6570555,8.04720666 C79.709837,8.04720666 80.563285,8.90065468 80.563285,9.95343616 C80.563285,11.0062176 79.709837,11.8596657 78.6570555,11.8596657 C77.604274,11.8596657 76.750826,11.0062176 76.750826,9.95343616 C76.750826,8.90065468 77.604274,8.04720666 78.6570555,8.04720666 Z M63.4072195,8.04720666 C64.460001,8.04720666 65.313449,8.90065468 65.313449,9.95343616 C65.313449,11.0062176 64.460001,11.8596657 63.4072195,11.8596657 C62.3544381,11.8596657 61.50099,11.0062176 61.50099,9.95343616 C61.50099,8.90065468 62.3544381,8.04720666 63.4072195,8.04720666 Z M48.1573835,8.04720666 C49.210165,8.04720666 50.063613,8.90065468 50.063613,9.95343616 C50.063613,11.0062176 49.210165,11.8596657 48.1573835,11.8596657 C47.1046021,11.8596657 46.251154,11.0062176 46.251154,9.95343616 C46.251154,8.90065468 47.1046021,8.04720666 48.1573835,8.04720666 Z M147.281317,-7.20262933 C148.334099,-7.20262933 149.187547,-6.34918132 149.187547,-5.29639983 C149.187547,-4.24361835 148.334099,-3.39017033 147.281317,-3.39017033 C146.228536,-3.39017033 145.375088,-4.24361835 145.375088,-5.29639983 C145.375088,-6.34918132 146.228536,-7.20262933 147.281317,-7.20262933 Z M223.530497,-7.20262933 C224.583279,-7.20262933 225.436727,-6.34918132 225.436727,-5.29639983 C225.436727,-4.24361835 224.583279,-3.39017033 223.530497,-3.39017033 C222.477716,-3.39017033 221.624268,-4.24361835 221.624268,-5.29639983 C221.624268,-6.34918132 222.477716,-7.20262933 223.530497,-7.20262933 Z M208.280661,-7.20262933 C209.333443,-7.20262933 210.186891,-6.34918132 210.186891,-5.29639983 C210.186891,-4.24361835 209.333443,-3.39017033 208.280661,-3.39017033 C207.22788,-3.39017033 206.374432,-4.24361835 206.374432,-5.29639983 C206.374432,-6.34918132 207.22788,-7.20262933 208.280661,-7.20262933 Z M193.030825,-7.20262933 C194.083607,-7.20262933 194.937055,-6.34918132 194.937055,-5.29639983 C194.937055,-4.24361835 194.083607,-3.39017033 193.030825,-3.39017033 C191.978044,-3.39017033 191.124596,-4.24361835 191.124596,-5.29639983 C191.124596,-6.34918132 191.978044,-7.20262933 193.030825,-7.20262933 Z M177.780989,-7.20262933 C178.833771,-7.20262933 179.687219,-6.34918132 179.687219,-5.29639983 C179.687219,-4.24361835 178.833771,-3.39017033 177.780989,-3.39017033 C176.728208,-3.39017033 175.87476,-4.24361835 175.87476,-5.29639983 C175.87476,-6.34918132 176.728208,-7.20262933 177.780989,-7.20262933 Z M162.531153,-7.20262933 C163.583935,-7.20262933 164.437383,-6.34918132 164.437383,-5.29639983 C164.437383,-4.24361835 163.583935,-3.39017033 162.531153,-3.39017033 C161.478372,-3.39017033 160.624924,-4.24361835 160.624924,-5.29639983 C160.624924,-6.34918132 161.478372,-7.20262933 162.531153,-7.20262933 Z M55.7823015,-7.20262933 C56.835083,-7.20262933 57.688531,-6.34918132 57.688531,-5.29639983 C57.688531,-4.24361835 56.835083,-3.39017033 55.7823015,-3.39017033 C54.7295201,-3.39017033 53.876072,-4.24361835 53.876072,-5.29639983 C53.876072,-6.34918132 54.7295201,-7.20262933 55.7823015,-7.20262933 Z M132.031481,-7.20262933 C133.084263,-7.20262933 133.937711,-6.34918132 133.937711,-5.29639983 C133.937711,-4.24361835 133.084263,-3.39017033 132.031481,-3.39017033 C130.9787,-3.39017033 130.125252,-4.24361835 130.125252,-5.29639983 C130.125252,-6.34918132 130.9787,-7.20262933 132.031481,-7.20262933 Z M116.781646,-7.20262933 C117.834427,-7.20262933 118.687875,-6.34918132 118.687875,-5.29639983 C118.687875,-4.24361835 117.834427,-3.39017033 116.781646,-3.39017033 C115.728864,-3.39017033 114.875416,-4.24361835 114.875416,-5.29639983 C114.875416,-6.34918132 115.728864,-7.20262933 116.781646,-7.20262933 Z M101.53181,-7.20262933 C102.584591,-7.20262933 103.438039,-6.34918132 103.438039,-5.29639983 C103.438039,-4.24361835 102.584591,-3.39017033 101.53181,-3.39017033 C100.479028,-3.39017033 99.62558,-4.24361835 99.62558,-5.29639983 C99.62558,-6.34918132 100.479028,-7.20262933 101.53181,-7.20262933 Z M86.2819735,-7.20262933 C87.334755,-7.20262933 88.188203,-6.34918132 88.188203,-5.29639983 C88.188203,-4.24361835 87.334755,-3.39017033 86.2819735,-3.39017033 C85.229192,-3.39017033 84.375744,-4.24361835 84.375744,-5.29639983 C84.375744,-6.34918132 85.229192,-7.20262933 86.2819735,-7.20262933 Z M71.0321375,-7.20262933 C72.084919,-7.20262933 72.938367,-6.34918132 72.938367,-5.29639983 C72.938367,-4.24361835 72.084919,-3.39017033 71.0321375,-3.39017033 C69.979356,-3.39017033 69.125908,-4.24361835 69.125908,-5.29639983 C69.125908,-6.34918132 69.979356,-7.20262933 71.0321375,-7.20262933 Z" id="Combined-Shape" fill="#50E3C2" fill-rule="nonzero" mask="url(#mask-2)"></path>
                <path d="M124.406564,99.5462226 C125.459345,99.5462226 126.312793,100.399671 126.312793,101.452452 C126.312793,102.505234 125.459345,103.358682 124.406564,103.358682 C123.353782,103.358682 122.500334,102.505234 122.500334,101.452452 C122.500334,100.399671 123.353782,99.5462226 124.406564,99.5462226 Z M109.156728,99.5462226 C110.209509,99.5462226 111.062957,100.399671 111.062957,101.452452 C111.062957,102.505234 110.209509,103.358682 109.156728,103.358682 C108.103946,103.358682 107.250498,102.505234 107.250498,101.452452 C107.250498,100.399671 108.103946,99.5462226 109.156728,99.5462226 Z M93.9068915,99.5462226 C94.959673,99.5462226 95.813121,100.399671 95.813121,101.452452 C95.813121,102.505234 94.959673,103.358682 93.9068915,103.358682 C92.85411,103.358682 92.000662,102.505234 92.000662,101.452452 C92.000662,100.399671 92.85411,99.5462226 93.9068915,99.5462226 Z M78.6570555,99.5462226 C79.709837,99.5462226 80.563285,100.399671 80.563285,101.452452 C80.563285,102.505234 79.709837,103.358682 78.6570555,103.358682 C77.604274,103.358682 76.750826,102.505234 76.750826,101.452452 C76.750826,100.399671 77.604274,99.5462226 78.6570555,99.5462226 Z M63.4072195,99.5462226 C64.460001,99.5462226 65.313449,100.399671 65.313449,101.452452 C65.313449,102.505234 64.460001,103.358682 63.4072195,103.358682 C62.3544381,103.358682 61.50099,102.505234 61.50099,101.452452 C61.50099,100.399671 62.3544381,99.5462226 63.4072195,99.5462226 Z M48.1573835,99.5462226 C49.210165,99.5462226 50.063613,100.399671 50.063613,101.452452 C50.063613,102.505234 49.210165,103.358682 48.1573835,103.358682 C47.1046021,103.358682 46.251154,102.505234 46.251154,101.452452 C46.251154,100.399671 47.1046021,99.5462226 48.1573835,99.5462226 Z M215.905579,99.5462226 C216.958361,99.5462226 217.811809,100.399671 217.811809,101.452452 C217.811809,102.505234 216.958361,103.358682 215.905579,103.358682 C214.852798,103.358682 213.99935,102.505234 213.99935,101.452452 C213.99935,100.399671 214.852798,99.5462226 215.905579,99.5462226 Z M200.655743,99.5462226 C201.708525,99.5462226 202.561973,100.399671 202.561973,101.452452 C202.561973,102.505234 201.708525,103.358682 200.655743,103.358682 C199.602962,103.358682 198.749514,102.505234 198.749514,101.452452 C198.749514,100.399671 199.602962,99.5462226 200.655743,99.5462226 Z M185.405907,99.5462226 C186.458689,99.5462226 187.312137,100.399671 187.312137,101.452452 C187.312137,102.505234 186.458689,103.358682 185.405907,103.358682 C184.353126,103.358682 183.499678,102.505234 183.499678,101.452452 C183.499678,100.399671 184.353126,99.5462226 185.405907,99.5462226 Z M170.156071,99.5462226 C171.208853,99.5462226 172.062301,100.399671 172.062301,101.452452 C172.062301,102.505234 171.208853,103.358682 170.156071,103.358682 C169.10329,103.358682 168.249842,102.505234 168.249842,101.452452 C168.249842,100.399671 169.10329,99.5462226 170.156071,99.5462226 Z M154.906235,99.5462226 C155.959017,99.5462226 156.812465,100.399671 156.812465,101.452452 C156.812465,102.505234 155.959017,103.358682 154.906235,103.358682 C153.853454,103.358682 153.000006,102.505234 153.000006,101.452452 C153.000006,100.399671 153.853454,99.5462226 154.906235,99.5462226 Z M139.656399,99.5462226 C140.709181,99.5462226 141.562629,100.399671 141.562629,101.452452 C141.562629,102.505234 140.709181,103.358682 139.656399,103.358682 C138.603618,103.358682 137.75017,102.505234 137.75017,101.452452 C137.75017,100.399671 138.603618,99.5462226 139.656399,99.5462226 Z M223.530497,84.2963866 C224.583279,84.2963866 225.436727,85.1498346 225.436727,86.2026161 C225.436727,87.2553976 224.583279,88.1088456 223.530497,88.1088456 C222.477716,88.1088456 221.624268,87.2553976 221.624268,86.2026161 C221.624268,85.1498346 222.477716,84.2963866 223.530497,84.2963866 Z M208.280661,84.2963866 C209.333443,84.2963866 210.186891,85.1498346 210.186891,86.2026161 C210.186891,87.2553976 209.333443,88.1088456 208.280661,88.1088456 C207.22788,88.1088456 206.374432,87.2553976 206.374432,86.2026161 C206.374432,85.1498346 207.22788,84.2963866 208.280661,84.2963866 Z M193.030825,84.2963866 C194.083607,84.2963866 194.937055,85.1498346 194.937055,86.2026161 C194.937055,87.2553976 194.083607,88.1088456 193.030825,88.1088456 C191.978044,88.1088456 191.124596,87.2553976 191.124596,86.2026161 C191.124596,85.1498346 191.978044,84.2963866 193.030825,84.2963866 Z M177.780989,84.2963866 C178.833771,84.2963866 179.687219,85.1498346 179.687219,86.2026161 C179.687219,87.2553976 178.833771,88.1088456 177.780989,88.1088456 C176.728208,88.1088456 175.87476,87.2553976 175.87476,86.2026161 C175.87476,85.1498346 176.728208,84.2963866 177.780989,84.2963866 Z M162.531153,84.2963866 C163.583935,84.2963866 164.437383,85.1498346 164.437383,86.2026161 C164.437383,87.2553976 163.583935,88.1088456 162.531153,88.1088456 C161.478372,88.1088456 160.624924,87.2553976 160.624924,86.2026161 C160.624924,85.1498346 161.478372,84.2963866 162.531153,84.2963866 Z M147.281317,84.2963866 C148.334099,84.2963866 149.187547,85.1498346 149.187547,86.2026161 C149.187547,87.2553976 148.334099,88.1088456 147.281317,88.1088456 C146.228536,88.1088456 145.375088,87.2553976 145.375088,86.2026161 C145.375088,85.1498346 146.228536,84.2963866 147.281317,84.2963866 Z M132.031481,84.2963866 C133.084263,84.2963866 133.937711,85.1498346 133.937711,86.2026161 C133.937711,87.2553976 133.084263,88.1088456 132.031481,88.1088456 C130.9787,88.1088456 130.125252,87.2553976 130.125252,86.2026161 C130.125252,85.1498346 130.9787,84.2963866 132.031481,84.2963866 Z M116.781646,84.2963866 C117.834427,84.2963866 118.687875,85.1498346 118.687875,86.2026161 C118.687875,87.2553976 117.834427,88.1088456 116.781646,88.1088456 C115.728864,88.1088456 114.875416,87.2553976 114.875416,86.2026161 C114.875416,85.1498346 115.728864,84.2963866 116.781646,84.2963866 Z M101.53181,84.2963866 C102.584591,84.2963866 103.438039,85.1498346 103.438039,86.2026161 C103.438039,87.2553976 102.584591,88.1088456 101.53181,88.1088456 C100.479028,88.1088456 99.62558,87.2553976 99.62558,86.2026161 C99.62558,85.1498346 100.479028,84.2963866 101.53181,84.2963866 Z M86.2819735,84.2963866 C87.334755,84.2963866 88.188203,85.1498346 88.188203,86.2026161 C88.188203,87.2553976 87.334755,88.1088456 86.2819735,88.1088456 C85.229192,88.1088456 84.375744,87.2553976 84.375744,86.2026161 C84.375744,85.1498346 85.229192,84.2963866 86.2819735,84.2963866 Z M71.0321375,84.2963866 C72.084919,84.2963866 72.938367,85.1498346 72.938367,86.2026161 C72.938367,87.2553976 72.084919,88.1088456 71.0321375,88.1088456 C69.979356,88.1088456 69.125908,87.2553976 69.125908,86.2026161 C69.125908,85.1498346 69.979356,84.2963866 71.0321375,84.2963866 Z M55.7823015,84.2963866 C56.835083,84.2963866 57.688531,85.1498346 57.688531,86.2026161 C57.688531,87.2553976 56.835083,88.1088456 55.7823015,88.1088456 C54.7295201,88.1088456 53.876072,87.2553976 53.876072,86.2026161 C53.876072,85.1498346 54.7295201,84.2963866 55.7823015,84.2963866 Z M215.905579,69.0465506 C216.958361,69.0465506 217.811809,69.8999986 217.811809,70.9527801 C217.811809,72.0055616 216.958361,72.8590096 215.905579,72.8590096 C214.852798,72.8590096 213.99935,72.0055616 213.99935,70.9527801 C213.99935,69.8999986 214.852798,69.0465506 215.905579,69.0465506 Z M200.655743,69.0465506 C201.708525,69.0465506 202.561973,69.8999986 202.561973,70.9527801 C202.561973,72.0055616 201.708525,72.8590096 200.655743,72.8590096 C199.602962,72.8590096 198.749514,72.0055616 198.749514,70.9527801 C198.749514,69.8999986 199.602962,69.0465506 200.655743,69.0465506 Z M185.405907,69.0465506 C186.458689,69.0465506 187.312137,69.8999986 187.312137,70.9527801 C187.312137,72.0055616 186.458689,72.8590096 185.405907,72.8590096 C184.353126,72.8590096 183.499678,72.0055616 183.499678,70.9527801 C183.499678,69.8999986 184.353126,69.0465506 185.405907,69.0465506 Z M170.156071,69.0465506 C171.208853,69.0465506 172.062301,69.8999986 172.062301,70.9527801 C172.062301,72.0055616 171.208853,72.8590096 170.156071,72.8590096 C169.10329,72.8590096 168.249842,72.0055616 168.249842,70.9527801 C168.249842,69.8999986 169.10329,69.0465506 170.156071,69.0465506 Z M154.906235,69.0465506 C155.959017,69.0465506 156.812465,69.8999986 156.812465,70.9527801 C156.812465,72.0055616 155.959017,72.8590096 154.906235,72.8590096 C153.853454,72.8590096 153.000006,72.0055616 153.000006,70.9527801 C153.000006,69.8999986 153.853454,69.0465506 154.906235,69.0465506 Z M139.656399,69.0465506 C140.709181,69.0465506 141.562629,69.8999986 141.562629,70.9527801 C141.562629,72.0055616 140.709181,72.8590096 139.656399,72.8590096 C138.603618,72.8590096 137.75017,72.0055616 137.75017,70.9527801 C137.75017,69.8999986 138.603618,69.0465506 139.656399,69.0465506 Z M124.406564,69.0465506 C125.459345,69.0465506 126.312793,69.8999986 126.312793,70.9527801 C126.312793,72.0055616 125.459345,72.8590096 124.406564,72.8590096 C123.353782,72.8590096 122.500334,72.0055616 122.500334,70.9527801 C122.500334,69.8999986 123.353782,69.0465506 124.406564,69.0465506 Z M109.156728,69.0465506 C110.209509,69.0465506 111.062957,69.8999986 111.062957,70.9527801 C111.062957,72.0055616 110.209509,72.8590096 109.156728,72.8590096 C108.103946,72.8590096 107.250498,72.0055616 107.250498,70.9527801 C107.250498,69.8999986 108.103946,69.0465506 109.156728,69.0465506 Z M93.9068915,69.0465506 C94.959673,69.0465506 95.813121,69.8999986 95.813121,70.9527801 C95.813121,72.0055616 94.959673,72.8590096 93.9068915,72.8590096 C92.85411,72.8590096 92.000662,72.0055616 92.000662,70.9527801 C92.000662,69.8999986 92.85411,69.0465506 93.9068915,69.0465506 Z M78.6570555,69.0465506 C79.709837,69.0465506 80.563285,69.8999986 80.563285,70.9527801 C80.563285,72.0055616 79.709837,72.8590096 78.6570555,72.8590096 C77.604274,72.8590096 76.750826,72.0055616 76.750826,70.9527801 C76.750826,69.8999986 77.604274,69.0465506 78.6570555,69.0465506 Z M63.4072195,69.0465506 C64.460001,69.0465506 65.313449,69.8999986 65.313449,70.9527801 C65.313449,72.0055616 64.460001,72.8590096 63.4072195,72.8590096 C62.3544381,72.8590096 61.50099,72.0055616 61.50099,70.9527801 C61.50099,69.8999986 62.3544381,69.0465506 63.4072195,69.0465506 Z M48.1573835,69.0465506 C49.210165,69.0465506 50.063613,69.8999986 50.063613,70.9527801 C50.063613,72.0055616 49.210165,72.8590096 48.1573835,72.8590096 C47.1046021,72.8590096 46.251154,72.0055616 46.251154,70.9527801 C46.251154,69.8999986 47.1046021,69.0465506 48.1573835,69.0465506 Z M147.281317,53.7967146 C148.334099,53.7967146 149.187547,54.6501627 149.187547,55.7029441 C149.187547,56.7557256 148.334099,57.6091736 147.281317,57.6091736 C146.228536,57.6091736 145.375088,56.7557256 145.375088,55.7029441 C145.375088,54.6501627 146.228536,53.7967146 147.281317,53.7967146 Z M223.530497,53.7967146 C224.583279,53.7967146 225.436727,54.6501627 225.436727,55.7029441 C225.436727,56.7557256 224.583279,57.6091736 223.530497,57.6091736 C222.477716,57.6091736 221.624268,56.7557256 221.624268,55.7029441 C221.624268,54.6501627 222.477716,53.7967146 223.530497,53.7967146 Z M208.280661,53.7967146 C209.333443,53.7967146 210.186891,54.6501627 210.186891,55.7029441 C210.186891,56.7557256 209.333443,57.6091736 208.280661,57.6091736 C207.22788,57.6091736 206.374432,56.7557256 206.374432,55.7029441 C206.374432,54.6501627 207.22788,53.7967146 208.280661,53.7967146 Z M193.030825,53.7967146 C194.083607,53.7967146 194.937055,54.6501627 194.937055,55.7029441 C194.937055,56.7557256 194.083607,57.6091736 193.030825,57.6091736 C191.978044,57.6091736 191.124596,56.7557256 191.124596,55.7029441 C191.124596,54.6501627 191.978044,53.7967146 193.030825,53.7967146 Z M177.780989,53.7967146 C178.833771,53.7967146 179.687219,54.6501627 179.687219,55.7029441 C179.687219,56.7557256 178.833771,57.6091736 177.780989,57.6091736 C176.728208,57.6091736 175.87476,56.7557256 175.87476,55.7029441 C175.87476,54.6501627 176.728208,53.7967146 177.780989,53.7967146 Z M162.531153,53.7967146 C163.583935,53.7967146 164.437383,54.6501627 164.437383,55.7029441 C164.437383,56.7557256 163.583935,57.6091736 162.531153,57.6091736 C161.478372,57.6091736 160.624924,56.7557256 160.624924,55.7029441 C160.624924,54.6501627 161.478372,53.7967146 162.531153,53.7967146 Z M55.7823015,53.7967146 C56.835083,53.7967146 57.688531,54.6501627 57.688531,55.7029441 C57.688531,56.7557256 56.835083,57.6091736 55.7823015,57.6091736 C54.7295201,57.6091736 53.876072,56.7557256 53.876072,55.7029441 C53.876072,54.6501627 54.7295201,53.7967146 55.7823015,53.7967146 Z M132.031481,53.7967146 C133.084263,53.7967146 133.937711,54.6501627 133.937711,55.7029441 C133.937711,56.7557256 133.084263,57.6091736 132.031481,57.6091736 C130.9787,57.6091736 130.125252,56.7557256 130.125252,55.7029441 C130.125252,54.6501627 130.9787,53.7967146 132.031481,53.7967146 Z M116.781646,53.7967146 C117.834427,53.7967146 118.687875,54.6501627 118.687875,55.7029441 C118.687875,56.7557256 117.834427,57.6091736 116.781646,57.6091736 C115.728864,57.6091736 114.875416,56.7557256 114.875416,55.7029441 C114.875416,54.6501627 115.728864,53.7967146 116.781646,53.7967146 Z M101.53181,53.7967146 C102.584591,53.7967146 103.438039,54.6501627 103.438039,55.7029441 C103.438039,56.7557256 102.584591,57.6091736 101.53181,57.6091736 C100.479028,57.6091736 99.62558,56.7557256 99.62558,55.7029441 C99.62558,54.6501627 100.479028,53.7967146 101.53181,53.7967146 Z M86.2819735,53.7967146 C87.334755,53.7967146 88.188203,54.6501627 88.188203,55.7029441 C88.188203,56.7557256 87.334755,57.6091736 86.2819735,57.6091736 C85.229192,57.6091736 84.375744,56.7557256 84.375744,55.7029441 C84.375744,54.6501627 85.229192,53.7967146 86.2819735,53.7967146 Z M71.0321375,53.7967146 C72.084919,53.7967146 72.938367,54.6501627 72.938367,55.7029441 C72.938367,56.7557256 72.084919,57.6091736 71.0321375,57.6091736 C69.979356,57.6091736 69.125908,56.7557256 69.125908,55.7029441 C69.125908,54.6501627 69.979356,53.7967146 71.0321375,53.7967146 Z" id="Combined-Shape" fill="#50E3C2" fill-rule="nonzero" mask="url(#mask-2)"></path>
            </g>
            <path d="M168.932115,39.0253353 L575.118555,39.0253353 C588.357608,39.0253353 593.158409,40.4037956 597.998409,42.992256 C602.838409,45.5807163 606.636869,49.3791766 609.22533,54.2191766 C611.81379,59.0591766 613.19225,63.8599773 613.19225,77.0990305 L613.19225,427.010432 L613.19225,427.010432 L130.85842,427.010432 L130.85842,77.0990305 C130.85842,63.8599773 132.236881,59.0591766 134.825341,54.2191766 C137.413801,49.3791766 141.212262,45.5807163 146.052262,42.992256 C150.892262,40.4037956 155.693062,39.0253353 168.932115,39.0253353 Z" id="bg-video" fill="#50E3C2" fill-rule="nonzero"></path>
            <g id="play" transform="translate(175.144560, 19.254844)" fill-rule="nonzero">
                <g id="Oval">
                    <use fill="black" fill-opacity="1" filter="url(#filter-4)" xlink:href="#path-3"></use>
                    <use fill="#FFFFFF" xlink:href="#path-3"></use>
                </g>
                <polygon id="Triangle" fill="#1980FF" transform="translate(49.085410, 45.749508) rotate(90.000000) translate(-49.085410, -45.749508) " points="49.0854096 33.8355736 63.3821308 57.6634423 34.7886884 57.6634423"></polygon>
            </g>
            <g id="icon" transform="translate(506.327869, 96.274218)">
                <g id="Rectangle" fill-rule="nonzero">
                    <use fill="black" fill-opacity="1" filter="url(#filter-6)" xlink:href="#path-5"></use>
                    <use fill="#FFFFFF" xlink:href="#path-5"></use>
                </g>
                <g id="Group-9-Copy-3" transform="translate(33.695976, 21.180328)" fill="#50E3C2">
                    <path d="M50.8954883,72.0963454 C48.6372955,81.1876279 41.4427402,86.252103 30.6083863,86.5282667 C21.6900947,86.755138 13.8223991,83.6674133 6.48915991,79.0351944 C5.56874354,78.4544292 4.80794451,77.8755598 5.95077848,76.9010876 C6.79073202,76.1857162 7.12174174,74.5495887 8.99789963,75.8021205 C13.3095303,78.6819324 18.0247834,80.860908 23.193376,81.865714 C29.649374,83.1201416 35.9889298,82.9634172 41.6906705,79.2456349 C46.3117232,76.2312169 47.7378125,71.6356513 45.588866,67.28086 C41.2903188,76.7879679 34.1350137,80.1657592 23.2862681,77.668911 C19.2506969,76.7412033 15.5036145,75.0677906 12.0594125,72.8104528 C11.3587971,72.3510226 9.8457032,72.0931856 11.07685,70.852029 C11.8873659,70.0349132 12.1922089,68.1131427 14.2796635,69.4440367 C18.208605,71.9478363 22.4855647,73.7192019 27.2112846,74.3233494 C31.167047,74.8289122 34.8310499,74.0440259 37.9717173,71.6862076 C42.17541,68.5283361 42.2669937,64.0395706 38.1928266,60.7331901 C36.4592776,59.3264617 34.4588275,58.208536 32.5120194,57.0665961 C24.4186353,52.3168338 16.2336676,47.6921984 9.8136489,40.771676 C4.5044099,35.0480734 2.75189003,28.4934521 4.84326966,21.0262899 C6.45448894,33.3809802 14.7042195,41.0996598 24.6122695,47.6580729 C32.4956651,52.8767446 41.2870479,56.7386122 48.6614998,62.7206837 C59.7339713,71.7020064 58.2162983,84.8061935 45.3075732,91.1017139 C43.3836609,92.0407968 41.3419982,92.8636002 39.2571602,93.3641073 C25.1925177,96.7437944 12.6573234,93.0165329 0.961428335,85.5007103 C-0.0819718859,84.8295758 -0.365227244,84.2911514 0.557805805,83.2996164 C1.50308061,82.2840672 2.04473289,81.2356564 3.85024048,82.4648059 C9.49964758,86.3108747 15.7443488,89.0333302 22.5961193,90.1000677 C30.1596261,91.2786609 37.5949157,90.7933206 44.4493029,87.0793301 C50.816988,83.6282322 53.2145189,78.1896407 50.8954883,72.0963454" id="Fill-1"></path>
                    <path d="M22.2241944,20.6960864 C26.9530926,9.97726202 35.449569,6.27681551 48.3082677,9.33176769 C50.9013273,9.94753956 53.4500775,10.7532767 55.7721437,12.1075872 C56.4714607,12.5146557 58.043479,12.7440355 57.042987,14.0389011 C56.3558711,14.9286365 55.9834158,16.8922574 53.9451862,15.7382505 C50.6451037,13.8696123 46.9924729,13.1259046 43.2775522,12.5980078 C39.2319169,12.0235889 35.3667298,12.6600373 31.7770311,14.5105836 C26.9582299,16.9949937 25.2397982,22.2287316 27.6825913,27.4999456 C28.4968557,22.3928513 30.7078275,18.7033892 35.5857078,17.4343693 C41.4184865,15.9178776 46.9488058,16.9672097 52.2762011,19.6163857 C51.1729628,22.248762 49.7113967,23.141082 47.0143065,21.9198765 C44.577935,20.8169147 41.8480944,20.5565201 39.158068,20.7884845 C36.258696,21.0385409 33.6701316,22.0335972 32.4924022,24.9793516 C31.3435702,27.8546767 32.143707,30.4263158 34.144691,32.7071917 C36.4417129,35.3247068 39.2890695,37.183653 42.233393,38.9605393 C49.7467158,43.4957993 57.3094852,47.9800142 63.2379463,54.6643374 C68.5415816,60.6450137 71.97395,67.154879 68.9686209,75.4597225 C68.7567066,76.0451258 68.6353376,76.6725282 67.8037348,77.0963964 C67.8262105,63.7891332 59.8164947,55.6148101 49.9445024,48.8154738 C43.7899994,44.5761462 37.2835903,40.8582538 31.0051496,36.7953225 C27.2234438,34.3470963 23.6485149,31.6055222 20.9764691,27.8688918 C14.770593,19.1899329 17.107429,8.48532366 26.528622,3.48225795 C36.6947256,-1.9155996 46.9744923,-0.368739299 57.1688512,3.58628656 C58.4531799,4.08510701 59.7176014,4.71250941 60.8612961,5.47624746 C61.5779515,5.95503755 63.3516094,6.1553411 62.2104834,7.69057087 C61.4219056,8.75217968 60.8946887,10.248641 58.7472911,9.05328114 C50.5275876,4.47666814 41.7504854,2.67135165 32.5360694,5.32311217 C27.1521636,6.87191089 22.949198,10.0192612 21.7322966,16.0096295 C21.4105722,17.5952582 21.2211337,19.1899329 22.2241944,20.6960864" id="Fill-3"></path>
                    <path d="M22.0779794,3.53642185 C12.4444872,10.6867335 11.9098137,23.7568323 20.8855825,33.2711783 C25.3603499,38.0136425 30.8170177,41.4385817 36.3717506,44.7258224 C42.3605934,48.270309 48.3994057,51.7565867 53.6405801,56.3995324 C58.6575164,60.8446929 62.5482654,65.9263964 63.0367171,73.0103624 C63.4864425,79.5266347 60.2996386,84.0068458 55.2933208,87.6095413 C57.2371338,84.4136825 58.9048653,81.1546075 59.2284177,77.332846 C59.9117505,69.2424285 56.074094,63.4021311 50.1533346,58.5388676 C44.3450066,53.7682377 37.730296,50.2525426 31.3541897,46.3625578 C25.2035707,42.6108974 19.33403,38.5156164 15.0891222,32.5094548 C9.18023062,24.1467697 8.92476163,14.2418605 14.7255942,7.76001282 C16.6219362,5.64195831 18.5894847,3.13083695 22.0679855,3.55081761 L22.0779794,3.53642185 Z" id="Fill-5"></path>
                    <path d="M21.0752572,3.72947576 C21.0390087,3.57962378 21.0033961,3.42913952 20.9671476,3.27928755 C21.0065758,3.42344894 21.04664,3.56824262 21.0854323,3.71366859 C21.0854323,3.71493316 21.0752572,3.72947576 21.0752572,3.72947576" id="Fill-7"></path>
                </g>
            </g>
            <g id="macbook-air" transform="translate(7.000000, 175.219076)">
                <g id="case">
                    <g id="screen">
                        <use fill="black" fill-opacity="1" filter="url(#filter-8)" xlink:href="#path-7"></use>
                        <use fill="#FFFFFF" fill-rule="evenodd" xlink:href="#path-7"></use>
                        <use fill="black" fill-opacity="1" filter="url(#filter-9)" xlink:href="#path-7"></use>
                    </g>
                    <rect id="front" fill="#FFFFFF" x="0" y="187.001121" width="343.121323" height="2.28747549"></rect>
                    <path d="M141.251611,187.001121 L202.441581,187.001121 L202.441581,187.858925 C202.441581,188.332676 202.050834,188.716728 201.57658,188.716728 L142.116612,188.716728 C141.638885,188.716728 141.251611,188.335979 141.251611,187.858925 L141.251611,187.001121 Z" id="notch" fill-opacity="0.5" fill="url(#linearGradient-10)"></path>
                    <path d="M54.8994118,193.291679 C8.24870937,193.291679 0,189.288597 0,189.288597 L0,189.288597 L172.132531,188.716728 L343.121323,189.288597 C343.121323,189.288597 334.894582,193.291679 288.221912,193.291679 Z" id="bottom" fill="url(#linearGradient-11)"></path>
                </g>
                <g id="screen" transform="translate(41.174559, 12.581115)">
                    <mask id="mask-13" fill="white">
                        <use xlink:href="#path-12"></use>
                    </mask>
                    <use id="Mask" fill="#C1E4F4" xlink:href="#path-12"></use>
                    <circle id="Oval" fill="#ADD5E8" fill-rule="nonzero" mask="url(#mask-13)" cx="49.7525919" cy="49.7525919" r="10.8655086"></circle>
                    <path d="M42.3182966,70.9117402 L106.36761,70.9117402 C108.262617,70.9117402 109.798824,72.4479467 109.798824,74.3429534 C109.798824,76.2379602 108.262617,77.7741667 106.36761,77.7741667 L42.3182966,77.7741667 C40.4232898,77.7741667 38.8870833,76.2379602 38.8870833,74.3429534 C38.8870833,72.4479467 40.4232898,70.9117402 42.3182966,70.9117402 Z" id="Rectangle" fill="#E2F6FF" fill-rule="nonzero" mask="url(#mask-13)"></path>
                    <path d="M42.3182966,83.4928554 L115.517512,83.4928554 C117.412519,83.4928554 118.948725,85.0290619 118.948725,86.9240686 C118.948725,88.8190754 117.412519,90.3552818 115.517512,90.3552818 L42.3182966,90.3552818 C40.4232898,90.3552818 38.8870833,88.8190754 38.8870833,86.9240686 C38.8870833,85.0290619 40.4232898,83.4928554 42.3182966,83.4928554 Z" id="Rectangle" fill="#E2F6FF" fill-rule="nonzero" mask="url(#mask-13)"></path>
                    <path d="M46.8932475,102.936397 L78.9179044,102.936397 C83.3395868,102.936397 86.9240686,106.520879 86.9240686,110.942561 C86.9240686,115.364244 83.3395868,118.948725 78.9179044,118.948725 L46.8932475,118.948725 C42.4715651,118.948725 38.8870833,115.364244 38.8870833,110.942561 C38.8870833,106.520879 42.4715651,102.936397 46.8932475,102.936397 Z" id="Rectangle" fill="#44AFE0" fill-rule="nonzero" mask="url(#mask-13)"></path>
                    <path d="M167.731916,37.7433456 L213.132753,37.7433456 C217.36925,37.7433456 218.905506,38.1844529 220.454306,39.0127602 C222.003106,39.8410676 223.218614,41.0565749 224.046921,42.605375 C224.875228,44.154175 225.316336,45.6904313 225.316336,49.9269285 L225.316336,113.627569 C225.316336,117.864066 224.875228,119.400322 224.046921,120.949123 C223.218614,122.497923 222.003106,123.71343 220.454306,124.541737 C218.905506,125.370045 217.36925,125.811152 213.132753,125.811152 L167.731916,125.811152 C163.495419,125.811152 161.959163,125.370045 160.410363,124.541737 C158.861563,123.71343 157.646055,122.497923 156.817748,120.949123 C155.989441,119.400322 155.548333,117.864066 155.548333,113.627569 L155.548333,49.9269285 C155.548333,45.6904313 155.989441,44.154175 156.817748,42.605375 C157.646055,41.0565749 158.861563,39.8410676 160.410363,39.0127602 C161.959163,38.1844529 163.495419,37.7433456 167.731916,37.7433456 Z" id="Rectangle" fill="#ADD5E8" fill-rule="nonzero" mask="url(#mask-13)"></path>
                </g>
            </g>
        </g>
    </g>
</svg>