<svg xmlns="http://www.w3.org/2000/svg" width="289" height="311" viewBox="0 0 289 311">
    <defs>
        <linearGradient id="prefix__a" x1="49.772%" x2="50.29%" y1="51.153%" y2="48.898%">
            <stop offset="0%" stop-color="#FFF" stop-opacity="0"/>
            <stop offset="100%" stop-color="#B6CCC6"/>
        </linearGradient>
        <linearGradient id="prefix__b" x1="62.409%" x2="49.089%" y1="60.271%" y2="47.727%">
            <stop offset="0%" stop-color="#FFF" stop-opacity="0"/>
            <stop offset="100%" stop-color="#B6CCC6"/>
        </linearGradient>
        <linearGradient id="prefix__c" x1="0%" x2="100.001%" y1="50%" y2="50%">
            <stop offset="0%" stop-color="#F7C9AA"/>
            <stop offset="100%" stop-color="#FF717A"/>
        </linearGradient>
        <linearGradient id="prefix__d" x1="0%" x2="100%" y1="50%" y2="50%">
            <stop offset="0%" stop-color="#F7C9AA"/>
            <stop offset="100%" stop-color="#FF717A"/>
        </linearGradient>
        <linearGradient id="prefix__e" x1="58.802%" x2="35.973%" y1="30.32%" y2="81.363%">
            <stop offset="0%" stop-color="#71A896"/>
            <stop offset="100%" stop-color="#3E8383"/>
        </linearGradient>
        <linearGradient id="prefix__f" x1="50%" x2="50%" y1="-33.698%" y2="9.722%">
            <stop offset="0%" stop-color="#71A896"/>
            <stop offset="100%" stop-color="#3E8383"/>
        </linearGradient>
    </defs>
    <g fill="none" fill-rule="evenodd">
        <g fill="#B6CCC6" fill-rule="nonzero" transform="translate(5)">
            <path d="M93.921 17.659L93.921 118.751 0.236 118.751 0.236 0 76.327 0z" opacity=".5"/>
            <path d="M93.921 17.659L78.029 22.277 76.327 0z"/>
            <circle cx="37.75" cy="43.305" r="21.028" opacity=".5"/>
            <path d="M12.998 78.555H85.12400000000001V103.352H12.998z" opacity=".5"/>
        </g>
        <g transform="translate(95 69.3)">
            <path fill="url(#prefix__a)" fill-rule="nonzero" d="M68.657 146.328L75.341 155.108 22.448 155.108 22.448 160.979 152.702 160.979 159.375 156.302 106.327 155.02 97.571 146.328z"/>
            <path fill="#F6F6F6" fill-rule="nonzero" d="M97.572 143.931H68.658l3.076-3.836c2.338-2.914 3.607-6.533 3.607-10.263V102.96h15.542v26.872c0 3.73 1.275 7.349 3.607 10.263l3.082 3.836z"/>
            <path fill="#B6CCC6" fill-rule="nonzero" d="M68.657 143.933H97.571V146.328H68.657z"/>
            <path fill="#B6CCC6" fill-rule="nonzero" d="M90.883 105.974L90.883 126.902 75.341 121.158 75.341 105.974z" opacity=".5"/>
            <path fill="#231F20" fill-rule="nonzero" d="M160.409 113.423H5.819c-3.16 0-5.722-2.562-5.722-5.723V5.795C.097 2.635 2.659.072 5.82.072h154.589c3.16 0 5.723 2.562 5.723 5.723V107.7c0 3.16-2.563 5.723-5.723 5.723z"/>
            <path fill="#F6F6F6" fill-rule="nonzero" d="M166.132 92.501H.097V107.7c0 3.16 2.562 5.723 5.723 5.723h154.589c3.16 0 5.723-2.562 5.723-5.723V92.501z"/>
            <path fill="#E0F4FE" fill-rule="nonzero" d="M3.97 3.868H162.259V88.943H3.97z"/>
            <g>
                <g fill="#50E3C2">
                    <path d="M7.401 10.484c-.328 1.322-1.374 2.059-2.95 2.099-1.297.033-2.441-.416-3.507-1.09-.134-.084-.245-.168-.079-.31.122-.104.17-.342.443-.16.627.419 1.313.736 2.065.882.939.182 1.86.16 2.69-.381.672-.439.879-1.107.566-1.74-.625 1.382-1.665 1.874-3.243 1.51-.587-.134-1.131-.378-1.632-.706-.102-.067-.322-.104-.143-.285.118-.119.162-.398.466-.205.57.365 1.193.622 1.88.71.575.073 1.108-.04 1.565-.384.611-.459.624-1.111.032-1.592-.252-.205-.543-.367-.826-.533-1.177-.691-2.367-1.364-3.3-2.37C.654 5.097.4 4.143.703 3.058.94 4.854 2.138 5.977 3.58 6.93c1.146.76 2.425 1.32 3.497 2.19 1.61 1.307 1.39 3.212-.487 4.128-.28.136-.577.256-.88.329-2.046.491-3.868-.05-5.57-1.144-.15-.097-.192-.176-.058-.32.138-.147.216-.3.479-.121.821.56 1.73.955 2.726 1.11 1.1.172 2.181.101 3.178-.44.926-.501 1.274-1.292.937-2.178M3.232 3.01C3.919 1.45 5.155.913 7.025 1.357c.377.09.748.207 1.085.404.102.059.33.092.185.28-.1.13-.154.415-.45.248-.48-.272-1.011-.38-1.552-.457-.588-.084-1.15.009-1.672.278-.7.361-.95 1.122-.595 1.889.118-.743.44-1.28 1.149-1.464.848-.22 1.652-.068 2.427.318-.16.382-.373.512-.765.335-.355-.16-.752-.199-1.143-.165-.421.036-.798.181-.969.61-.167.418-.05.792.24 1.123.334.38.748.651 1.176.91 1.093.66 2.193 1.311 3.055 2.283.771.87 1.27 1.817.833 3.024-.03.085-.048.177-.17.238C9.864 9.276 8.7 8.087 7.264 7.1c-.895-.617-1.841-1.157-2.754-1.748-.55-.356-1.07-.755-1.459-1.298-.902-1.262-.562-2.82.808-3.547 1.478-.785 2.973-.56 4.455.016.187.072.371.163.537.274.105.07.362.1.197.322-.115.155-.192.372-.504.199C7.348.65 6.07.388 4.73.774c-.783.225-1.394.683-1.57 1.554-.048.23-.075.463.07.682" transform="translate(19.8 9.7)"/>
                    <path d="M3.21.514c-1.4 1.04-1.478 2.94-.173 4.324.65.69 1.444 1.188 2.252 1.666.871.515 1.75 1.022 2.511 1.698.73.646 1.296 1.385 1.367 2.415.065.948-.398 1.6-1.126 2.123.282-.465.525-.939.572-1.494.1-1.177-.459-2.026-1.32-2.733-.844-.694-1.806-1.205-2.734-1.771-.894-.546-1.747-1.141-2.365-2.015-.859-1.216-.896-2.656-.053-3.599C2.417.82 2.703.455 3.21.516l.002-.002z" transform="translate(19.8 9.7)"/>
                    <path d="M3.07.55L3.051.477l.019.069-.002.002" transform="translate(19.8 9.7)"/>
                </g>
                <text fill="#000" font-family="Avenir-Heavy, Avenir" font-size="11.245" font-weight="600" transform="translate(19.8 9.7)">
                    <tspan x="11.76" y="14.92">piral</tspan>
                </text>
            </g>
            <g fill-rule="nonzero" transform="translate(21 34)">
                <circle cx="5.5" cy="5.5" r="5.5" fill="#ADD5E8"/>
                <path fill="#1980FF" d="M1.964 17h32.072c.43 0 .774.082 1.061.236.288.153.514.379.667.667.154.287.236.632.236 1.06v.073c0 .43-.082.774-.236 1.061-.153.288-.379.514-.667.667-.287.154-.632.236-1.06.236H1.963c-.43 0-.774-.082-1.061-.236-.288-.153-.514-.379-.667-.667C.082 19.81 0 19.465 0 19.037v-.073c0-.43.082-.774.236-1.061.153-.288.379-.514.667-.667.287-.154.632-.236 1.06-.236zM1.964 23h37.072c.43 0 .774.082 1.061.236.288.153.514.379.667.667.154.287.236.632.236 1.06v.073c0 .43-.082.774-.236 1.061-.153.288-.379.514-.667.667-.287.154-.632.236-1.06.236H1.963c-.43 0-.774-.082-1.061-.236-.288-.153-.514-.379-.667-.667C.082 25.81 0 25.465 0 25.037v-.073c0-.43.082-.774.236-1.061.153-.288.379-.514.667-.667.287-.154.632-.236 1.06-.236z"/>
                <path fill="#44AFE0" d="M4 33h17c2.21 0 4 1.79 4 4s-1.79 4-4 4H4c-2.21 0-4-1.79-4-4s1.79-4 4-4z"/>
                <path fill="#ADD5E8" d="M66.03 0h50.94c2.096 0 2.857.218 3.623.628.767.41 1.369 1.012 1.779 1.779.41.766.628 1.527.628 3.624v32.938c0 2.097-.218 2.858-.628 3.624-.41.767-1.012 1.369-1.779 1.779-.766.41-1.527.628-3.624.628H66.031c-2.097 0-2.858-.218-3.624-.628-.767-.41-1.369-1.012-1.779-1.779-.41-.766-.628-1.527-.628-3.624V6.031c0-2.097.218-2.858.628-3.624.41-.767 1.012-1.369 1.779-1.779C63.173.218 63.934 0 66.03 0z"/>
            </g>
            <circle cx="83.114" cy="102.962" r="4.257" fill="#FFF" fill-rule="nonzero"/>
        </g>
        <g fill-rule="nonzero" transform="translate(.625 145)">
            <path fill="url(#prefix__b)" d="M205.832 111.223s13.802 3.689 7.714 14.862c-6.089 11.172-18.47 19.66-40.323 17.445-21.855-2.214-30.155-11.935-30.155-11.935l62.764-20.372z"/>
            <circle cx="125.085" cy="45.944" r="11.111" fill="url(#prefix__c)"/>
            <path fill="#F6F6F6" d="M122.68 86.627c0-1.201 7.508-12.612 22.222-13.813 14.714-1.202 53.23 18.584 60.397 33.315 7.167 14.73-52.59 12.628-52.59 12.628l-30.029-32.13zM68.451 107.472L.003 119.777S5.69 97.991 22.962 87.851c5.852-3.442 13.03-5.542 21.767-5.01 13.992.855 20.542 5.06 23.377 9.762 4.17 6.902.345 14.869.345 14.869z"/>
            <circle cx="90.574" cy="49.844" r="36.935" fill="url(#prefix__d)"/>
            <path fill="#B6CCC6" d="M68.106 92.603c-.532 10.098-10.504 10.76-34.467 9.83-13.36-.522-13.421-7.918-10.677-14.582 5.852-3.442 13.03-5.542 21.768-5.01 13.991.855 20.54 5.06 23.376 9.762zM116.196 86.705s5.694-13.093 15.827-12.502c10.133.59 24.233 1.319 36.388 15.905 12.156 14.587-52.215-3.403-52.215-3.403z" opacity=".5"/>
            <path fill="#1D1D1B" d="M133.493 29.128c-1.458 2.605-4.977 2.117-8.017 1.052-3.75-9.108-9.654-18.217-19.538-22.547.08-4.426-4.575-7.633-4.575-7.633.471 2.075.172 4.119-.46 5.948-5.536-1.327-12.113-1.303-19.96.658-32.43 8.108-25.916 24.023-25.916 24.023s-3.104 3.962-4.737 10.111c-2.075.175-4.401.175-5.402-.524 0 0 .593 3.355 4.712 3.9-.505 3.502-.419 7.496.87 11.747-1.339.405-3.203 1.904-3.267 7.109 0 0 2.5-2.201 4.826-3.102.466.978.998 1.965 1.61 2.958 10.488 17.048 73.87-5.774 73.87-5.774s6.284.6 1.48-16.516c-.552-1.964-1.184-4.032-1.917-6.14 5.547-.346 6.421-5.27 6.421-5.27z"/>
            <path fill="#F6F6F6" d="M205.832 111.223c-.464 5.162-3.748 10.224-9.91 13.842-1.453.855-2.967 1.72-4.546 2.598-8.052 4.473-17.728 9.179-28.711 13.283l-.004.004c-2.204 9.156-7.684 21.542-21.208 22.001-11.796.403-47.75 3.315-75.887-.598-22.327-3.1-39.733-10.5-36.262-26.86-3.862-1.94-7.74-4.07-11.634-6.4-2.867-1.717-5.745-3.545-8.623-5.484-3.403-2.296-5.844-5.032-7.324-7.964-2.587-5.108-2.253-10.799.947-15.723.23-.357.479-.71.74-1.058 1.701-2.265 4.039-4.339 7.005-6.078 15.169-8.91 41.523-17.974 86.177-18.388 47.816-.44 79.229 9.987 98.038 19.71 3.35 1.732 5.96 3.882 7.814 6.27 2.59 3.33 3.729 7.112 3.388 10.845z"/>
            <path fill="#B6CCC6" d="M205.832 111.223c-.464 5.162-3.748 10.224-9.91 13.842-1.453.855-2.967 1.72-4.546 2.598-8.052 4.473-17.728 9.179-28.711 13.283.107-.257 3.334-19.449 0-29.723 0 0 7.258 2.219 15.907 3.667-.314 5.477-1.494 11.957-5.211 13.41.716-.253 11.3-4.174 13.033-12.41 8.355.69 16.418-.057 19.438-4.667zM65.566 162.354c-22.327-3.1-39.733-10.501-36.262-26.86-3.862-1.94-7.74-4.07-11.634-6.4-2.867-1.718-5.745-3.546-8.623-5.485-3.403-2.295-5.844-5.032-7.324-7.963-2.587-5.109-2.253-10.8.947-15.724.23-.357.479-.71.74-1.058 3.974 7.35 12.244 10.454 26.431 10.489 22.975.057.418 34.276 14.976 36.464 11.658 1.751 18.89 11.336 20.749 16.537z" opacity=".5"/>
            <path fill="url(#prefix__e)" d="M157.988 133.119c0 17.738-12.013 32.12-26.828 32.12H66.3c-7.406 0-14.118-3.594-18.97-9.41l-.087-.104c-4.805-5.808-7.772-13.79-7.772-22.606 0-17.738 12.012-32.12 26.829-32.12h64.86c3.426 0 6.7.767 9.714 2.173 3.501 1.63 6.648 4.11 9.255 7.236 4.857 5.816 7.859 13.838 7.859 22.71z"/>
        </g>
        <path fill="#B6CCC6" fill-rule="nonzero" d="M239.073 63.503H186.71c0-28.92 23.444-52.364 52.364-52.364v52.364zM247.394 1.659H288.63V42.894999999999996H247.394z" opacity=".5"/>
        <path fill="url(#prefix__f)" fill-rule="nonzero" d="M158.613 278.118c0 17.739-12.013 32.12-26.829 32.12h-64.86c-7.405 0-14.117-3.594-18.969-9.409l-.087-.104c5.154-.697 11.215-1.059 18.324-1.017 53.725.32 70.257-32.865 75.306-51.536 3.502 1.63 6.65 4.109 9.255 7.236 4.858 5.815 7.86 13.838 7.86 22.71z"/>
    </g>
</svg>
