<svg version="1.1" class="bg__mobile" xmlns="http://www.w3.org/2000/svg" xmlns:xlink="http://www.w3.org/1999/xlink" x="0px" y="0px"
	 viewBox="0 0 351 451" style="enable-background:new 0 0 351 451;" xml:space="preserve">
<g>
	<defs>
		<rect id="SVGID_1_" width="351" height="451"/>
	</defs>
	<clipPath id="SVGID_2_">
		<use xlink:href="#SVGID_1_"  style="overflow:visible;"/>
	</clipPath>
	<path class="st0" d="M333.4,811c-150.6-2.3-128.3-23.2-182.5-62.9c-54.2-39.8-44-76-44.5-154.5C105.9,515.1-27.5,487.8,5.2,409.8
		s160.4-71,218.2-129.2c57.8-58.1-127.6-74.6,40.1-171.9c81.5-47.3-0.8-89.3,70-105.4c74.8-17.1,302.2-6.7,368.1,0
		c128.3,13.1-44.3,123.9,0,240.2S653,265.1,587.5,463.1C521.9,661,776.8,873.4,654.3,952.7C531.8,1031.9,484,813.4,333.4,811
		L333.4,811z"/>
</g>
</svg>
