<svg xmlns="http://www.w3.org/2000/svg" xmlns:xlink="http://www.w3.org/1999/xlink" width="882" height="780" viewBox="0 0 882 780">
    <defs>
        <filter id="prefix__c" width="129.5%" height="129.5%" x="-14.7%" y="-10.5%" filterUnits="objectBoundingBox">
            <feOffset dy="4" in="SourceAlpha" result="shadowOffsetOuter1"/>
            <feGaussianBlur in="shadowOffsetOuter1" result="shadowBlurOuter1" stdDeviation="4"/>
            <feColorMatrix in="shadowBlurOuter1" values="0 0 0 0 0 0 0 0 0 0 0 0 0 0 0 0 0 0 0.1 0"/>
        </filter>
        <filter id="prefix__e" width="119.6%" height="119.6%" x="-9.8%" y="-7%" filterUnits="objectBoundingBox">
            <feOffset dy="4" in="SourceAlpha" result="shadowOffsetOuter1"/>
            <feGaussianBlur in="shadowOffsetOuter1" result="shadowBlurOuter1" stdDeviation="4"/>
            <feColorMatrix in="shadowBlurOuter1" values="0 0 0 0 0 0 0 0 0 0 0 0 0 0 0 0 0 0 0.1 0"/>
        </filter>
        <filter id="prefix__g" width="253.8%" height="246.8%" x="-76.9%" y="-73.4%" filterUnits="objectBoundingBox">
            <feOffset dx="24" dy="48" in="SourceAlpha" result="shadowOffsetOuter1"/>
            <feGaussianBlur in="shadowOffsetOuter1" result="shadowBlurOuter1" stdDeviation="47.5"/>
            <feColorMatrix in="shadowBlurOuter1" result="shadowMatrixOuter1" values="0 0 0 0 0 0 0 0 0 0.192908654 0 0 0 0 0.28125 0 0 0 0.301488904 0"/>
            <feMerge>
                <feMergeNode in="shadowMatrixOuter1"/>
                <feMergeNode in="SourceGraphic"/>
            </feMerge>
        </filter>
        <filter id="prefix__h" width="107.2%" height="201.7%" x="-3.6%" y="-50.8%" filterUnits="objectBoundingBox">
            <feGaussianBlur in="SourceGraphic" stdDeviation="3.564"/>
        </filter>
        <filter id="prefix__i" width="112.6%" height="340%" x="-6.3%" y="-120%" filterUnits="objectBoundingBox">
            <feGaussianBlur in="SourceGraphic" stdDeviation="5.94"/>
        </filter>
        <filter id="prefix__j" width="100.3%" height="101%" x="-.2%" y="-.3%" filterUnits="objectBoundingBox">
            <feOffset dy="1" in="SourceAlpha" result="shadowOffsetOuter1"/>
            <feColorMatrix in="shadowOffsetOuter1" values="0 0 0 0 0 0 0 0 0 0 0 0 0 0 0 0 0 0 0.2 0"/>
        </filter>
        <filter id="prefix__l" width="100.7%" height="101.5%" x="-.3%" y="-.5%" filterUnits="objectBoundingBox">
            <feGaussianBlur in="SourceAlpha" result="shadowBlurInner1" stdDeviation=".5"/>
            <feOffset dy="1" in="shadowBlurInner1" result="shadowOffsetInner1"/>
            <feComposite in="shadowOffsetInner1" in2="SourceAlpha" k2="-1" k3="1" operator="arithmetic" result="shadowInnerInner1"/>
            <feColorMatrix in="shadowInnerInner1" values="0 0 0 0 1 0 0 0 0 1 0 0 0 0 1 0 0 0 1 0"/>
        </filter>
        <linearGradient id="prefix__m" x1="0%" x2="100%" y1="50%" y2="50%">
            <stop offset="0%" stop-color="#BCBDBF"/>
            <stop offset="9.76%" stop-color="#D8D8DF"/>
            <stop offset="88.821%" stop-color="#D8D8DF"/>
            <stop offset="100%" stop-color="#ADAABD"/>
        </linearGradient>
        <linearGradient id="prefix__n" x1="50%" x2="50%" y1="0%" y2="100%">
            <stop offset="0%" stop-color="#FFF"/>
            <stop offset="100%" stop-color="#CDCBD5"/>
        </linearGradient>
        <circle id="prefix__a" cx="120.78" cy="120.78" r="120.78"/>
        <circle id="prefix__d" cx="47.52" cy="47.52" r="47.52"/>
        <path id="prefix__f" d="M19.037 0h104.486c6.62 0 9.02.69 11.44 1.983 2.42 1.295 4.32 3.194 5.614 5.614 1.294 2.42 1.983 4.82 1.983 11.44v104.486c0 6.62-.69 9.02-1.983 11.44-1.295 2.42-3.194 4.32-5.614 5.614-2.42 1.294-4.82 1.983-11.44 1.983H19.037c-6.62 0-9.02-.69-11.44-1.983-2.42-1.295-4.32-3.194-5.614-5.614C.69 132.543 0 130.143 0 123.523V19.037c0-6.62.69-9.02 1.983-11.44 1.295-2.42 3.194-4.32 5.614-5.614C10.017.69 12.417 0 19.037 0z"/>
        <path id="prefix__o" d="M0 0H270.864V168.696H0z"/>
        <rect id="prefix__k" width="299.97" height="196.02" x="28.512" y="0" rx="9.266"/>
    </defs>
    <g fill="none" fill-rule="evenodd">
        <g transform="translate(203 21) translate(3)">
            <mask id="prefix__b" fill="#fff">
                <use xlink:href="#prefix__a"/>
            </mask>
            <path fill="#50E3C2" fill-rule="nonzero" d="M129.221 40.039c1.094 0 1.98.886 1.98 1.98 0 1.093-.886 1.98-1.98 1.98-1.093 0-1.98-.887-1.98-1.98 0-1.094.887-1.98 1.98-1.98zm-15.84 0c1.094 0 1.98.886 1.98 1.98 0 1.093-.886 1.98-1.98 1.98-1.093 0-1.98-.887-1.98-1.98 0-1.094.887-1.98 1.98-1.98zm-15.84 0c1.094 0 1.98.886 1.98 1.98 0 1.093-.886 1.98-1.98 1.98-1.093 0-1.98-.887-1.98-1.98 0-1.094.887-1.98 1.98-1.98zm-15.84 0c1.094 0 1.98.886 1.98 1.98 0 1.093-.886 1.98-1.98 1.98-1.093 0-1.98-.887-1.98-1.98 0-1.094.887-1.98 1.98-1.98zm-15.84 0c1.094 0 1.98.886 1.98 1.98 0 1.093-.886 1.98-1.98 1.98-1.093 0-1.98-.887-1.98-1.98 0-1.094.887-1.98 1.98-1.98zm-15.84 0c1.094 0 1.98.886 1.98 1.98 0 1.093-.886 1.98-1.98 1.98-1.093 0-1.98-.887-1.98-1.98 0-1.094.887-1.98 1.98-1.98zm174.24 0c1.094 0 1.98.886 1.98 1.98 0 1.093-.886 1.98-1.98 1.98-1.093 0-1.98-.887-1.98-1.98 0-1.094.887-1.98 1.98-1.98zm-15.84 0c1.094 0 1.98.886 1.98 1.98 0 1.093-.886 1.98-1.98 1.98-1.093 0-1.98-.887-1.98-1.98 0-1.094.887-1.98 1.98-1.98zm-15.84 0c1.094 0 1.98.886 1.98 1.98 0 1.093-.886 1.98-1.98 1.98-1.093 0-1.98-.887-1.98-1.98 0-1.094.887-1.98 1.98-1.98zm-15.84 0c1.094 0 1.98.886 1.98 1.98 0 1.093-.886 1.98-1.98 1.98-1.093 0-1.98-.887-1.98-1.98 0-1.094.887-1.98 1.98-1.98zm-15.84 0c1.094 0 1.98.886 1.98 1.98 0 1.093-.886 1.98-1.98 1.98-1.093 0-1.98-.887-1.98-1.98 0-1.094.887-1.98 1.98-1.98zm-15.84 0c1.094 0 1.98.886 1.98 1.98 0 1.093-.886 1.98-1.98 1.98-1.093 0-1.98-.887-1.98-1.98 0-1.094.887-1.98 1.98-1.98zm87.12-15.84c1.094 0 1.98.886 1.98 1.98 0 1.093-.886 1.98-1.98 1.98-1.093 0-1.98-.887-1.98-1.98 0-1.094.887-1.98 1.98-1.98zm-15.84 0c1.094 0 1.98.886 1.98 1.98 0 1.093-.886 1.98-1.98 1.98-1.093 0-1.98-.887-1.98-1.98 0-1.094.887-1.98 1.98-1.98zm-15.84 0c1.094 0 1.98.886 1.98 1.98 0 1.093-.886 1.98-1.98 1.98-1.093 0-1.98-.887-1.98-1.98 0-1.094.887-1.98 1.98-1.98zm-15.84 0c1.094 0 1.98.886 1.98 1.98 0 1.093-.886 1.98-1.98 1.98-1.093 0-1.98-.887-1.98-1.98 0-1.094.887-1.98 1.98-1.98zm-15.84 0c1.094 0 1.98.886 1.98 1.98 0 1.093-.886 1.98-1.98 1.98-1.093 0-1.98-.887-1.98-1.98 0-1.094.887-1.98 1.98-1.98zm-15.84 0c1.094 0 1.98.886 1.98 1.98 0 1.093-.886 1.98-1.98 1.98-1.093 0-1.98-.887-1.98-1.98 0-1.094.887-1.98 1.98-1.98zm-15.84 0c1.094 0 1.98.886 1.98 1.98 0 1.093-.886 1.98-1.98 1.98-1.093 0-1.98-.887-1.98-1.98 0-1.094.887-1.98 1.98-1.98zm-15.84 0c1.094 0 1.98.886 1.98 1.98 0 1.093-.886 1.98-1.98 1.98-1.093 0-1.98-.887-1.98-1.98 0-1.094.887-1.98 1.98-1.98zm-15.84 0c1.094 0 1.98.886 1.98 1.98 0 1.093-.886 1.98-1.98 1.98-1.093 0-1.98-.887-1.98-1.98 0-1.094.887-1.98 1.98-1.98zm-15.84 0c1.094 0 1.98.886 1.98 1.98 0 1.093-.886 1.98-1.98 1.98-1.093 0-1.98-.887-1.98-1.98 0-1.094.887-1.98 1.98-1.98zm-15.84 0c1.094 0 1.98.886 1.98 1.98 0 1.093-.886 1.98-1.98 1.98-1.093 0-1.98-.887-1.98-1.98 0-1.094.887-1.98 1.98-1.98zm-15.84 0c1.094 0 1.98.886 1.98 1.98 0 1.093-.886 1.98-1.98 1.98-1.093 0-1.98-.887-1.98-1.98 0-1.094.887-1.98 1.98-1.98zm166.32-15.84c1.094 0 1.98.886 1.98 1.98 0 1.093-.886 1.98-1.98 1.98-1.093 0-1.98-.887-1.98-1.98 0-1.094.887-1.98 1.98-1.98zm-15.84 0c1.094 0 1.98.886 1.98 1.98 0 1.093-.886 1.98-1.98 1.98-1.093 0-1.98-.887-1.98-1.98 0-1.094.887-1.98 1.98-1.98zm-15.84 0c1.094 0 1.98.886 1.98 1.98 0 1.093-.886 1.98-1.98 1.98-1.093 0-1.98-.887-1.98-1.98 0-1.094.887-1.98 1.98-1.98zm-15.84 0c1.094 0 1.98.886 1.98 1.98 0 1.093-.886 1.98-1.98 1.98-1.093 0-1.98-.887-1.98-1.98 0-1.094.887-1.98 1.98-1.98zm-15.84 0c1.094 0 1.98.886 1.98 1.98 0 1.093-.886 1.98-1.98 1.98-1.093 0-1.98-.887-1.98-1.98 0-1.094.887-1.98 1.98-1.98zm-15.84 0c1.094 0 1.98.886 1.98 1.98 0 1.093-.886 1.98-1.98 1.98-1.093 0-1.98-.887-1.98-1.98 0-1.094.887-1.98 1.98-1.98zm-15.84 0c1.094 0 1.98.886 1.98 1.98 0 1.093-.886 1.98-1.98 1.98-1.093 0-1.98-.887-1.98-1.98 0-1.094.887-1.98 1.98-1.98zm-15.84 0c1.094 0 1.98.886 1.98 1.98 0 1.093-.886 1.98-1.98 1.98-1.093 0-1.98-.887-1.98-1.98 0-1.094.887-1.98 1.98-1.98zm-15.84 0c1.094 0 1.98.886 1.98 1.98 0 1.093-.886 1.98-1.98 1.98-1.093 0-1.98-.887-1.98-1.98 0-1.094.887-1.98 1.98-1.98zm-15.84 0c1.094 0 1.98.886 1.98 1.98 0 1.093-.886 1.98-1.98 1.98-1.093 0-1.98-.887-1.98-1.98 0-1.094.887-1.98 1.98-1.98zm-15.84 0c1.094 0 1.98.886 1.98 1.98 0 1.093-.886 1.98-1.98 1.98-1.093 0-1.98-.887-1.98-1.98 0-1.094.887-1.98 1.98-1.98zm-15.84 0c1.094 0 1.98.886 1.98 1.98 0 1.093-.886 1.98-1.98 1.98-1.093 0-1.98-.887-1.98-1.98 0-1.094.887-1.98 1.98-1.98zm102.96-15.84c1.094 0 1.98.886 1.98 1.98 0 1.093-.886 1.98-1.98 1.98-1.093 0-1.98-.887-1.98-1.98 0-1.094.887-1.98 1.98-1.98zm79.2 0c1.094 0 1.98.886 1.98 1.98 0 1.093-.886 1.98-1.98 1.98-1.093 0-1.98-.887-1.98-1.98 0-1.094.887-1.98 1.98-1.98zm-15.84 0c1.094 0 1.98.886 1.98 1.98 0 1.093-.886 1.98-1.98 1.98-1.093 0-1.98-.887-1.98-1.98 0-1.094.887-1.98 1.98-1.98zm-15.84 0c1.094 0 1.98.886 1.98 1.98 0 1.093-.886 1.98-1.98 1.98-1.093 0-1.98-.887-1.98-1.98 0-1.094.887-1.98 1.98-1.98zm-15.84 0c1.094 0 1.98.886 1.98 1.98 0 1.093-.886 1.98-1.98 1.98-1.093 0-1.98-.887-1.98-1.98 0-1.094.887-1.98 1.98-1.98zm-15.84 0c1.094 0 1.98.886 1.98 1.98 0 1.093-.886 1.98-1.98 1.98-1.093 0-1.98-.887-1.98-1.98 0-1.094.887-1.98 1.98-1.98zm-110.88 0c1.094 0 1.98.886 1.98 1.98 0 1.093-.886 1.98-1.98 1.98-1.093 0-1.98-.887-1.98-1.98 0-1.094.887-1.98 1.98-1.98zm79.2 0c1.094 0 1.98.886 1.98 1.98 0 1.093-.886 1.98-1.98 1.98-1.093 0-1.98-.887-1.98-1.98 0-1.094.887-1.98 1.98-1.98zm-15.84 0c1.094 0 1.98.886 1.98 1.98 0 1.093-.886 1.98-1.98 1.98-1.093 0-1.98-.887-1.98-1.98 0-1.094.887-1.98 1.98-1.98zm-15.84 0c1.094 0 1.98.886 1.98 1.98 0 1.093-.886 1.98-1.98 1.98-1.093 0-1.98-.887-1.98-1.98 0-1.094.887-1.98 1.98-1.98zm-15.84 0c1.094 0 1.98.886 1.98 1.98 0 1.093-.886 1.98-1.98 1.98-1.093 0-1.98-.887-1.98-1.98 0-1.094.887-1.98 1.98-1.98zm-15.84 0c1.094 0 1.98.886 1.98 1.98 0 1.093-.886 1.98-1.98 1.98-1.093 0-1.98-.887-1.98-1.98 0-1.094.887-1.98 1.98-1.98zM129.221 103.399c1.094 0 1.98.886 1.98 1.98 0 1.093-.886 1.98-1.98 1.98-1.093 0-1.98-.887-1.98-1.98 0-1.094.887-1.98 1.98-1.98zm-15.84 0c1.094 0 1.98.886 1.98 1.98 0 1.093-.886 1.98-1.98 1.98-1.093 0-1.98-.887-1.98-1.98 0-1.094.887-1.98 1.98-1.98zm-15.84 0c1.094 0 1.98.886 1.98 1.98 0 1.093-.886 1.98-1.98 1.98-1.093 0-1.98-.887-1.98-1.98 0-1.094.887-1.98 1.98-1.98zm-15.84 0c1.094 0 1.98.886 1.98 1.98 0 1.093-.886 1.98-1.98 1.98-1.093 0-1.98-.887-1.98-1.98 0-1.094.887-1.98 1.98-1.98zm-15.84 0c1.094 0 1.98.886 1.98 1.98 0 1.093-.886 1.98-1.98 1.98-1.093 0-1.98-.887-1.98-1.98 0-1.094.887-1.98 1.98-1.98zm-15.84 0c1.094 0 1.98.886 1.98 1.98 0 1.093-.886 1.98-1.98 1.98-1.093 0-1.98-.887-1.98-1.98 0-1.094.887-1.98 1.98-1.98zm174.24 0c1.094 0 1.98.886 1.98 1.98 0 1.093-.886 1.98-1.98 1.98-1.093 0-1.98-.887-1.98-1.98 0-1.094.887-1.98 1.98-1.98zm-15.84 0c1.094 0 1.98.886 1.98 1.98 0 1.093-.886 1.98-1.98 1.98-1.093 0-1.98-.887-1.98-1.98 0-1.094.887-1.98 1.98-1.98zm-15.84 0c1.094 0 1.98.886 1.98 1.98 0 1.093-.886 1.98-1.98 1.98-1.093 0-1.98-.887-1.98-1.98 0-1.094.887-1.98 1.98-1.98zm-15.84 0c1.094 0 1.98.886 1.98 1.98 0 1.093-.886 1.98-1.98 1.98-1.093 0-1.98-.887-1.98-1.98 0-1.094.887-1.98 1.98-1.98zm-15.84 0c1.094 0 1.98.886 1.98 1.98 0 1.093-.886 1.98-1.98 1.98-1.093 0-1.98-.887-1.98-1.98 0-1.094.887-1.98 1.98-1.98zm-15.84 0c1.094 0 1.98.886 1.98 1.98 0 1.093-.886 1.98-1.98 1.98-1.093 0-1.98-.887-1.98-1.98 0-1.094.887-1.98 1.98-1.98zm87.12-15.84c1.094 0 1.98.886 1.98 1.98 0 1.093-.886 1.98-1.98 1.98-1.093 0-1.98-.887-1.98-1.98 0-1.094.887-1.98 1.98-1.98zm-15.84 0c1.094 0 1.98.886 1.98 1.98 0 1.093-.886 1.98-1.98 1.98-1.093 0-1.98-.887-1.98-1.98 0-1.094.887-1.98 1.98-1.98zm-15.84 0c1.094 0 1.98.886 1.98 1.98 0 1.093-.886 1.98-1.98 1.98-1.093 0-1.98-.887-1.98-1.98 0-1.094.887-1.98 1.98-1.98zm-15.84 0c1.094 0 1.98.886 1.98 1.98 0 1.093-.886 1.98-1.98 1.98-1.093 0-1.98-.887-1.98-1.98 0-1.094.887-1.98 1.98-1.98zm-15.84 0c1.094 0 1.98.886 1.98 1.98 0 1.093-.886 1.98-1.98 1.98-1.093 0-1.98-.887-1.98-1.98 0-1.094.887-1.98 1.98-1.98zm-15.84 0c1.094 0 1.98.886 1.98 1.98 0 1.093-.886 1.98-1.98 1.98-1.093 0-1.98-.887-1.98-1.98 0-1.094.887-1.98 1.98-1.98zm-15.84 0c1.094 0 1.98.886 1.98 1.98 0 1.093-.886 1.98-1.98 1.98-1.093 0-1.98-.887-1.98-1.98 0-1.094.887-1.98 1.98-1.98zm-15.84 0c1.094 0 1.98.886 1.98 1.98 0 1.093-.886 1.98-1.98 1.98-1.093 0-1.98-.887-1.98-1.98 0-1.094.887-1.98 1.98-1.98zm-15.84 0c1.094 0 1.98.886 1.98 1.98 0 1.093-.886 1.98-1.98 1.98-1.093 0-1.98-.887-1.98-1.98 0-1.094.887-1.98 1.98-1.98zm-15.84 0c1.094 0 1.98.886 1.98 1.98 0 1.093-.886 1.98-1.98 1.98-1.093 0-1.98-.887-1.98-1.98 0-1.094.887-1.98 1.98-1.98zm-15.84 0c1.094 0 1.98.886 1.98 1.98 0 1.093-.886 1.98-1.98 1.98-1.093 0-1.98-.887-1.98-1.98 0-1.094.887-1.98 1.98-1.98zm-15.84 0c1.094 0 1.98.886 1.98 1.98 0 1.093-.886 1.98-1.98 1.98-1.093 0-1.98-.887-1.98-1.98 0-1.094.887-1.98 1.98-1.98zm166.32-15.84c1.094 0 1.98.886 1.98 1.98 0 1.093-.886 1.98-1.98 1.98-1.093 0-1.98-.887-1.98-1.98 0-1.094.887-1.98 1.98-1.98zm-15.84 0c1.094 0 1.98.886 1.98 1.98 0 1.093-.886 1.98-1.98 1.98-1.093 0-1.98-.887-1.98-1.98 0-1.094.887-1.98 1.98-1.98zm-15.84 0c1.094 0 1.98.886 1.98 1.98 0 1.093-.886 1.98-1.98 1.98-1.093 0-1.98-.887-1.98-1.98 0-1.094.887-1.98 1.98-1.98zm-15.84 0c1.094 0 1.98.886 1.98 1.98 0 1.093-.886 1.98-1.98 1.98-1.093 0-1.98-.887-1.98-1.98 0-1.094.887-1.98 1.98-1.98zm-15.84 0c1.094 0 1.98.886 1.98 1.98 0 1.093-.886 1.98-1.98 1.98-1.093 0-1.98-.887-1.98-1.98 0-1.094.887-1.98 1.98-1.98zm-15.84 0c1.094 0 1.98.886 1.98 1.98 0 1.093-.886 1.98-1.98 1.98-1.093 0-1.98-.887-1.98-1.98 0-1.094.887-1.98 1.98-1.98zm-15.84 0c1.094 0 1.98.886 1.98 1.98 0 1.093-.886 1.98-1.98 1.98-1.093 0-1.98-.887-1.98-1.98 0-1.094.887-1.98 1.98-1.98zm-15.84 0c1.094 0 1.98.886 1.98 1.98 0 1.093-.886 1.98-1.98 1.98-1.093 0-1.98-.887-1.98-1.98 0-1.094.887-1.98 1.98-1.98zm-15.84 0c1.094 0 1.98.886 1.98 1.98 0 1.093-.886 1.98-1.98 1.98-1.093 0-1.98-.887-1.98-1.98 0-1.094.887-1.98 1.98-1.98zm-15.84 0c1.094 0 1.98.886 1.98 1.98 0 1.093-.886 1.98-1.98 1.98-1.093 0-1.98-.887-1.98-1.98 0-1.094.887-1.98 1.98-1.98zm-15.84 0c1.094 0 1.98.886 1.98 1.98 0 1.093-.886 1.98-1.98 1.98-1.093 0-1.98-.887-1.98-1.98 0-1.094.887-1.98 1.98-1.98zm-15.84 0c1.094 0 1.98.886 1.98 1.98 0 1.093-.886 1.98-1.98 1.98-1.093 0-1.98-.887-1.98-1.98 0-1.094.887-1.98 1.98-1.98zm102.96-15.84c1.094 0 1.98.886 1.98 1.98 0 1.093-.886 1.98-1.98 1.98-1.093 0-1.98-.887-1.98-1.98 0-1.094.887-1.98 1.98-1.98zm79.2 0c1.094 0 1.98.886 1.98 1.98 0 1.093-.886 1.98-1.98 1.98-1.093 0-1.98-.887-1.98-1.98 0-1.094.887-1.98 1.98-1.98zm-15.84 0c1.094 0 1.98.886 1.98 1.98 0 1.093-.886 1.98-1.98 1.98-1.093 0-1.98-.887-1.98-1.98 0-1.094.887-1.98 1.98-1.98zm-15.84 0c1.094 0 1.98.886 1.98 1.98 0 1.093-.886 1.98-1.98 1.98-1.093 0-1.98-.887-1.98-1.98 0-1.094.887-1.98 1.98-1.98zm-15.84 0c1.094 0 1.98.886 1.98 1.98 0 1.093-.886 1.98-1.98 1.98-1.093 0-1.98-.887-1.98-1.98 0-1.094.887-1.98 1.98-1.98zm-15.84 0c1.094 0 1.98.886 1.98 1.98 0 1.093-.886 1.98-1.98 1.98-1.093 0-1.98-.887-1.98-1.98 0-1.094.887-1.98 1.98-1.98zm-110.88 0c1.094 0 1.98.886 1.98 1.98 0 1.093-.886 1.98-1.98 1.98-1.093 0-1.98-.887-1.98-1.98 0-1.094.887-1.98 1.98-1.98zm79.2 0c1.094 0 1.98.886 1.98 1.98 0 1.093-.886 1.98-1.98 1.98-1.093 0-1.98-.887-1.98-1.98 0-1.094.887-1.98 1.98-1.98zm-15.84 0c1.094 0 1.98.886 1.98 1.98 0 1.093-.886 1.98-1.98 1.98-1.093 0-1.98-.887-1.98-1.98 0-1.094.887-1.98 1.98-1.98zm-15.84 0c1.094 0 1.98.886 1.98 1.98 0 1.093-.886 1.98-1.98 1.98-1.093 0-1.98-.887-1.98-1.98 0-1.094.887-1.98 1.98-1.98zm-15.84 0c1.094 0 1.98.886 1.98 1.98 0 1.093-.886 1.98-1.98 1.98-1.093 0-1.98-.887-1.98-1.98 0-1.094.887-1.98 1.98-1.98zm-15.84 0c1.094 0 1.98.886 1.98 1.98 0 1.093-.886 1.98-1.98 1.98-1.093 0-1.98-.887-1.98-1.98 0-1.094.887-1.98 1.98-1.98z" mask="url(#prefix__b)"/>
        </g>
        <path fill="#50E3C2" fill-rule="nonzero" d="M176.074 53h424.852c13.24 0 18.04 1.378 22.88 3.967 4.84 2.588 8.639 6.387 11.227 11.227 2.589 4.84 3.967 9.64 3.967 22.88v414.852c0 13.24-1.378 18.04-3.967 22.88-2.588 4.84-6.387 8.639-11.227 11.227-4.84 2.589-9.64 3.967-22.88 3.967H176.074c-13.24 0-18.04-1.378-22.88-3.967-4.84-2.588-8.639-6.387-11.227-11.227-2.589-4.84-3.967-9.64-3.967-22.88V91.074c0-13.24 1.378-18.04 3.967-22.88 2.588-4.84 6.387-8.639 11.227-11.227 4.84-2.589 9.64-3.967 22.88-3.967z" transform="translate(203 21)"/>
        <g fill-rule="nonzero" transform="translate(203 21) translate(184 20)">
            <use fill="#000" filter="url(#prefix__c)" xlink:href="#prefix__d"/>
            <use fill="#FFF" xlink:href="#prefix__d"/>
            <path fill="#1980FF" d="M50.985 35.145L65.835 59.895 36.135 59.895z" transform="rotate(90 50.985 47.52)"/>
        </g>
        <g>
            <g fill-rule="nonzero" transform="translate(203 21) translate(528 100)">
                <use fill="#000" filter="url(#prefix__e)" xlink:href="#prefix__f"/>
                <use fill="#FFF" xlink:href="#prefix__f"/>
            </g>
            <g fill="#50E3C2">
                <path d="M52.865 74.886c-2.345 9.444-9.818 14.704-21.072 14.99-9.264.237-17.436-2.97-25.053-7.782-.956-.603-1.746-1.205-.559-2.217.873-.743 1.216-2.442 3.165-1.141 4.479 2.99 9.376 5.254 14.745 6.298 6.706 1.303 13.29 1.14 19.213-2.722 4.8-3.13 6.281-7.904 4.05-12.427-4.466 9.875-11.898 13.383-23.167 10.79-4.191-.964-8.083-2.702-11.66-5.047-.729-.477-2.3-.745-1.021-2.034.841-.849 1.158-2.845 3.326-1.463 4.081 2.601 8.524 4.441 13.432 5.069 4.11.525 7.915-.29 11.177-2.74 4.367-3.28 4.462-7.942.23-11.376-1.8-1.462-3.879-2.623-5.9-3.809-8.407-4.934-16.91-9.737-23.578-16.925-5.514-5.946-7.335-12.754-5.162-20.51 1.673 12.833 10.242 20.85 20.534 27.662 8.188 5.421 17.32 9.432 24.98 15.646 11.5 9.329 9.924 22.94-3.484 29.48-1.998.975-4.12 1.83-6.285 2.35-14.609 3.51-27.629-.362-39.777-8.168-1.084-.698-1.378-1.257-.42-2.287.982-1.055 1.545-2.144 3.42-.867 5.868 3.995 12.355 6.823 19.472 7.93 7.856 1.225 15.579.721 22.698-3.137 6.615-3.584 9.105-9.233 6.696-15.563M23.084 21.497C27.996 10.363 36.821 6.52 50.178 9.693c2.693.64 5.34 1.476 7.753 2.883.726.423 2.359.661 1.32 2.006-.714.924-1.101 2.964-3.218 1.765-3.428-1.94-7.222-2.713-11.08-3.261-4.203-.597-8.218.064-11.946 1.986-5.005 2.58-6.79 8.017-4.253 13.492.846-5.305 3.142-9.137 8.209-10.455 6.058-1.575 11.803-.485 17.336 2.267-1.146 2.734-2.664 3.66-5.465 2.392-2.53-1.145-5.366-1.416-8.16-1.175-3.012.26-5.7 1.293-6.924 4.353-1.193 2.987-.362 5.658 1.716 8.027 2.386 2.719 5.344 4.65 8.402 6.495 7.804 4.711 15.66 9.369 21.817 16.312 5.51 6.212 9.074 12.974 5.953 21.6-.22.608-.346 1.26-1.21 1.7.023-13.822-8.297-22.313-18.55-29.375-6.393-4.404-13.152-8.266-19.673-12.486-3.928-2.543-7.641-5.39-10.417-9.272-6.446-9.014-4.019-20.133 5.767-25.33 10.56-5.607 21.237-4 31.826.108 1.334.518 2.648 1.17 3.836 1.963.744.497 2.586.706 1.401 2.3-.82 1.103-1.367 2.657-3.597 1.416-8.538-4.754-17.655-6.63-27.226-3.875-5.592 1.609-9.958 4.878-11.222 11.1-.334 1.647-.53 3.304.511 4.868" transform="translate(203 21) translate(528 100) translate(35 22)"/>
                <path d="M22.932 3.673C12.926 11.1 12.371 24.676 21.694 34.56c4.648 4.926 10.316 8.483 16.085 11.898C44 50.138 50.272 53.76 55.716 58.582c5.212 4.617 9.253 9.896 9.76 17.254.467 6.768-2.843 11.422-8.043 15.164 2.02-3.32 3.751-6.705 4.088-10.674.71-8.404-3.277-14.47-9.427-19.522-6.033-4.955-12.904-8.607-19.526-12.647-6.39-3.897-12.486-8.15-16.895-14.39-6.137-8.686-6.403-18.974-.378-25.707 1.97-2.2 4.014-4.808 7.627-4.372l.01-.015z" transform="translate(203 21) translate(528 100) translate(35 22)"/>
                <path d="M21.89 3.874l-.111-.468.122.451c0 .002-.01.017-.01.017" transform="translate(203 21) translate(528 100) translate(35 22)"/>
            </g>
        </g>
        <g filter="url(#prefix__g)" transform="translate(203 21) translate(0 182)">
            <g fill="#000" transform="translate(30.294 184.673)">
                <rect width="297.238" height="21.034" x=".475" y=".478" filter="url(#prefix__h)" opacity=".05" rx="10.517"/>
                <rect width="283.932" height="14.85" x="8.316" y=".594" filter="url(#prefix__i)" opacity=".5" rx="7.425"/>
            </g>
            <use fill="#000" filter="url(#prefix__j)" xlink:href="#prefix__k"/>
            <use fill="#FFF" xlink:href="#prefix__k"/>
            <use fill="#000" filter="url(#prefix__l)" xlink:href="#prefix__k"/>
            <path fill="#FFF" d="M0 194.238H356.4V196.614H0z"/>
            <path fill="url(#prefix__m)" fill-opacity=".5" d="M146.718 194.238h63.558v.891c0 .492-.406.891-.898.891h-61.762c-.496 0-.898-.395-.898-.891v-.891z"/>
            <path fill="url(#prefix__n)" d="M57.024 200.772C8.568 200.772 0 196.614 0 196.614l178.794-.594 177.606.594s-8.545 4.158-57.024 4.158z"/>
            <g transform="translate(42.768 13.068)">
                <mask id="prefix__p" fill="#fff">
                    <use xlink:href="#prefix__o"/>
                </mask>
                <use fill="#C1E4F4" xlink:href="#prefix__o"/>
                <circle cx="51.678" cy="51.678" r="11.286" fill="#ADD5E8" fill-rule="nonzero" mask="url(#prefix__p)"/>
                <path fill="#E2F6FF" fill-rule="nonzero" d="M43.956 73.656h66.528c1.968 0 3.564 1.596 3.564 3.564s-1.596 3.564-3.564 3.564H43.956c-1.968 0-3.564-1.596-3.564-3.564s1.596-3.564 3.564-3.564zM43.956 86.724h76.032c1.968 0 3.564 1.596 3.564 3.564s-1.596 3.564-3.564 3.564H43.956c-1.968 0-3.564-1.596-3.564-3.564s1.596-3.564 3.564-3.564z" mask="url(#prefix__p)"/>
                <path fill="#44AFE0" fill-rule="nonzero" d="M48.708 106.92h33.264c1.53 0 2.965.414 4.197 1.135 1.232.722 2.262 1.752 2.984 2.984.721 1.232 1.135 2.666 1.135 4.197 0 1.53-.414 2.965-1.135 4.197-.722 1.232-1.752 2.262-2.984 2.984-1.232.721-2.666 1.135-4.197 1.135H48.708c-1.53 0-2.965-.414-4.197-1.135-1.232-.722-2.262-1.752-2.984-2.984-.721-1.232-1.135-2.666-1.135-4.197 0-1.53.414-2.965 1.135-4.197.722-1.232 1.752-2.262 2.984-2.984 1.232-.721 2.666-1.135 4.197-1.135z" mask="url(#prefix__p)"/>
                <path fill="#ADD5E8" fill-rule="nonzero" d="M173.752 39.204h48.1c4.237 0 5.773.441 7.322 1.27 1.549.828 2.764 2.043 3.593 3.592.828 1.549 1.269 3.085 1.269 7.322v67.108c0 4.237-.441 5.773-1.27 7.322-.828 1.549-2.043 2.764-3.592 3.593-1.549.828-3.085 1.269-7.322 1.269h-48.1c-4.237 0-5.773-.441-7.322-1.27-1.549-.828-2.764-2.043-3.593-3.592-.828-1.549-1.269-3.085-1.269-7.322V51.388c0-4.237.441-5.773 1.27-7.322.828-1.549 2.043-2.764 3.592-3.593 1.549-.828 3.085-1.269 7.322-1.269z" mask="url(#prefix__p)"/>
            </g>
        </g>
    </g>
</svg>
