<svg xmlns="http://www.w3.org/2000/svg" xmlns:xlink="http://www.w3.org/1999/xlink" width="650" height="426" viewBox="0 0 650 426">
    <defs>
        <linearGradient id="prefix__c" x1="97.805%" x2="0%" y1="48.644%" y2="50%">
            <stop offset="0%" stop-color="#7187B5"/>
            <stop offset="100%" stop-color="#BFCDED"/>
        </linearGradient>
        <linearGradient id="prefix__d" x1="16.536%" x2="100%" y1="50.954%" y2="48.613%">
            <stop offset="0%" stop-color="#C4D5FF"/>
            <stop offset="49.986%" stop-color="#C9DDFF"/>
            <stop offset="53.19%" stop-color="#E1ECFF"/>
            <stop offset="100%" stop-color="#D5E1FF"/>
        </linearGradient>
        <linearGradient id="prefix__e" x1="93.38%" x2="0%" y1="40.987%" y2="52.752%">
            <stop offset="0%" stop-color="#C0E1FF"/>
            <stop offset="100%" stop-color="#FFF"/>
        </linearGradient>
        <linearGradient id="prefix__f" x1="4.277%" x2="116.96%" y1="53.116%" y2="51.091%">
            <stop offset="0%" stop-color="#6D94E7"/>
            <stop offset="100%" stop-color="#7E9EEF"/>
        </linearGradient>
        <linearGradient id="prefix__h" x1="116.96%" x2="94.973%" y1="41.024%" y2="67.812%">
            <stop offset="0%" stop-color="#6D7FE7"/>
            <stop offset="100%" stop-color="#4E60CD"/>
        </linearGradient>
        <linearGradient id="prefix__i" x1="103.442%" x2="-24.957%" y1="48.308%" y2="52.97%">
            <stop offset="0%" stop-color="#4F6FCE"/>
            <stop offset="100%" stop-color="#3B3B5D"/>
        </linearGradient>
        <linearGradient id="prefix__k" x1="74.717%" x2="21.511%" y1="23.035%" y2="58.233%">
            <stop offset="0%" stop-color="#C0E1FF"/>
            <stop offset="100%" stop-color="#FFF"/>
        </linearGradient>
        <linearGradient id="prefix__l" x1="83.165%" x2="3.483%" y1="44.803%" y2="59.126%">
            <stop offset="0%" stop-color="#4F6FCE"/>
            <stop offset="100%" stop-color="#3B3B5D"/>
        </linearGradient>
        <linearGradient id="prefix__m" x1="50%" x2="50%" y1="0%" y2="100%">
            <stop offset="0%" stop-color="#FB6464"/>
            <stop offset="100%" stop-color="#FA4E40"/>
        </linearGradient>
        <linearGradient id="prefix__n" x1="103.36%" x2="40.441%" y1="39.847%" y2="57.476%">
            <stop offset="0%" stop-color="#364D83" stop-opacity=".602"/>
            <stop offset="100%" stop-color="#B2C4FF"/>
        </linearGradient>
        <linearGradient id="prefix__p" x1="48.5%" x2="51.386%" y1="8.304%" y2="81.985%">
            <stop offset="0%" stop-color="#15539E"/>
            <stop offset="100%" stop-color="#092965"/>
        </linearGradient>
        <linearGradient id="prefix__s" x1="48.506%" x2="51.38%" y1="8.304%" y2="81.985%">
            <stop offset="0%" stop-color="#15539E"/>
            <stop offset="100%" stop-color="#092965"/>
        </linearGradient>
        <linearGradient id="prefix__x" x1="65.188%" x2="32.494%" y1="23.035%" y2="58.233%">
            <stop offset="0%" stop-color="#C0E1FF"/>
            <stop offset="100%" stop-color="#FFF"/>
        </linearGradient>
        <linearGradient id="prefix__y" x1="84.43%" x2="10.316%" y1="23.035%" y2="58.233%">
            <stop offset="0%" stop-color="#C0E1FF"/>
            <stop offset="100%" stop-color="#FFF"/>
        </linearGradient>
        <linearGradient id="prefix__E" x1="56.968%" x2="50%" y1="44.803%" y2="100%">
            <stop offset="0%" stop-color="#4F6FCE"/>
            <stop offset="100%" stop-color="#3B3B5D"/>
        </linearGradient>
        <linearGradient id="prefix__F" x1="53.331%" x2="56.886%" y1="28.267%" y2="-17.193%">
            <stop offset="0%" stop-color="#DAE2FF"/>
            <stop offset="100%" stop-color="#FFF" stop-opacity="0"/>
        </linearGradient>
        <linearGradient id="prefix__G" x1="57.942%" x2="41.693%" y1="45.996%" y2="50%">
            <stop offset="0%" stop-color="#7187B5"/>
            <stop offset="100%" stop-color="#BFCDED"/>
        </linearGradient>
        <linearGradient id="prefix__H" x1="57.131%" x2="38.881%" y1="0%" y2="94.886%">
            <stop offset="0%" stop-color="#C4D5FF"/>
            <stop offset="27.757%" stop-color="#C9DDFF"/>
            <stop offset="36.485%" stop-color="#E1ECFF"/>
            <stop offset="100%" stop-color="#D5E1FF"/>
        </linearGradient>
        <linearGradient id="prefix__I" x1="56.549%" x2="42.452%" y1="23.035%" y2="58.233%">
            <stop offset="0%" stop-color="#C0E1FF"/>
            <stop offset="100%" stop-color="#FFF"/>
        </linearGradient>
        <linearGradient id="prefix__J" x1="39.289%" x2="95.444%" y1="80.156%" y2="53.255%">
            <stop offset="0%" stop-color="#6D7FE7"/>
            <stop offset="100%" stop-color="#7E9EEF"/>
        </linearGradient>
        <linearGradient id="prefix__K" x1="41.692%" x2="62.167%" y1="59.297%" y2="53.255%">
            <stop offset="0%" stop-color="#6D94E7"/>
            <stop offset="100%" stop-color="#7E9EEF"/>
        </linearGradient>
        <linearGradient id="prefix__L" x1="46.12%" x2="55.682%" y1="59.297%" y2="53.255%">
            <stop offset="0%" stop-color="#6D94E7"/>
            <stop offset="100%" stop-color="#7E9EEF"/>
        </linearGradient>
        <linearGradient id="prefix__M" x1="48.618%" x2="55.865%" y1="80.156%" y2="53.255%">
            <stop offset="0%" stop-color="#6D7FE7"/>
            <stop offset="100%" stop-color="#7E9EEF"/>
        </linearGradient>
        <linearGradient id="prefix__N" x1="50.556%" x2="49.562%" y1="-2.315%" y2="101.669%">
            <stop offset="0%" stop-color="#C4D5FF"/>
            <stop offset="100%" stop-color="#D5E1FF"/>
        </linearGradient>
        <linearGradient id="prefix__O" x1="51.426%" x2="48.877%" y1="-2.315%" y2="101.669%">
            <stop offset="0%" stop-color="#C4D5FF"/>
            <stop offset="100%" stop-color="#D5E1FF"/>
        </linearGradient>
        <linearGradient id="prefix__P" x1="81.011%" x2="25.571%" y1="-2.315%" y2="101.669%">
            <stop offset="0%" stop-color="#C4D5FF"/>
            <stop offset="100%" stop-color="#D5E1FF"/>
        </linearGradient>
        <linearGradient id="prefix__Q" x1="54.747%" x2="45.767%" y1="0%" y2="134.992%">
            <stop offset="0%" stop-color="#E4E9FF"/>
            <stop offset="100%" stop-color="#FFF"/>
        </linearGradient>
        <linearGradient id="prefix__S" x1="19.231%" x2="78.433%" y1="8.304%" y2="81.985%">
            <stop offset="0%" stop-color="#15539E"/>
            <stop offset="100%" stop-color="#092965"/>
        </linearGradient>
        <linearGradient id="prefix__T" x1="28.496%" x2="69.872%" y1="8.304%" y2="81.985%">
            <stop offset="0%" stop-color="#15539E"/>
            <stop offset="100%" stop-color="#092965"/>
        </linearGradient>
        <linearGradient id="prefix__V" x1="40.337%" x2="48.307%" y1="85.295%" y2="21.379%">
            <stop offset="0%" stop-color="#15539E"/>
            <stop offset="100%" stop-color="#092965"/>
        </linearGradient>
        <linearGradient id="prefix__Y" x1="36.833%" x2="68.337%" y1="105.911%" y2="33.418%">
            <stop offset="0%" stop-color="#BED4EB"/>
            <stop offset="100%" stop-color="#0041AE"/>
        </linearGradient>
        <linearGradient id="prefix__aa" x1="48.012%" x2="52.769%" y1="105.911%" y2="33.418%">
            <stop offset="0%" stop-color="#1B4A7A"/>
            <stop offset="100%" stop-color="#0041AE"/>
        </linearGradient>
        <linearGradient id="prefix__ab" x1="41.505%" x2="47.939%" y1="30.981%" y2="47.84%">
            <stop offset="0%" stop-color="#F3A6A6"/>
            <stop offset="100%" stop-color="#FCCBCB"/>
        </linearGradient>
        <linearGradient id="prefix__ac" x1="50%" x2="50%" y1="0%" y2="100%">
            <stop offset="0%" stop-color="#15539E"/>
            <stop offset="100%" stop-color="#092965"/>
        </linearGradient>
        <linearGradient id="prefix__ad" x1="41.257%" x2="62.176%" y1="105.911%" y2="33.418%">
            <stop offset="0%" stop-color="#BED4EB"/>
            <stop offset="100%" stop-color="#CEDBF0"/>
        </linearGradient>
        <linearGradient id="prefix__af" x1="51.509%" x2="51.509%" y1="0%" y2="91.221%">
            <stop offset="0%" stop-color="#ABBEE7"/>
            <stop offset="100%" stop-color="#A5B6DC" stop-opacity="0"/>
        </linearGradient>
        <linearGradient id="prefix__ah" x1="50%" x2="50%" y1="0%" y2="100%">
            <stop offset="0%" stop-color="#15539E"/>
            <stop offset="100%" stop-color="#092965"/>
        </linearGradient>
        <linearGradient id="prefix__ai" x1="50%" x2="50%" y1="0%" y2="100%">
            <stop offset="0%" stop-color="#15539E"/>
            <stop offset="100%" stop-color="#092965"/>
        </linearGradient>
        <linearGradient id="prefix__ak" x1="104.216%" x2="8.122%" y1="-.058%" y2="101.049%">
            <stop offset="0%" stop-color="#FCCBCB"/>
            <stop offset="100%" stop-color="#E77575"/>
        </linearGradient>
        <linearGradient id="prefix__ao" x1="46.533%" x2="28.942%" y1="-22.237%" y2="80.943%">
            <stop offset="0%" stop-color="#0C3564"/>
            <stop offset="100%" stop-color="#BFA5B1"/>
        </linearGradient>
        <linearGradient id="prefix__aq" x1="43.637%" x2="79.934%" y1="12.238%" y2="0%">
            <stop offset="0%" stop-color="#FCCBCB"/>
            <stop offset="100%" stop-color="#E77575"/>
        </linearGradient>
        <linearGradient id="prefix__ar" x1="35.944%" x2="47.537%" y1="85.295%" y2="21.379%">
            <stop offset="0%" stop-color="#15539E"/>
            <stop offset="100%" stop-color="#092965"/>
        </linearGradient>
        <path id="prefix__g" d="M48.461.462l71.734 40.93c.392.224.528.723.305 1.115-.073.127-.178.232-.305.305l-45.6 26.01c-.5.286-1.116.285-1.618 0L1.243 27.89c-.391-.223-.528-.722-.304-1.114.072-.127.178-.232.305-.304L46.843.462c.501-.286 1.117-.286 1.618 0z"/>
        <path id="prefix__q" d="M-6.214 18.552l15.36 1.28c1.62 1.369 3.324 2.329 5.112 2.88 2.682.827 3.534 1.837 4.661 1.472.752-.243.103-1.156-1.944-2.737l4.128-.172c1.258 1.61 2.29 2.497 3.097 2.66 1.21.245-.192-2.188-.742-3.112 1.3.92 2.767 1.263 3.113.619.212-.395-.555-.678-1.545-1.414-.626-.466-1.39-1.465-1.893-1.67-.868-.352-1.877-.658-3.028-.916l-7.18-1.582-17.529-4.114c-2.003 1.126-3.005 1.996-3.005 2.612 0 1.04.464 2.438 1.395 4.194z"/>
        <path id="prefix__t" d="M7.542 3.65c1.377-.878 5.675-1.445 9.745-2.192C19.642 1.025 21.99.338 23.47 0c2.685 0 3.205 4.096 3.888 8.386.684 4.291 2.204 9.21 1.286 11.831-.612 1.748-1.595 2.98-2.95 3.699 1.156 5.008 1.156 8.283 0 9.825-1.735 2.313-13.392 6.202-18.153 3.556-4.761-2.645-1.487-7.798-3.549-14.59C1.931 15.918-.038 12.607.567 9.413c.604-3.193 4.8-4.377 6.975-5.762z"/>
        <path id="prefix__v" d="M9.81 9.421c0 1.398.114 2.267.341 2.607.937-.34 1.842.239 2.716 1.735 1.311 2.245 1.712 4.7.991 6.96-.72 2.259-4.462 3.168-7.85 1.303-4.619-2.567-4.664-8-4.193-8.482.471-.482 2.385-.403-.473-9.57-1.905-6.11.918-4.294 8.469 5.447z"/>
        <path id="prefix__A" d="M17.888 181.67C-1.9 138.945-5.182 89.808 8.042 34.26c2.707-11.373 6.876-21.048 12.508-29.023C24.5-.358 32.237-1.691 37.832 2.259c.932.658 1.77 1.443 2.488 2.33 6.45 7.972 11.533 17.863 15.25 29.671 15.992 50.808 13.666 99.944-6.98 147.41-1.43 4.304-6.604 6.457-15.522 6.457s-13.978-2.153-15.18-6.457z"/>
        <path id="prefix__U" d="M31.689.44c-1.323 0-6.57 10.315-15.74 30.947L.419 47.521c1.012-.362 2.002-.186 2.968.53.967.716 2.039 1.56 3.217 2.53 8.905-6.666 14.102-10.681 15.59-12.045 2.23-2.046 12.174-25.507 12.174-29.53 0-4.022-.696-8.567-2.68-8.567z"/>
        <path id="prefix__X" d="M19.63 3.964c4.205 2.94 11.522 8.83 12.798 10.885 1.277 2.055-2.099 10.77-4.57 14.69s-1.974 15.408-1.021 18.595c.259.868-12.458 3.84-20.643-.666C-.848 43.59-.19 39.955.837 36.579c.684-2.25 1.026-5.08 1.026-8.49-.026-9.185.228-14.805.761-16.858.8-3.079-.12-10.198 1.408-11.01 1.53-.811 11.393.804 15.598 3.743z"/>
        <path id="prefix__ae" d="M14.582.209c.658 1.523-5.037 11.97-6.905 18.149C5.809 24.537 4.308 35.4 3.346 41.623 3.011 43.792 2.001 47.13.318 51.636c9.481 3.209 16.374 2.429 20.677-2.34-.53-2.641-.11-6.622-.59-11.082-.48-4.46-.086-13.108 3.922-20.413 1.258-4.75 1.973-7.236 2.145-7.456C24.602 7.838 20.638 4.46 14.582.21z"/>
        <path id="prefix__aj" d="M10.56.19c-.25 1.545-.584 3.147-1.005 4.807-.42 1.66-.565 3.061-.431 4.205-.58 1.835-2.036 3.03-4.372 3.583-2.335.554-3.81-.008-4.425-1.685l1.217-6.434L10.56.19z"/>
        <path id="prefix__am" d="M1.307 4.479C.967 5.592.7 7.646.507 10.64c-.29 4.491-.328 7.641 0 8.373.328.731 2.949 1.815 5.584.99 2.635-.824 4.038-2.02 4.587-3.014.548-.993 1.214-2.52 2.179-4.55.965-2.029 3.35-5.11 2.762-7.663-.588-2.552-3.066-4.985-7.291-4.63C5.51.384 3.17 1.828 1.308 4.48z"/>
        <path id="prefix__an" d="M10.104 7.06c-1.994.936-4.04 1.303-6.139 1.1C.82 7.855-.383 6.406.218 4.382.818 2.357 3.825-.113 9.003.035c3.452.1 5.463 1.46 6.034 4.081.981.18 1.493.811 1.536 1.895.063 1.626-1.92 6.669-2.952 7.68-.688.675-1.161.329-1.42-1.038-.105 1.335-.287 1.83-.55 1.486-.392-.516-.67-.483-.425-1.856.246-1.373.098-2.248-.548-2.313-.646-.065-1.306-1.251-1.09-1.99.145-.494.316-.8.516-.92z"/>
        <filter id="prefix__o" width="100%" height="100%" x="0%" y="0%" filterUnits="objectBoundingBox">
            <feGaussianBlur in="SourceGraphic"/>
        </filter>
        <filter id="prefix__z" width="100%" height="100%" x="0%" y="0%" filterUnits="objectBoundingBox">
            <feGaussianBlur in="SourceGraphic"/>
        </filter>
        <filter id="prefix__R" width="100%" height="100%" x="0%" y="0%" filterUnits="objectBoundingBox">
            <feGaussianBlur in="SourceGraphic"/>
        </filter>
        <ellipse id="prefix__C" cx="19.087" cy="18.98" rx="19.087" ry="18.98"/>
        <circle id="prefix__a" cx="120.78" cy="120.78" r="120.78"/>
    </defs>
    <g fill="none" fill-rule="evenodd">
        <mask id="prefix__b" fill="#fff">
            <use xlink:href="#prefix__a"/>
        </mask>
        <path fill="#50E3C2" fill-rule="nonzero" d="M129.221 40.039c1.094 0 1.98.886 1.98 1.98 0 1.093-.886 1.98-1.98 1.98-1.093 0-1.98-.887-1.98-1.98 0-1.094.887-1.98 1.98-1.98zm-15.84 0c1.094 0 1.98.886 1.98 1.98 0 1.093-.886 1.98-1.98 1.98-1.093 0-1.98-.887-1.98-1.98 0-1.094.887-1.98 1.98-1.98zm-15.84 0c1.094 0 1.98.886 1.98 1.98 0 1.093-.886 1.98-1.98 1.98-1.093 0-1.98-.887-1.98-1.98 0-1.094.887-1.98 1.98-1.98zm-15.84 0c1.094 0 1.98.886 1.98 1.98 0 1.093-.886 1.98-1.98 1.98-1.093 0-1.98-.887-1.98-1.98 0-1.094.887-1.98 1.98-1.98zm-15.84 0c1.094 0 1.98.886 1.98 1.98 0 1.093-.886 1.98-1.98 1.98-1.093 0-1.98-.887-1.98-1.98 0-1.094.887-1.98 1.98-1.98zm-15.84 0c1.094 0 1.98.886 1.98 1.98 0 1.093-.886 1.98-1.98 1.98-1.093 0-1.98-.887-1.98-1.98 0-1.094.887-1.98 1.98-1.98zm174.24 0c1.094 0 1.98.886 1.98 1.98 0 1.093-.886 1.98-1.98 1.98-1.093 0-1.98-.887-1.98-1.98 0-1.094.887-1.98 1.98-1.98zm-15.84 0c1.094 0 1.98.886 1.98 1.98 0 1.093-.886 1.98-1.98 1.98-1.093 0-1.98-.887-1.98-1.98 0-1.094.887-1.98 1.98-1.98zm-15.84 0c1.094 0 1.98.886 1.98 1.98 0 1.093-.886 1.98-1.98 1.98-1.093 0-1.98-.887-1.98-1.98 0-1.094.887-1.98 1.98-1.98zm-15.84 0c1.094 0 1.98.886 1.98 1.98 0 1.093-.886 1.98-1.98 1.98-1.093 0-1.98-.887-1.98-1.98 0-1.094.887-1.98 1.98-1.98zm-15.84 0c1.094 0 1.98.886 1.98 1.98 0 1.093-.886 1.98-1.98 1.98-1.093 0-1.98-.887-1.98-1.98 0-1.094.887-1.98 1.98-1.98zm-15.84 0c1.094 0 1.98.886 1.98 1.98 0 1.093-.886 1.98-1.98 1.98-1.093 0-1.98-.887-1.98-1.98 0-1.094.887-1.98 1.98-1.98zm87.12-15.84c1.094 0 1.98.886 1.98 1.98 0 1.093-.886 1.98-1.98 1.98-1.093 0-1.98-.887-1.98-1.98 0-1.094.887-1.98 1.98-1.98zm-15.84 0c1.094 0 1.98.886 1.98 1.98 0 1.093-.886 1.98-1.98 1.98-1.093 0-1.98-.887-1.98-1.98 0-1.094.887-1.98 1.98-1.98zm-15.84 0c1.094 0 1.98.886 1.98 1.98 0 1.093-.886 1.98-1.98 1.98-1.093 0-1.98-.887-1.98-1.98 0-1.094.887-1.98 1.98-1.98zm-15.84 0c1.094 0 1.98.886 1.98 1.98 0 1.093-.886 1.98-1.98 1.98-1.093 0-1.98-.887-1.98-1.98 0-1.094.887-1.98 1.98-1.98zm-15.84 0c1.094 0 1.98.886 1.98 1.98 0 1.093-.886 1.98-1.98 1.98-1.093 0-1.98-.887-1.98-1.98 0-1.094.887-1.98 1.98-1.98zm-15.84 0c1.094 0 1.98.886 1.98 1.98 0 1.093-.886 1.98-1.98 1.98-1.093 0-1.98-.887-1.98-1.98 0-1.094.887-1.98 1.98-1.98zm-15.84 0c1.094 0 1.98.886 1.98 1.98 0 1.093-.886 1.98-1.98 1.98-1.093 0-1.98-.887-1.98-1.98 0-1.094.887-1.98 1.98-1.98zm-15.84 0c1.094 0 1.98.886 1.98 1.98 0 1.093-.886 1.98-1.98 1.98-1.093 0-1.98-.887-1.98-1.98 0-1.094.887-1.98 1.98-1.98zm-15.84 0c1.094 0 1.98.886 1.98 1.98 0 1.093-.886 1.98-1.98 1.98-1.093 0-1.98-.887-1.98-1.98 0-1.094.887-1.98 1.98-1.98zm-15.84 0c1.094 0 1.98.886 1.98 1.98 0 1.093-.886 1.98-1.98 1.98-1.093 0-1.98-.887-1.98-1.98 0-1.094.887-1.98 1.98-1.98zm-15.84 0c1.094 0 1.98.886 1.98 1.98 0 1.093-.886 1.98-1.98 1.98-1.093 0-1.98-.887-1.98-1.98 0-1.094.887-1.98 1.98-1.98zm-15.84 0c1.094 0 1.98.886 1.98 1.98 0 1.093-.886 1.98-1.98 1.98-1.093 0-1.98-.887-1.98-1.98 0-1.094.887-1.98 1.98-1.98zm166.32-15.84c1.094 0 1.98.886 1.98 1.98 0 1.093-.886 1.98-1.98 1.98-1.093 0-1.98-.887-1.98-1.98 0-1.094.887-1.98 1.98-1.98zm-15.84 0c1.094 0 1.98.886 1.98 1.98 0 1.093-.886 1.98-1.98 1.98-1.093 0-1.98-.887-1.98-1.98 0-1.094.887-1.98 1.98-1.98zm-15.84 0c1.094 0 1.98.886 1.98 1.98 0 1.093-.886 1.98-1.98 1.98-1.093 0-1.98-.887-1.98-1.98 0-1.094.887-1.98 1.98-1.98zm-15.84 0c1.094 0 1.98.886 1.98 1.98 0 1.093-.886 1.98-1.98 1.98-1.093 0-1.98-.887-1.98-1.98 0-1.094.887-1.98 1.98-1.98zm-15.84 0c1.094 0 1.98.886 1.98 1.98 0 1.093-.886 1.98-1.98 1.98-1.093 0-1.98-.887-1.98-1.98 0-1.094.887-1.98 1.98-1.98zm-15.84 0c1.094 0 1.98.886 1.98 1.98 0 1.093-.886 1.98-1.98 1.98-1.093 0-1.98-.887-1.98-1.98 0-1.094.887-1.98 1.98-1.98zm-15.84 0c1.094 0 1.98.886 1.98 1.98 0 1.093-.886 1.98-1.98 1.98-1.093 0-1.98-.887-1.98-1.98 0-1.094.887-1.98 1.98-1.98zm-15.84 0c1.094 0 1.98.886 1.98 1.98 0 1.093-.886 1.98-1.98 1.98-1.093 0-1.98-.887-1.98-1.98 0-1.094.887-1.98 1.98-1.98zm-15.84 0c1.094 0 1.98.886 1.98 1.98 0 1.093-.886 1.98-1.98 1.98-1.093 0-1.98-.887-1.98-1.98 0-1.094.887-1.98 1.98-1.98zm-15.84 0c1.094 0 1.98.886 1.98 1.98 0 1.093-.886 1.98-1.98 1.98-1.093 0-1.98-.887-1.98-1.98 0-1.094.887-1.98 1.98-1.98zm-15.84 0c1.094 0 1.98.886 1.98 1.98 0 1.093-.886 1.98-1.98 1.98-1.093 0-1.98-.887-1.98-1.98 0-1.094.887-1.98 1.98-1.98zm-15.84 0c1.094 0 1.98.886 1.98 1.98 0 1.093-.886 1.98-1.98 1.98-1.093 0-1.98-.887-1.98-1.98 0-1.094.887-1.98 1.98-1.98zm102.96-15.84c1.094 0 1.98.886 1.98 1.98 0 1.093-.886 1.98-1.98 1.98-1.093 0-1.98-.887-1.98-1.98 0-1.094.887-1.98 1.98-1.98zm79.2 0c1.094 0 1.98.886 1.98 1.98 0 1.093-.886 1.98-1.98 1.98-1.093 0-1.98-.887-1.98-1.98 0-1.094.887-1.98 1.98-1.98zm-15.84 0c1.094 0 1.98.886 1.98 1.98 0 1.093-.886 1.98-1.98 1.98-1.093 0-1.98-.887-1.98-1.98 0-1.094.887-1.98 1.98-1.98zm-15.84 0c1.094 0 1.98.886 1.98 1.98 0 1.093-.886 1.98-1.98 1.98-1.093 0-1.98-.887-1.98-1.98 0-1.094.887-1.98 1.98-1.98zm-15.84 0c1.094 0 1.98.886 1.98 1.98 0 1.093-.886 1.98-1.98 1.98-1.093 0-1.98-.887-1.98-1.98 0-1.094.887-1.98 1.98-1.98zm-15.84 0c1.094 0 1.98.886 1.98 1.98 0 1.093-.886 1.98-1.98 1.98-1.093 0-1.98-.887-1.98-1.98 0-1.094.887-1.98 1.98-1.98zm-110.88 0c1.094 0 1.98.886 1.98 1.98 0 1.093-.886 1.98-1.98 1.98-1.093 0-1.98-.887-1.98-1.98 0-1.094.887-1.98 1.98-1.98zm79.2 0c1.094 0 1.98.886 1.98 1.98 0 1.093-.886 1.98-1.98 1.98-1.093 0-1.98-.887-1.98-1.98 0-1.094.887-1.98 1.98-1.98zm-15.84 0c1.094 0 1.98.886 1.98 1.98 0 1.093-.886 1.98-1.98 1.98-1.093 0-1.98-.887-1.98-1.98 0-1.094.887-1.98 1.98-1.98zm-15.84 0c1.094 0 1.98.886 1.98 1.98 0 1.093-.886 1.98-1.98 1.98-1.093 0-1.98-.887-1.98-1.98 0-1.094.887-1.98 1.98-1.98zm-15.84 0c1.094 0 1.98.886 1.98 1.98 0 1.093-.886 1.98-1.98 1.98-1.093 0-1.98-.887-1.98-1.98 0-1.094.887-1.98 1.98-1.98zm-15.84 0c1.094 0 1.98.886 1.98 1.98 0 1.093-.886 1.98-1.98 1.98-1.093 0-1.98-.887-1.98-1.98 0-1.094.887-1.98 1.98-1.98zM129.221 103.399c1.094 0 1.98.886 1.98 1.98 0 1.093-.886 1.98-1.98 1.98-1.093 0-1.98-.887-1.98-1.98 0-1.094.887-1.98 1.98-1.98zm-15.84 0c1.094 0 1.98.886 1.98 1.98 0 1.093-.886 1.98-1.98 1.98-1.093 0-1.98-.887-1.98-1.98 0-1.094.887-1.98 1.98-1.98zm-15.84 0c1.094 0 1.98.886 1.98 1.98 0 1.093-.886 1.98-1.98 1.98-1.093 0-1.98-.887-1.98-1.98 0-1.094.887-1.98 1.98-1.98zm-15.84 0c1.094 0 1.98.886 1.98 1.98 0 1.093-.886 1.98-1.98 1.98-1.093 0-1.98-.887-1.98-1.98 0-1.094.887-1.98 1.98-1.98zm-15.84 0c1.094 0 1.98.886 1.98 1.98 0 1.093-.886 1.98-1.98 1.98-1.093 0-1.98-.887-1.98-1.98 0-1.094.887-1.98 1.98-1.98zm-15.84 0c1.094 0 1.98.886 1.98 1.98 0 1.093-.886 1.98-1.98 1.98-1.093 0-1.98-.887-1.98-1.98 0-1.094.887-1.98 1.98-1.98zm174.24 0c1.094 0 1.98.886 1.98 1.98 0 1.093-.886 1.98-1.98 1.98-1.093 0-1.98-.887-1.98-1.98 0-1.094.887-1.98 1.98-1.98zm-15.84 0c1.094 0 1.98.886 1.98 1.98 0 1.093-.886 1.98-1.98 1.98-1.093 0-1.98-.887-1.98-1.98 0-1.094.887-1.98 1.98-1.98zm-15.84 0c1.094 0 1.98.886 1.98 1.98 0 1.093-.886 1.98-1.98 1.98-1.093 0-1.98-.887-1.98-1.98 0-1.094.887-1.98 1.98-1.98zm-15.84 0c1.094 0 1.98.886 1.98 1.98 0 1.093-.886 1.98-1.98 1.98-1.093 0-1.98-.887-1.98-1.98 0-1.094.887-1.98 1.98-1.98zm-15.84 0c1.094 0 1.98.886 1.98 1.98 0 1.093-.886 1.98-1.98 1.98-1.093 0-1.98-.887-1.98-1.98 0-1.094.887-1.98 1.98-1.98zm-15.84 0c1.094 0 1.98.886 1.98 1.98 0 1.093-.886 1.98-1.98 1.98-1.093 0-1.98-.887-1.98-1.98 0-1.094.887-1.98 1.98-1.98zm87.12-15.84c1.094 0 1.98.886 1.98 1.98 0 1.093-.886 1.98-1.98 1.98-1.093 0-1.98-.887-1.98-1.98 0-1.094.887-1.98 1.98-1.98zm-15.84 0c1.094 0 1.98.886 1.98 1.98 0 1.093-.886 1.98-1.98 1.98-1.093 0-1.98-.887-1.98-1.98 0-1.094.887-1.98 1.98-1.98zm-15.84 0c1.094 0 1.98.886 1.98 1.98 0 1.093-.886 1.98-1.98 1.98-1.093 0-1.98-.887-1.98-1.98 0-1.094.887-1.98 1.98-1.98zm-15.84 0c1.094 0 1.98.886 1.98 1.98 0 1.093-.886 1.98-1.98 1.98-1.093 0-1.98-.887-1.98-1.98 0-1.094.887-1.98 1.98-1.98zm-15.84 0c1.094 0 1.98.886 1.98 1.98 0 1.093-.886 1.98-1.98 1.98-1.093 0-1.98-.887-1.98-1.98 0-1.094.887-1.98 1.98-1.98zm-15.84 0c1.094 0 1.98.886 1.98 1.98 0 1.093-.886 1.98-1.98 1.98-1.093 0-1.98-.887-1.98-1.98 0-1.094.887-1.98 1.98-1.98zm-15.84 0c1.094 0 1.98.886 1.98 1.98 0 1.093-.886 1.98-1.98 1.98-1.093 0-1.98-.887-1.98-1.98 0-1.094.887-1.98 1.98-1.98zm-15.84 0c1.094 0 1.98.886 1.98 1.98 0 1.093-.886 1.98-1.98 1.98-1.093 0-1.98-.887-1.98-1.98 0-1.094.887-1.98 1.98-1.98zm-15.84 0c1.094 0 1.98.886 1.98 1.98 0 1.093-.886 1.98-1.98 1.98-1.093 0-1.98-.887-1.98-1.98 0-1.094.887-1.98 1.98-1.98zm-15.84 0c1.094 0 1.98.886 1.98 1.98 0 1.093-.886 1.98-1.98 1.98-1.093 0-1.98-.887-1.98-1.98 0-1.094.887-1.98 1.98-1.98zm-15.84 0c1.094 0 1.98.886 1.98 1.98 0 1.093-.886 1.98-1.98 1.98-1.093 0-1.98-.887-1.98-1.98 0-1.094.887-1.98 1.98-1.98zm-15.84 0c1.094 0 1.98.886 1.98 1.98 0 1.093-.886 1.98-1.98 1.98-1.093 0-1.98-.887-1.98-1.98 0-1.094.887-1.98 1.98-1.98zm166.32-15.84c1.094 0 1.98.886 1.98 1.98 0 1.093-.886 1.98-1.98 1.98-1.093 0-1.98-.887-1.98-1.98 0-1.094.887-1.98 1.98-1.98zm-15.84 0c1.094 0 1.98.886 1.98 1.98 0 1.093-.886 1.98-1.98 1.98-1.093 0-1.98-.887-1.98-1.98 0-1.094.887-1.98 1.98-1.98zm-15.84 0c1.094 0 1.98.886 1.98 1.98 0 1.093-.886 1.98-1.98 1.98-1.093 0-1.98-.887-1.98-1.98 0-1.094.887-1.98 1.98-1.98zm-15.84 0c1.094 0 1.98.886 1.98 1.98 0 1.093-.886 1.98-1.98 1.98-1.093 0-1.98-.887-1.98-1.98 0-1.094.887-1.98 1.98-1.98zm-15.84 0c1.094 0 1.98.886 1.98 1.98 0 1.093-.886 1.98-1.98 1.98-1.093 0-1.98-.887-1.98-1.98 0-1.094.887-1.98 1.98-1.98zm-15.84 0c1.094 0 1.98.886 1.98 1.98 0 1.093-.886 1.98-1.98 1.98-1.093 0-1.98-.887-1.98-1.98 0-1.094.887-1.98 1.98-1.98zm-15.84 0c1.094 0 1.98.886 1.98 1.98 0 1.093-.886 1.98-1.98 1.98-1.093 0-1.98-.887-1.98-1.98 0-1.094.887-1.98 1.98-1.98zm-15.84 0c1.094 0 1.98.886 1.98 1.98 0 1.093-.886 1.98-1.98 1.98-1.093 0-1.98-.887-1.98-1.98 0-1.094.887-1.98 1.98-1.98zm-15.84 0c1.094 0 1.98.886 1.98 1.98 0 1.093-.886 1.98-1.98 1.98-1.093 0-1.98-.887-1.98-1.98 0-1.094.887-1.98 1.98-1.98zm-15.84 0c1.094 0 1.98.886 1.98 1.98 0 1.093-.886 1.98-1.98 1.98-1.093 0-1.98-.887-1.98-1.98 0-1.094.887-1.98 1.98-1.98zm-15.84 0c1.094 0 1.98.886 1.98 1.98 0 1.093-.886 1.98-1.98 1.98-1.093 0-1.98-.887-1.98-1.98 0-1.094.887-1.98 1.98-1.98zm-15.84 0c1.094 0 1.98.886 1.98 1.98 0 1.093-.886 1.98-1.98 1.98-1.093 0-1.98-.887-1.98-1.98 0-1.094.887-1.98 1.98-1.98zm102.96-15.84c1.094 0 1.98.886 1.98 1.98 0 1.093-.886 1.98-1.98 1.98-1.093 0-1.98-.887-1.98-1.98 0-1.094.887-1.98 1.98-1.98zm79.2 0c1.094 0 1.98.886 1.98 1.98 0 1.093-.886 1.98-1.98 1.98-1.093 0-1.98-.887-1.98-1.98 0-1.094.887-1.98 1.98-1.98zm-15.84 0c1.094 0 1.98.886 1.98 1.98 0 1.093-.886 1.98-1.98 1.98-1.093 0-1.98-.887-1.98-1.98 0-1.094.887-1.98 1.98-1.98zm-15.84 0c1.094 0 1.98.886 1.98 1.98 0 1.093-.886 1.98-1.98 1.98-1.093 0-1.98-.887-1.98-1.98 0-1.094.887-1.98 1.98-1.98zm-15.84 0c1.094 0 1.98.886 1.98 1.98 0 1.093-.886 1.98-1.98 1.98-1.093 0-1.98-.887-1.98-1.98 0-1.094.887-1.98 1.98-1.98zm-15.84 0c1.094 0 1.98.886 1.98 1.98 0 1.093-.886 1.98-1.98 1.98-1.093 0-1.98-.887-1.98-1.98 0-1.094.887-1.98 1.98-1.98zm-110.88 0c1.094 0 1.98.886 1.98 1.98 0 1.093-.886 1.98-1.98 1.98-1.093 0-1.98-.887-1.98-1.98 0-1.094.887-1.98 1.98-1.98zm79.2 0c1.094 0 1.98.886 1.98 1.98 0 1.093-.886 1.98-1.98 1.98-1.093 0-1.98-.887-1.98-1.98 0-1.094.887-1.98 1.98-1.98zm-15.84 0c1.094 0 1.98.886 1.98 1.98 0 1.093-.886 1.98-1.98 1.98-1.093 0-1.98-.887-1.98-1.98 0-1.094.887-1.98 1.98-1.98zm-15.84 0c1.094 0 1.98.886 1.98 1.98 0 1.093-.886 1.98-1.98 1.98-1.093 0-1.98-.887-1.98-1.98 0-1.094.887-1.98 1.98-1.98zm-15.84 0c1.094 0 1.98.886 1.98 1.98 0 1.093-.886 1.98-1.98 1.98-1.093 0-1.98-.887-1.98-1.98 0-1.094.887-1.98 1.98-1.98zm-15.84 0c1.094 0 1.98.886 1.98 1.98 0 1.093-.886 1.98-1.98 1.98-1.093 0-1.98-.887-1.98-1.98 0-1.094.887-1.98 1.98-1.98z" mask="url(#prefix__b)"/>
        <g>
            <g>
                <g>
                    <path fill="url(#prefix__c)" d="M133.854 9.568l199.429 109.869v6.643c0 .809-.431 1.557-1.131 1.963l-125.978 72.989c-1.407.815-3.142.815-4.549 0L3.445 86.267c-.701-.405-1.132-1.153-1.132-1.963v-6.643l127.21-68.12c1.355-.725 2.985-.715 4.331.027z" transform="translate(71 15) matrix(-1 0 0 1 373.284 0) translate(0 152.196)"/>
                    <path fill="url(#prefix__d)" d="M133.854 8.004l199.429 109.87v6.642c0 .81-.431 1.557-1.131 1.963l-125.978 72.99c-1.407.814-3.142.814-4.549 0L3.445 84.704c-.701-.406-1.132-1.154-1.132-1.964v-6.642l127.21-68.12c1.355-.725 2.985-.716 4.331.026z" transform="translate(71 15) matrix(-1 0 0 1 373.284 0) translate(0 152.196)"/>
                    <path fill="url(#prefix__e)" d="M133.967 1.313l198.189 114.596c1.084.627 1.455 2.015.828 3.1-.199.343-.485.63-.829.828l-125.984 72.821c-1.405.812-3.137.812-4.542 0L3.44 78.062c-1.085-.627-1.456-2.015-.828-3.1.199-.343.484-.63.828-.828L129.425 1.313c1.405-.812 3.137-.812 4.542 0z" transform="translate(71 15) matrix(-1 0 0 1 373.284 0) translate(0 152.196)"/>
                    <path fill="url(#prefix__f)" d="M135.98 17.684L96.566 41.711c-.614.374-.808 1.175-.434 1.79.115.187.276.343.467.452l161.378 92.023c2.385 1.36 5.31 1.368 7.703.02l36.817-20.736c.627-.353.849-1.147.496-1.774-.113-.2-.277-.367-.476-.484L139.99 17.65c-1.24-.728-2.781-.715-4.01.034z" opacity=".246" transform="translate(71 15) matrix(-1 0 0 1 373.284 0) translate(0 152.196)"/>
                    <g transform="translate(71 15) matrix(-1 0 0 1 373.284 0) translate(0 152.196) translate(77.219 76.098)">
                        <mask id="prefix__j" fill="#fff">
                            <use xlink:href="#prefix__g"/>
                        </mask>
                        <use fill="url(#prefix__h)" xlink:href="#prefix__g"/>
                        <path fill="url(#prefix__i)" d="M48.461 3.87l71.734 40.93c.392.224.528.722.305 1.114-.073.127-.178.232-.305.305l-45.6 26.01c-.5.286-1.116.286-1.618 0L1.243 31.298c-.391-.224-.528-.723-.304-1.114.072-.127.178-.233.305-.305l45.599-26.01c.501-.286 1.117-.286 1.618 0z" mask="url(#prefix__j)"/>
                    </g>
                </g>
                <g>
                    <path fill="#80B1FF" d="M6.627.546l198.355 113.748c1.41.809 2.28 2.31 2.28 3.936v146.012c0 .796-.418 1.534-1.101 1.945l-2.822 1.694c-1.078.647-2.426.647-3.504 0L5.547 151.211c-1.333-.801-2.164-2.23-2.2-3.786L.054 4.632c-.032-1.42.82-2.71 2.138-3.238L4.655.408C5.3.15 6.025.201 6.627.546z" transform="translate(71 15) matrix(-1 0 0 1 373.284 0) translate(131.696)"/>
                    <path fill="url(#prefix__k)" d="M3.404 1.968l198.187 114.595c1.402.81 2.266 2.308 2.266 3.928v145.645c0 1.253-1.016 2.269-2.269 2.269-.398 0-.79-.105-1.135-.305L2.266 153.506C.864 152.695 0 151.198 0 149.578V3.932C0 2.68 1.016 1.664 2.269 1.664c.398 0 .79.105 1.135.304z" transform="translate(71 15) matrix(-1 0 0 1 373.284 0) translate(131.696)"/>
                    <path fill="url(#prefix__l)" d="M7.945 14.765L195.21 123.328 195.21 255.552 7.945 146.989z" transform="translate(71 15) matrix(-1 0 0 1 373.284 0) translate(131.696)"/>
                </g>
            </g>
            <g>
                <path fill="#C7DCFF" d="M.318 7.613v90.482c0 4.659 2.475 8.967 6.5 11.313l108.487 63.243c2.082 1.214 4.755.51 5.97-1.573.388-.667.593-1.426.593-2.198V78.665c0-4.65-2.466-8.952-6.48-11.3L6.889 3.845C4.808 2.628 2.134 3.328.916 5.408c-.391.669-.598 1.43-.598 2.205z" transform="translate(71 15) matrix(-1 0 0 1 272.869 3.217)"/>
                <path fill="#528BE1" d="M10.494 24.584L22.736 31.55 22.736 94.765 10.494 87.799zM32.355 37.754L44.597 44.72 44.597 107.057 32.355 100.091zM54.216 49.168L66.459 56.134 66.459 119.349 54.216 112.383zM76.078 61.46L88.32 68.426 88.32 131.641 76.078 124.675zM97.939 72.873L110.182 79.84 110.182 141.299 97.939 134.333z" transform="translate(71 15) matrix(-1 0 0 1 272.869 3.217)"/>
                <path fill="#FFF" d="M10.494 35.641L22.736 42.607 22.736 105.301 10.494 98.335zM32.355 65.493L44.597 72.459 44.597 117.593 32.355 110.627zM54.216 87.799L66.459 94.765 66.459 129.885 54.216 122.919zM76.078 89.555L88.32 96.521 88.32 142.177 76.078 135.211zM97.939 124.771L110.182 131.737 110.182 151.835 97.939 144.869z" transform="translate(71 15) matrix(-1 0 0 1 272.869 3.217)"/>
            </g>
            <g transform="translate(71 15) matrix(-1 0 0 1 122.475 89.157)">
                <path fill="#C7DCFF" d="M.318 7.613v90.482c0 4.659 2.475 8.967 6.5 11.313l108.487 63.243c2.082 1.214 4.755.51 5.97-1.573.388-.667.593-1.426.593-2.198V78.665c0-4.65-2.466-8.952-6.48-11.3L6.889 3.845C4.808 2.628 2.134 3.328.916 5.408c-.391.669-.598 1.43-.598 2.205z"/>
                <path fill="#98BDF4" d="M10.494 58.62L22.736 65.586 22.736 105.301 10.494 98.335zM32.355 88.472L44.597 95.438 44.597 117.593 32.355 110.627zM54.216 110.778L66.459 117.744 66.459 129.885 54.216 122.919zM76.078 112.534L88.32 119.5 88.32 142.177 76.078 135.211zM97.939 138.558L110.182 145.524 110.182 151.835 97.939 144.869z"/>
                <path stroke="#FFF" stroke-linecap="round" stroke-width="4.593" d="M110.1 125.846c-10.05-15.876-18.538-25.802-25.465-29.78-10.391-5.965-15.78 3.466-26.131-2.562-10.352-6.029-19.367-39.521-43.723-53.598"/>
                <ellipse cx="60.815" cy="93.848" fill="url(#prefix__m)" stroke="#FFF" stroke-opacity=".286" stroke-width="3.674" rx="5.048" ry="8.038" transform="scale(-1 1) rotate(27 0 -159.465)"/>
            </g>
            <g transform="translate(71 15) matrix(-1 0 0 1 511.298 117.651)">
                <ellipse cx="34.006" cy="164.881" fill="url(#prefix__n)" filter="url(#prefix__o)" opacity=".211" rx="30.95" ry="18.383"/>
                <g>
                    <path fill="#051B4D" d="M7.853 15.622c-.052 1.837.843 3.425 2.685 4.763 2.763 2.008 5.065 1.39 7.56 2.65 2.493 1.259 9.75.35 10.318-2.299.57-2.648-8.348-3.303-8.935-3.618-.39-.21-4.267-.71-11.628-1.496z" transform="rotate(41 -172.508 99.162)"/>
                    <path fill="#FFBBB0" d="M6.811 4.755l6.319 8.153c1.013 1.308 2.365 2.314 3.908 2.911 2.514.972 4.471 1.593 5.871 1.862 2.728.524 2.239 2.816-1.494 3.704-2.107.5-5.077.088-8.91-1.24-1.37-.474-2.605-1.269-3.605-2.317l-.567-.595L1.245 9.8l5.566-5.046z" transform="rotate(41 -172.508 99.162)"/>
                </g>
                <path fill="url(#prefix__p)" d="M13.996 66.726c-2.73 8.284-2.83 15.225-.302 20.823-.302 13.7 2.074 22.324 2.074 26.605v33.293c1.461 1.693 3.136 2.54 5.025 2.54 1.888 0 3.541-.426 4.96-1.277l.792-41.487 3.957-43.542-16.506 3.045z"/>
                <g>
                    <path fill="#0D3677" d="M26.946 29.422c.916-1.867 2.527-2.28 4.835-1.24 3.461 1.56 3.253 2.37 2.947 3.243-.307.873-3.444.684-4.917 0-.983-.457-1.938-1.125-2.865-2.003z" transform="rotate(112 23.026 50.445)"/>
                    <g transform="rotate(112 23.026 50.445) translate(25.568)">
                        <mask id="prefix__r" fill="#fff">
                            <use xlink:href="#prefix__q"/>
                        </mask>
                        <use fill="#FFBBB0" transform="rotate(-80 9.499 18.003)" xlink:href="#prefix__q"/>
                        <path fill="#A9AAC4" d="M14.96 7.076c-.185 0-1.96.697-2.296 2.436-.337 1.74-1.228 3.179-.614 2.94.41-.16 1.304-.712 2.683-1.655.274-2.48.35-3.721.226-3.721zM10.672 7.633c1.187-1.383 2.53-2.346 4.028-2.888 2.247-.812 3.013-.812 3.444-1.036.432-.223-2.122-.292-5.089.474-1.978.511-2.773 1.661-2.383 3.45z" mask="url(#prefix__r)" opacity=".2" style="mix-blend-mode:multiply"/>
                    </g>
                    <path fill="#586DFF" d="M.346 47.964c.175-3.774 2.69-6.134 7.543-7.083 4.854-.948 9.677-1.749 14.47-2.402l4.744-9.45c1.814 2.276 4.413 2.958 7.795 2.047-3.095 7.322-5.088 11.474-5.979 12.455-.669.737-8.316 4.51-18.717 5.807-2.302.286-5.587-.171-9.856-1.374z" transform="rotate(112 23.026 50.445)"/>
                </g>
                <g>
                    <path fill="#051B4D" d="M3.203 13.017c-.761 1.378-.063 3.771 2.094 7.18 3.236 5.112 6.244 6.903 9.601 7.35 3.358.447.929-5.297-1.546-7.852-1.65-1.703-3.118-4.452-4.403-8.247l-5.746 1.569z" transform="rotate(10 -777.31 264.034)"/>
                    <path fill="#FFBBB0" d="M7.276 0l2.185 12.605c2.212 4.466 3.89 7.34 5.036 8.62 1.718 1.921-2.483 3.407-5.036 1.65-1.703-1.17-3.668-3.952-5.896-8.344L0 1.834 7.276 0z" transform="rotate(10 -777.31 264.034)"/>
                </g>
                <path fill="url(#prefix__s)" d="M25.222 62.51c-1.145 8.4-.454 15.397 2.074 20.995 1.896 8.277 3.294 15.335 4.195 21.173l.627 40.372c.744 1.5 2.484 2.25 5.219 2.25 2.734 0 4.14-.75 4.214-2.25 1.329-17.223 1.993-31.185 1.993-41.887 0-10.702-3.05-25.17-9.149-43.403l-9.173 2.75z"/>
                <g transform="translate(9.574 29.94)">
                    <mask id="prefix__u" fill="#fff">
                        <use xlink:href="#prefix__t"/>
                    </mask>
                    <use fill="#586DFF" xlink:href="#prefix__t"/>
                    <path fill="#A9AAC4" d="M-.945 9.155c4.177 2.49 6.82 5.879 7.931 10.164 1.666 6.427 4.82 6.656 8.467 5.962 3.647-.695 6.622-1.907 11.595-1.398 4.974.51 1.862 2.276-1.749 1.884-3.611-.392-5.554.049-9.04 1.435-3.485 1.385-6.55 1.36-8.533-.725.598 3.811-3.042 10.402 4.58 11.667 7.62 1.266-6.789 8.392-11.487-3.227C-2.313 27.17-2.9 18.583-.945 9.155z" style="mix-blend-mode:multiply" mask="url(#prefix__u)"/>
                </g>
                <g>
                    <g transform="translate(7.551) translate(10.082 19.71)">
                        <mask id="prefix__w" fill="#fff">
                            <use xlink:href="#prefix__v"/>
                        </mask>
                        <use fill="#FFBBB0" transform="rotate(4 7.49 11.735)" xlink:href="#prefix__v"/>
                        <path fill="#A9AAC4" d="M3.21 4.793s1.325 7.083 7.18 6.792c5.855-.292 1.35-3.624.674-4.182-.674-.559-7.855-2.61-7.855-2.61z" mask="url(#prefix__w)" opacity=".2" style="mix-blend-mode:multiply"/>
                    </g>
                    <g transform="translate(7.551) rotate(12 2.995 28.88)">
                        <ellipse cx="6.046" cy="6.065" fill="#30334F" rx="6.046" ry="6.065"/>
                        <ellipse cx="9.824" cy="9.35" fill="#FFF" rx="3.779" ry="3.791"/>
                        <path fill="#30334F" d="M22.66 14.056c3.682-.69 3.386-8.653-2.23-7.819-4.402 0-6.535-3.188-11.55 1.09-5.016 4.279-5.016 15.155 3.047 15.155 8.064 0 11.277-5.053 10.732-8.426z"/>
                        <path fill="#FFBBB0" d="M21.626 10.613c.684.93 1.026 2.838 1.026 5.723 0 4.329.457 10.338-3.124 10.442-3.582.104-5.713-.796-7.619-3.167-1.27-1.58-1.902-2.583-1.895-3.007-1.118-.238-1.754-.75-1.908-1.538-.23-1.182.403-2.29 2.103-2.29 1.7 0 7.256.701 9.516-5.795.382.153.726.198 1.032.134.306-.065.596-.232.869-.502z"/>
                    </g>
                </g>
                <g transform="rotate(19 -84.907 52.522)">
                    <path fill="url(#prefix__x)" d="M23.223 2.567L27.625.724c.208-.087.449-.025.59.151l.28.352-3.638 12.69-5.755 2.643 3.535-13.32c.08-.304.297-.552.586-.673z" transform="rotate(-8 23.799 8.622)"/>
                    <path fill="#80B1FF" d="M22.837 2.86L26.828.509c.24-.141.55-.061.692.179.055.093.078.201.067.309l-1.301 12.517c-.033.313-.21.593-.478.758l-4.284 2.62c-.238.145-.549.07-.694-.167-.06-.098-.085-.213-.07-.326l1.587-12.791c.039-.312.22-.587.49-.746z"/>
                    <circle cx="25.368" cy="3.937" r="1" fill="url(#prefix__y)" transform="rotate(25 25.368 3.937)"/>
                    <path fill="#FFBBB0" d="M13.323 23.669l8.017-9.771c-.006-2.216.246-3.797.755-4.743.764-1.42.63-3.255 1.437-2.943.54.208.677 1.36.415 3.458 2.003-2.521 3.043-4.267 3.122-5.235.117-1.452 1.022 1.512.383 2.377.367 1.41.433 2.402-.159 4.006-.592 1.605.032.87-1.961 3.482-1.33 1.743-4.235 6.61-8.718 14.6l-3.291-5.231z"/>
                    <path fill="#586DFF" d="M4.368 3.032C1.456 5.388 0 8.274 0 11.692c0 5.126.935 19.578 5.397 24.726 2.975 3.432 7.47.5 13.488-8.797l-5.891-4.812-3.478 3.575c-.713-5.389-1.357-10.437-1.93-15.143-.573-4.707-1.646-7.443-3.218-8.209z"/>
                </g>
            </g>
            <path stroke="#3C7092" stroke-dasharray="2.756 3.215" stroke-width="1.837" d="M210.74 169.729l124.678 73.417c2.383 1.403 3.846 3.962 3.846 6.727v2.339c0 3.304 1.692 6.38 4.484 8.147l37.34 23.652h0" transform="translate(71 15)"/>
            <g transform="translate(71 15) translate(274.244 39.064)">
                <ellipse cx="30.95" cy="183.37" fill="url(#prefix__n)" filter="url(#prefix__z)" opacity=".211" rx="30.95" ry="18.383"/>
                <ellipse cx="32.873" cy="183.583" fill="#83A3E7" rx="16.906" ry="9.662"/>
                <path fill="#131C5D" d="M21.442 153.36c0-6.048-11.87 6.943-13.363 20.676-.597 5.489-.84 7.625 1.727 7.567 1.476-.033 2.993-2.202 5.512-4.987 2.798-3.094 5.499-4.989 8.102-5.685-1.319-5.365-1.978-11.222-1.978-17.57z"/>
                <mask id="prefix__B" fill="#fff">
                    <use xlink:href="#prefix__A"/>
                </mask>
                <use fill="#C5DFFF" xlink:href="#prefix__A"/>
                <path fill="#83A3E7" d="M-8.28 124.231c5.323 12.422 19.041 18.633 41.153 18.633s35.86-6.211 41.242-18.633l-1.948-86.695c17.297 32.585-96.73 32.585-77.685 0l-2.763 86.695z" mask="url(#prefix__B)"/>
                <path stroke="#1E2243" stroke-linecap="round" stroke-width=".689" d="M-8.28 131.133c5.323 12.421 19.041 18.632 41.153 18.632s35.86-6.21 41.242-18.632L72.167 30.634c17.297 32.585-96.73 32.585-77.685 0l-2.763 100.499z" mask="url(#prefix__B)"/>
                <g transform="translate(20.797 71.777)">
                    <ellipse cx="22.867" cy="22.738" fill="#131C5D" rx="22.867" ry="22.738"/>
                    <ellipse cx="25.135" cy="22.738" fill="#C5DFFF" rx="22.867" ry="22.738"/>
                    <g transform="translate(6.048 3.758)">
                        <mask id="prefix__D" fill="#fff">
                            <use xlink:href="#prefix__C"/>
                        </mask>
                        <use fill="#FFF" xlink:href="#prefix__C"/>
                        <path fill="#C5DFFF" d="M13.88 -1.197L26.337 -1.226 26.234 41.676 13.777 41.706z" mask="url(#prefix__D)" opacity=".299" transform="rotate(29 20.057 20.24)"/>
                        <path fill="#C5DFFF" d="M4.712 -10.188L12.639 -10.207 12.536 32.696 4.609 32.715z" mask="url(#prefix__D)" opacity=".299" transform="rotate(29 8.624 11.254)"/>
                    </g>
                    <ellipse cx="25.135" cy="22.738" stroke="#1E2243" stroke-linecap="round" stroke-width=".689" rx="19.087" ry="18.98"/>
                </g>
                <path fill="url(#prefix__E)" d="M50.377 154.067c0-8.853 11.87 10.162 13.364 30.262.596 8.035.838 11.161-1.728 11.077-1.476-.048-2.993-3.223-5.512-7.3-2.367-3.831-4.664-6.406-6.892-7.725-.717-.424-1.102-1.243-.973-2.065l.073-.47c1.112-7.32 1.668-15.246 1.668-23.779z"/>
                <path fill="url(#prefix__E)" d="M10.354 156.137c0-8.853 11.871 10.163 13.364 30.263.596 8.034.839 11.16-1.727 11.077-1.477-.049-2.993-3.224-5.513-7.301-1.786-2.89-3.532-5.066-5.239-6.526-.27-.232-.596-.472-.976-.72-1.13-.737-1.725-2.066-1.523-3.4.103-.682.186-1.252.248-1.712.91-6.73 1.366-13.957 1.366-21.68z" transform="matrix(-1 0 0 1 32.487 0)"/>
            </g>
            <g>
                <path fill="url(#prefix__F)" d="M1.608 42.83l4.74-8.236L65.31.865c2.176-1.245 4.95-.49 6.194 1.686.396.692.603 1.475.6 2.272l-.548 143.639c-.011 3.047-1.55 5.885-4.099 7.557l-56.324 36.946c-.954.626-2.178.662-3.167.094l-5.287-3.034c-1.41-.81-2.28-2.311-2.28-3.937V47.358c0-1.59.417-3.151 1.21-4.529z" transform="translate(71 15) scale(1 -1) rotate(60 604.45 226.848)"/>
                <path fill="url(#prefix__G)" d="M4.969 42.317L64.166 8.453c1.266-.724 2.803-.796 4.131-.193l5.53 2.512c1.392.632 2.267 2.04 2.217 3.567L71.69 148.63c-.095 2.954-1.623 5.677-4.094 7.298l-56.463 37.037c-.954.626-2.178.662-3.167.094l-5.287-3.034c-1.41-.81-2.28-2.311-2.28-3.937V50.198c0-3.257 1.744-6.264 4.57-7.88z" transform="translate(71 15) scale(1 -1) rotate(60 604.45 226.848)"/>
                <path fill="url(#prefix__H)" d="M6 42.914L65.197 9.05c1.266-.724 2.803-.796 4.13-.193l5.531 2.512c1.392.632 2.267 2.04 2.217 3.567L72.72 149.227c-.096 2.954-1.623 5.677-4.094 7.298l-56.464 37.037c-.953.626-2.177.662-3.166.094l-5.287-3.034c-1.41-.81-2.28-2.312-2.28-3.937V50.795c0-3.257 1.744-6.264 4.57-7.88z" transform="translate(71 15) scale(1 -1) rotate(60 604.45 226.848)"/>
                <path fill="url(#prefix__I)" stroke="#FFF" stroke-width=".5" d="M11.358 45.926l59.772-34.15c2.177-1.243 4.95-.486 6.194 1.69.392.686.598 1.463.598 2.252V151.68c0 3.259-1.746 6.267-4.575 7.883l-59.772 34.15c-2.177 1.243-4.95.486-6.194-1.69-.392-.686-.598-1.463-.598-2.252V53.809c0-3.259 1.746-6.267 4.575-7.883z" transform="translate(71 15) scale(1 -1) rotate(60 604.45 226.848)"/>
                <path fill="url(#prefix__J)" d="M43.512 43.823c2.861-1.56 5.158-5.34 5.13-8.443-.03-3.103-2.373-4.355-5.235-2.796-2.861 1.56-5.158 5.34-5.13 8.443.03 3.103 2.373 4.355 5.235 2.796z" transform="translate(71 15) scale(1 -1) rotate(60 604.45 226.848) rotate(-180 43.46 38.204)"/>
                <path fill="url(#prefix__K)" d="M8.771 66.619L75.559 28.578 75.559 147.216 8.771 185.258z" opacity=".246" transform="translate(71 15) scale(1 -1) rotate(60 604.45 226.848)"/>
                <path fill="url(#prefix__L)" d="M31.367 132.963L31.727 65.492 54.926 78.894 54.567 146.364z" opacity=".246" transform="translate(71 15) scale(1 -1) rotate(60 604.45 226.848) rotate(60 43.147 105.928)"/>
                <path fill="url(#prefix__L)" d="M31.47 96.937L31.83 29.467 55.029 42.868 54.67 110.338z" opacity=".246" transform="translate(71 15) scale(1 -1) rotate(60 604.45 226.848) rotate(60 43.25 69.902)"/>
                <path fill="url(#prefix__L)" d="M31.213 167.645L31.573 100.175 54.772 113.576 54.413 181.047z" opacity=".246" transform="translate(71 15) scale(1 -1) rotate(60 604.45 226.848) rotate(60 42.993 140.61)"/>
                <g>
                    <g>
                        <path fill="url(#prefix__M)" d="M0.145 68.578L0.594 0.95 1.625 0.353 23.722 14.352 24.303 81.382 23.273 81.979z" transform="translate(71 15) scale(1 -1) rotate(60 604.45 226.848) translate(11.36 80.071) rotate(60 5.232 90.69)"/>
                        <path fill="#092965" d="M1.176 67.981L1.625 0.353 24.752 13.755 24.303 81.382z" transform="translate(71 15) scale(1 -1) rotate(60 604.45 226.848) translate(11.36 80.071) rotate(60 5.232 90.69)"/>
                        <path fill="url(#prefix__N)" d="M14.424 55.277L15.116 14.283 18.984 16.524 18.291 57.518z" opacity=".5" transform="translate(71 15) scale(1 -1) rotate(60 604.45 226.848) translate(11.36 80.071) rotate(60 5.232 90.69)"/>
                        <path fill="url(#prefix__O)" d="M7.388 28.018l3.867 2.241-.388 22.957L7 50.975l.388-22.957z" opacity=".5" transform="translate(71 15) scale(1 -1) rotate(60 604.45 226.848) translate(11.36 80.071) rotate(60 5.232 90.69)"/>
                        <path fill="url(#prefix__P)" d="M12.912 69.592c2.982-1.698 5.373-5.817 5.34-9.2-.034-3.385-2.478-4.752-5.46-3.055-2.982 1.698-5.372 5.817-5.34 9.201.034 3.384 2.478 4.751 5.46 3.054z" opacity=".5" transform="translate(71 15) scale(1 -1) rotate(60 604.45 226.848) translate(11.36 80.071) rotate(60 5.232 90.69) scale(-1 1) rotate(15 0 -34.156)"/>
                    </g>
                    <g opacity=".8">
                        <path fill="url(#prefix__M)" d="M0.062 68.578L0.511 0.95 1.542 0.353 23.639 14.352 24.22 81.382 23.19 81.979z" transform="translate(71 15) scale(1 -1) rotate(60 604.45 226.848) translate(11.36 80.071) rotate(60 35.32 61.645)"/>
                        <path fill="url(#prefix__Q)" d="M1.093 67.981L1.542 0.353 24.669 13.755 24.22 81.382z" transform="translate(71 15) scale(1 -1) rotate(60 604.45 226.848) translate(11.36 80.071) rotate(60 35.32 61.645)"/>
                        <path fill="url(#prefix__N)" d="M14.341 55.277L15.033 14.283 18.901 16.524 18.208 57.518z" opacity=".5" transform="translate(71 15) scale(1 -1) rotate(60 604.45 226.848) translate(11.36 80.071) rotate(60 35.32 61.645)"/>
                        <path fill="url(#prefix__O)" d="M7.305 28.018l3.867 2.241-.388 22.957-3.867-2.241.388-22.957z" opacity=".5" transform="translate(71 15) scale(1 -1) rotate(60 604.45 226.848) translate(11.36 80.071) rotate(60 35.32 61.645)"/>
                        <path fill="url(#prefix__P)" d="M12.829 69.592c2.982-1.698 5.373-5.817 5.34-9.2-.034-3.385-2.478-4.752-5.46-3.055-2.982 1.698-5.372 5.817-5.34 9.201.034 3.384 2.478 4.751 5.46 3.054z" opacity=".5" transform="translate(71 15) scale(1 -1) rotate(60 604.45 226.848) translate(11.36 80.071) rotate(60 35.32 61.645) scale(-1 1) rotate(15 0 -33.526)"/>
                    </g>
                </g>
            </g>
            <g transform="translate(71 15) translate(456.785 191.643)">
                <ellipse cx="86.839" cy="127.762" fill="url(#prefix__n)" filter="url(#prefix__R)" opacity=".211" rx="30.95" ry="18.383"/>
                <g>
                    <path fill="#30334F" d="M66.305 97.89c1.644.548 2.31 1.94 1.996 4.179-.47 3.357-2.27 2.186-3.137 5.283-.868 3.096-3.693 5.678-5.264 6.125-1.571.448-4.643 1.02-5.256-1.477-.41-1.664 3.478-6.367 11.66-14.11z" transform="translate(40.922 .169)"/>
                    <path fill="url(#prefix__S)" d="M41.564 62.481c-18.156 22.064-25.708 37.094-22.654 45.09 4.58 11.994 40.93-2.878 42.585-3.638 1.656-.76 5.39-3.711 5.39-7.532l-30.682-.615c8.87-9.289 14.617-16.075 17.239-20.36 2.622-4.283-1.338-8.599-11.878-12.945z" transform="translate(40.922 .169)"/>
                    <path fill="#30334F" d="M42.36 127.422c.247.7.33 1.508.247 2.421-.123 1.371-4.337 2.642-5.252 3.031-.915.39-1.91 4.211-7.015 5.07-5.106.859-7.197-.685-6.804-2.414.263-1.153 6.537-3.855 18.824-8.108z" transform="translate(40.922 .169)"/>
                    <path fill="#181E36" d="M33.978 120.786c-2.987 5-5.955 8.935-8.901 11.802-4.42 4.302 1.657 5.29 5.857 4.302 4.2-.988 5.029-5.126 7.213-5.793.855-.26 4.062-1.605 4.415-3.256.165-.774-.124-2.62-.866-5.54" transform="translate(40.922 .169)"/>
                    <path fill="url(#prefix__T)" d="M67.611 71.593c2.312 14.52-1.264 21.78-10.725 21.78L42.91 93.22l-.255 29.85c-2.245 2.118-5.741 1.894-10.49-.67-4.747-19.896-7.121-32.214-7.121-36.953 0-4.177 4.509-8.327 10.25-9.188 9.916-1.487 23.51-1.23 23.911-2.196.424-1.016 3.225-1.84 8.405-2.47z" transform="translate(40.922 .169)"/>
                    <g>
                        <g>
                            <g transform="translate(40.922 .169) rotate(-12 63.81 4.35) translate(.175 12.513) translate(.132 4.277)">
                                <mask id="prefix__W" fill="#fff">
                                    <use xlink:href="#prefix__U"/>
                                </mask>
                                <use fill="url(#prefix__V)" xlink:href="#prefix__U"/>
                                <path fill="#D8D8D8" d="M28.995 34.63c-3.432-6.439-4.54-11.287-3.321-14.544C27.5 15.2 30.659 8.2 30.659 5.612c0-1.724 2.151-.866 6.454 2.575l-8.118 26.444z" style="mix-blend-mode:multiply" mask="url(#prefix__W)"/>
                            </g>
                            <g transform="translate(40.922 .169) rotate(-12 63.81 4.35) translate(.175 12.513) translate(27.343 4.676)">
                                <mask id="prefix__Z" fill="#fff">
                                    <use xlink:href="#prefix__X"/>
                                </mask>
                                <use fill="#FFF" xlink:href="#prefix__X"/>
                                <path fill="url(#prefix__Y)" fill-opacity=".2" d="M12.232 10.064l-6.061.88C8.08 7.084 9.733 4.636 11.13 3.6c1.396-1.037 1.984-.975 1.763.185-.34.294-.603 1.067-.79 2.319-.188 1.252-.145 2.572.13 3.96z" mask="url(#prefix__Z)"/>
                                <path fill="url(#prefix__aa)" fill-opacity=".2" d="M14.62 1.618c-3.233.768-6.522 6.835-9.024 13.995-2.503 7.16-2.345 11.929-1.62 17.829.357 2.89.877 5.962.742 8.33-.142 2.465-.404 4.738-1.07 5.762-.871 1.338-2.979 3.157-6.324 5.456 2.967-3.031 4.478-5.91 4.532-8.634.081-4.087-3.17-18.123-2.592-22.716.578-4.593 2.942-8.86 3.423-12.524.48-3.665-.183-7.906 1.3-8.878 1.482-.973 6.249.077 10.634 1.38z" style="mix-blend-mode:multiply" mask="url(#prefix__Z)"/>
                                <g fill="url(#prefix__ab)" mask="url(#prefix__Z)">
                                    <path d="M22.77 4.146c2.51 1.786-.283 5.126-4.503 5.89-2 .362-4.026.975-6.077 1.838-.337-2.32-.45-4.005-.34-5.054.384-3.651 2.187-6.015 5.41-7.092 2.001 1.755 3.838 3.228 5.51 4.418z"/>
                                </g>
                                <path fill="url(#prefix__ac)" d="M13.33 12.763L9.387 39.264 5.249 42.142 4.335 36.998 11.201 11.621z" mask="url(#prefix__Z)"/>
                                <path fill="#092965" d="M14.208 10.724L11.835 10.011 10.422 10.326 10.891 12.734 13.253 13.498 15.357 12.246z" mask="url(#prefix__Z)"/>
                                <path fill="url(#prefix__ad)" d="M14.208 10.724l3.202 5.161c3.709-5.293 5.188-9.116 4.437-11.466-.392 2.415-1.379 3.992-2.96 4.732-1.581.74-3.141 1.264-4.679 1.573z" mask="url(#prefix__Z)"/>
                            </g>
                            <g transform="translate(40.922 .169) rotate(-12 63.81 4.35) translate(.175 12.513) translate(34.139 9.674)">
                                <mask id="prefix__ag" fill="#fff">
                                    <use xlink:href="#prefix__ae"/>
                                </mask>
                                <use fill="#092965" xlink:href="#prefix__ae"/>
                                <path fill="url(#prefix__af)" d="M5.005 35.474c1.158-6.953 4.293-11.454 9.407-13.503l-2.054-6.342 3.965-.928c-.418-5.11-.58-8.566-.489-10.369.092-1.803.088-2.922-.013-3.36l-.937-1.994c-1.339-1.03-2.515-1.645-3.53-1.846-1.014-.2-.368.594 1.937 2.383.385.027.702.193.95.497s-2.938 6.767-9.56 19.39c-.942 17.668-.834 23.025.324 16.072z" style="mix-blend-mode:multiply" mask="url(#prefix__ag)"/>
                            </g>
                            <path fill="url(#prefix__ah)" d="M49.973 14.007c-.092 1.802.154 4.59.738 8.36l-4.334 1.962 1.934 5.368c-3.607 5.308-9 10.024-10.158 16.972 1.045-6.902 1.883-12.75 3.663-18.637 1.868-6.179 7.564-16.603 6.905-18.126-.33-.988-.81-1.624-1.437-1.906-.108-.24-.024-.277.254-.114.415.245 1.17.682 1.652 1.209.46.502.721.932.794 1.684.077.509.073 1.584-.01 3.228z" transform="translate(40.922 .169) rotate(-12 63.81 4.35) translate(.175 12.513)"/>
                            <path fill="#092965" d="M41.963 6.294c-3.233.768-7.39 6.653-9.444 13.677-2.054 7.024-1.926 12.247-1.2 18.147.727 5.9-2.193 10.691-3.5 12.698-.87 1.338-2.066 3.12-3.586 5.346-.396-2.113-.464-4.544-.202-7.292.392-4.123 3.901-13.189 4.479-17.782.577-4.592.26-12.711.74-16.376.482-3.665.596-8.825 2.08-9.798 1.482-.972 6.249.077 10.633 1.38z" transform="translate(40.922 .169) rotate(-12 63.81 4.35) translate(.175 12.513)"/>
                            <path fill="url(#prefix__ai)" d="M41.963 6.294c-3.233.768-7.39 6.653-9.444 13.677-2.054 7.024-1.926 12.247-1.2 18.147.193 1.565-.24 3.903-.38 5.24-.02.181-.036.36-.05.537-.084.09-.127.045-.123-.147.056-2.225-.926-7.67-2.947-16.334l3.276-7.413-1-1.41c4.873-7.25 8.45-11.458 10.73-12.627.38.108.76.218 1.138.33z" transform="translate(40.922 .169) rotate(-12 63.81 4.35) translate(.175 12.513)"/>
                            <g transform="translate(40.922 .169) rotate(-12 63.81 4.35) translate(.175 12.513) translate(39.698 .184)">
                                <mask id="prefix__al" fill="#fff">
                                    <use xlink:href="#prefix__aj"/>
                                </mask>
                                <use fill="#FCCBCB" xlink:href="#prefix__aj"/>
                                <path fill="url(#prefix__ak)" d="M.547 10.666c2.56.115 4.554-.484 5.985-1.796C7.962 7.558 8.738 5.6 8.86 3l-7.737.76-.576 6.906z" mask="url(#prefix__al)"/>
                            </g>
                        </g>
                        <g transform="translate(40.922 .169) rotate(-12 63.81 4.35) translate(37.544 .083)">
                            <g transform="translate(0 1.45)">
                                <use fill="#FCCBCB" xlink:href="#prefix__am"/>
                            </g>
                            <mask id="prefix__ap" fill="#fff">
                                <use xlink:href="#prefix__an"/>
                            </mask>
                            <use fill="#30334F" xlink:href="#prefix__an"/>
                            <path fill="url(#prefix__ao)" d="M10.876 10.297c1.872-.994 3.293-1.393 4.262-1.199.97.195 1.454.708 1.454 1.54-2.137 3.56-3.296 5.34-3.477 5.34-.18 0-1.225-.196-3.131-.588l.892-5.093z" mask="url(#prefix__ap)"/>
                            <path fill="#031120" d="M14.686 4.433l-4.205 2.505c1.07-.429 2.008-.846 2.812-1.252.805-.406 1.27-.824 1.393-1.253zM8.364 6.113c-3.21.925-5.468.5-6.777-1.277 1.616 1.402 3.875 1.827 6.777 1.277z" mask="url(#prefix__ap)"/>
                            <g>
                                <path fill="#FCCBCB" d="M.299 1.168C.439.791.794.516 1.365.344c.856-.258 1.49 1.085.813 2.314-.419.758-.757 1.282-1.379 1.695-.103.068-.249.068-.438 0-.1.217-.18.386-.24.506-.078-.683-.037-1.762 0-2.201.047-.569.106-1.066.178-1.49z" transform="translate(12.037 10.519)"/>
                                <path fill="url(#prefix__aq)" d="M.773 1.43c.323-.28.6-.374.828-.283.343.136.472.91-.072 1.561-.362.435-.639.663-.829.683l.073-1.962z" transform="translate(12.037 10.519)"/>
                            </g>
                        </g>
                    </g>
                </g>
                <g>
                    <path fill="url(#prefix__M)" d="M0.145 68.578L0.594 0.95 1.625 0.353 23.722 14.352 24.303 81.382 23.273 81.979z" transform="scale(-1 1) rotate(-60 27.794 113.076)"/>
                    <path fill="url(#prefix__Q)" d="M1.176 67.981L1.625 0.353 24.752 13.755 24.303 81.382z" transform="scale(-1 1) rotate(-60 27.794 113.076)"/>
                    <path fill="url(#prefix__N)" d="M14.424 55.277L15.116 14.283 18.984 16.524 18.291 57.518z" opacity=".5" transform="scale(-1 1) rotate(-60 27.794 113.076)"/>
                    <path fill="url(#prefix__O)" d="M7.388 28.018l3.867 2.241-.388 22.957L7 50.975l.388-22.957z" opacity=".5" transform="scale(-1 1) rotate(-60 27.794 113.076)"/>
                    <path fill="url(#prefix__P)" d="M12.912 69.592c2.982-1.698 5.373-5.817 5.34-9.2-.034-3.385-2.478-4.752-5.46-3.055-2.982 1.698-5.372 5.817-5.34 9.201.034 3.384 2.478 4.751 5.46 3.054z" opacity=".5" transform="scale(-1 1) rotate(-60 27.794 113.076) scale(-1 1) rotate(15 0 -34.156)"/>
                </g>
                <path fill="#FCCBCB" d="M76.27 80.316c-2.58.902-4.472 1.79-5.68 2.663-1.81 1.31-4.9 2.761-4.242 3.18.44.278 1.953.023 4.538-.765l-5.853 5.934c1.002.402 1.86.296 2.576-.317 1.27.454 2.179.415 2.727-.115 1.206.166 2.223-.033 3.05-.596s3.697-3.145 8.611-7.745c.005-1.362-.635-2.364-1.92-3.008-1.285-.643-2.554-.387-3.808.769z"/>
                <g transform="scale(-1 1) rotate(7 -313.624 -881.228)">
                    <path fill="url(#prefix__ar)" d="M3.783.011c-5.031.572-5.356 14.83.922 25.224S8.1 33.1 12.815 36.377c3.145 2.185 10.376 6.127 21.694 11.827.602-2.726 2.22-4.088 4.853-4.088L17.69 27.87C11.773 8.917 7.138-.369 3.783.011z"/>
                    <circle cx="32.533" cy="45.66" r="1" fill="#D8D8D8"/>
                </g>
            </g>
        </g>
    </g>
</svg>
