<svg xmlns="http://www.w3.org/2000/svg" xmlns:xlink="http://www.w3.org/1999/xlink" width="367" height="259" viewBox="0 0 367 259">
    <defs>
        <linearGradient id="prefix__a" x1="97.805%" x2="0%" y1="48.644%" y2="50%">
            <stop offset="0%" stop-color="#7187B5"/>
            <stop offset="100%" stop-color="#BFCDED"/>
        </linearGradient>
        <linearGradient id="prefix__b" x1="16.536%" x2="100%" y1="50.954%" y2="48.613%">
            <stop offset="0%" stop-color="#C4D5FF"/>
            <stop offset="49.986%" stop-color="#C9DDFF"/>
            <stop offset="53.19%" stop-color="#E1ECFF"/>
            <stop offset="100%" stop-color="#D5E1FF"/>
        </linearGradient>
        <linearGradient id="prefix__c" x1="93.38%" x2="0%" y1="40.987%" y2="52.752%">
            <stop offset="0%" stop-color="#C0E1FF"/>
            <stop offset="100%" stop-color="#FFF"/>
        </linearGradient>
        <linearGradient id="prefix__d" x1="4.277%" x2="116.96%" y1="53.116%" y2="51.091%">
            <stop offset="0%" stop-color="#6D94E7"/>
            <stop offset="100%" stop-color="#7E9EEF"/>
        </linearGradient>
        <linearGradient id="prefix__f" x1="116.96%" x2="94.973%" y1="41.024%" y2="67.812%">
            <stop offset="0%" stop-color="#6D7FE7"/>
            <stop offset="100%" stop-color="#4E60CD"/>
        </linearGradient>
        <linearGradient id="prefix__g" x1="103.442%" x2="-24.957%" y1="48.308%" y2="52.97%">
            <stop offset="0%" stop-color="#4F6FCE"/>
            <stop offset="100%" stop-color="#3B3B5D"/>
        </linearGradient>
        <linearGradient id="prefix__i" x1="74.717%" x2="21.511%" y1="23.035%" y2="58.233%">
            <stop offset="0%" stop-color="#C0E1FF"/>
            <stop offset="100%" stop-color="#FFF"/>
        </linearGradient>
        <linearGradient id="prefix__j" x1="83.165%" x2="3.483%" y1="44.803%" y2="59.126%">
            <stop offset="0%" stop-color="#4F6FCE"/>
            <stop offset="100%" stop-color="#3B3B5D"/>
        </linearGradient>
        <linearGradient id="prefix__k" x1="50%" x2="50%" y1="0%" y2="100%">
            <stop offset="0%" stop-color="#FB6464"/>
            <stop offset="100%" stop-color="#FA4E40"/>
        </linearGradient>
        <linearGradient id="prefix__l" x1="103.36%" x2="40.441%" y1="39.847%" y2="57.476%">
            <stop offset="0%" stop-color="#364D83" stop-opacity=".602"/>
            <stop offset="100%" stop-color="#B2C4FF"/>
        </linearGradient>
        <linearGradient id="prefix__n" x1="48.5%" x2="51.386%" y1="8.304%" y2="81.985%">
            <stop offset="0%" stop-color="#15539E"/>
            <stop offset="100%" stop-color="#092965"/>
        </linearGradient>
        <linearGradient id="prefix__q" x1="48.506%" x2="51.38%" y1="8.304%" y2="81.985%">
            <stop offset="0%" stop-color="#15539E"/>
            <stop offset="100%" stop-color="#092965"/>
        </linearGradient>
        <linearGradient id="prefix__v" x1="65.188%" x2="32.494%" y1="23.035%" y2="58.233%">
            <stop offset="0%" stop-color="#C0E1FF"/>
            <stop offset="100%" stop-color="#FFF"/>
        </linearGradient>
        <linearGradient id="prefix__w" x1="84.43%" x2="10.316%" y1="23.035%" y2="58.233%">
            <stop offset="0%" stop-color="#C0E1FF"/>
            <stop offset="100%" stop-color="#FFF"/>
        </linearGradient>
        <linearGradient id="prefix__C" x1="56.968%" x2="50%" y1="44.803%" y2="100%">
            <stop offset="0%" stop-color="#4F6FCE"/>
            <stop offset="100%" stop-color="#3B3B5D"/>
        </linearGradient>
        <linearGradient id="prefix__D" x1="53.331%" x2="56.886%" y1="28.267%" y2="-17.193%">
            <stop offset="0%" stop-color="#DAE2FF"/>
            <stop offset="100%" stop-color="#FFF" stop-opacity="0"/>
        </linearGradient>
        <linearGradient id="prefix__E" x1="57.942%" x2="41.693%" y1="45.996%" y2="50%">
            <stop offset="0%" stop-color="#7187B5"/>
            <stop offset="100%" stop-color="#BFCDED"/>
        </linearGradient>
        <linearGradient id="prefix__F" x1="57.131%" x2="38.881%" y1="0%" y2="94.886%">
            <stop offset="0%" stop-color="#C4D5FF"/>
            <stop offset="27.757%" stop-color="#C9DDFF"/>
            <stop offset="36.485%" stop-color="#E1ECFF"/>
            <stop offset="100%" stop-color="#D5E1FF"/>
        </linearGradient>
        <linearGradient id="prefix__G" x1="56.549%" x2="42.452%" y1="23.035%" y2="58.233%">
            <stop offset="0%" stop-color="#C0E1FF"/>
            <stop offset="100%" stop-color="#FFF"/>
        </linearGradient>
        <linearGradient id="prefix__H" x1="39.289%" x2="95.444%" y1="80.156%" y2="53.255%">
            <stop offset="0%" stop-color="#6D7FE7"/>
            <stop offset="100%" stop-color="#7E9EEF"/>
        </linearGradient>
        <linearGradient id="prefix__I" x1="41.692%" x2="62.167%" y1="59.297%" y2="53.255%">
            <stop offset="0%" stop-color="#6D94E7"/>
            <stop offset="100%" stop-color="#7E9EEF"/>
        </linearGradient>
        <linearGradient id="prefix__J" x1="46.12%" x2="55.682%" y1="59.297%" y2="53.255%">
            <stop offset="0%" stop-color="#6D94E7"/>
            <stop offset="100%" stop-color="#7E9EEF"/>
        </linearGradient>
        <linearGradient id="prefix__K" x1="48.618%" x2="55.865%" y1="80.156%" y2="53.255%">
            <stop offset="0%" stop-color="#6D7FE7"/>
            <stop offset="100%" stop-color="#7E9EEF"/>
        </linearGradient>
        <linearGradient id="prefix__L" x1="50.556%" x2="49.562%" y1="-2.315%" y2="101.669%">
            <stop offset="0%" stop-color="#C4D5FF"/>
            <stop offset="100%" stop-color="#D5E1FF"/>
        </linearGradient>
        <linearGradient id="prefix__M" x1="51.425%" x2="48.877%" y1="-2.315%" y2="101.669%">
            <stop offset="0%" stop-color="#C4D5FF"/>
            <stop offset="100%" stop-color="#D5E1FF"/>
        </linearGradient>
        <linearGradient id="prefix__N" x1="81.011%" x2="25.571%" y1="-2.315%" y2="101.669%">
            <stop offset="0%" stop-color="#C4D5FF"/>
            <stop offset="100%" stop-color="#D5E1FF"/>
        </linearGradient>
        <linearGradient id="prefix__O" x1="54.747%" x2="45.767%" y1="0%" y2="134.992%">
            <stop offset="0%" stop-color="#E4E9FF"/>
            <stop offset="100%" stop-color="#FFF"/>
        </linearGradient>
        <linearGradient id="prefix__Q" x1="19.231%" x2="78.433%" y1="8.304%" y2="81.985%">
            <stop offset="0%" stop-color="#15539E"/>
            <stop offset="100%" stop-color="#092965"/>
        </linearGradient>
        <linearGradient id="prefix__R" x1="28.496%" x2="69.872%" y1="8.304%" y2="81.985%">
            <stop offset="0%" stop-color="#15539E"/>
            <stop offset="100%" stop-color="#092965"/>
        </linearGradient>
        <linearGradient id="prefix__T" x1="40.337%" x2="48.307%" y1="85.295%" y2="21.379%">
            <stop offset="0%" stop-color="#15539E"/>
            <stop offset="100%" stop-color="#092965"/>
        </linearGradient>
        <linearGradient id="prefix__W" x1="36.833%" x2="68.337%" y1="105.911%" y2="33.418%">
            <stop offset="0%" stop-color="#BED4EB"/>
            <stop offset="100%" stop-color="#0041AE"/>
        </linearGradient>
        <linearGradient id="prefix__Y" x1="48.012%" x2="52.769%" y1="105.911%" y2="33.418%">
            <stop offset="0%" stop-color="#1B4A7A"/>
            <stop offset="100%" stop-color="#0041AE"/>
        </linearGradient>
        <linearGradient id="prefix__Z" x1="41.505%" x2="47.939%" y1="30.981%" y2="47.84%">
            <stop offset="0%" stop-color="#F3A6A6"/>
            <stop offset="100%" stop-color="#FCCBCB"/>
        </linearGradient>
        <linearGradient id="prefix__aa" x1="50%" x2="50%" y1="0%" y2="100%">
            <stop offset="0%" stop-color="#15539E"/>
            <stop offset="100%" stop-color="#092965"/>
        </linearGradient>
        <linearGradient id="prefix__ab" x1="41.257%" x2="62.176%" y1="105.911%" y2="33.418%">
            <stop offset="0%" stop-color="#BED4EB"/>
            <stop offset="100%" stop-color="#CEDBF0"/>
        </linearGradient>
        <linearGradient id="prefix__ad" x1="51.509%" x2="51.509%" y1="0%" y2="91.221%">
            <stop offset="0%" stop-color="#ABBEE7"/>
            <stop offset="100%" stop-color="#A5B6DC" stop-opacity="0"/>
        </linearGradient>
        <linearGradient id="prefix__af" x1="50%" x2="50%" y1="0%" y2="100%">
            <stop offset="0%" stop-color="#15539E"/>
            <stop offset="100%" stop-color="#092965"/>
        </linearGradient>
        <linearGradient id="prefix__ag" x1="50%" x2="50%" y1="0%" y2="100%">
            <stop offset="0%" stop-color="#15539E"/>
            <stop offset="100%" stop-color="#092965"/>
        </linearGradient>
        <linearGradient id="prefix__ai" x1="104.216%" x2="8.122%" y1="-.058%" y2="101.049%">
            <stop offset="0%" stop-color="#FCCBCB"/>
            <stop offset="100%" stop-color="#E77575"/>
        </linearGradient>
        <linearGradient id="prefix__am" x1="46.533%" x2="28.942%" y1="-22.237%" y2="80.943%">
            <stop offset="0%" stop-color="#0C3564"/>
            <stop offset="100%" stop-color="#BFA5B1"/>
        </linearGradient>
        <linearGradient id="prefix__ao" x1="43.637%" x2="79.934%" y1="12.238%" y2="0%">
            <stop offset="0%" stop-color="#FCCBCB"/>
            <stop offset="100%" stop-color="#E77575"/>
        </linearGradient>
        <linearGradient id="prefix__ap" x1="35.944%" x2="47.537%" y1="85.295%" y2="21.379%">
            <stop offset="0%" stop-color="#15539E"/>
            <stop offset="100%" stop-color="#092965"/>
        </linearGradient>
        <path id="prefix__e" d="M30.53.291l45.193 25.786c.247.141.333.456.192.702-.046.08-.112.147-.192.192L46.995 43.357c-.316.18-.703.18-1.02 0L.784 17.571c-.246-.14-.332-.455-.192-.702.046-.08.112-.146.192-.192L29.511.291c.316-.18.704-.18 1.02 0z"/>
        <path id="prefix__o" d="M-3.915 11.688l9.677.806c1.02.862 2.094 1.467 3.22 1.815 1.69.52 2.227 1.157 2.937.927.473-.153.065-.728-1.225-1.724l2.601-.109c.792 1.015 1.443 1.573 1.95 1.676.763.155-.12-1.378-.466-1.96.819.58 1.743.795 1.96.39.134-.25-.35-.428-.973-.892-.394-.293-.875-.922-1.193-1.051-.546-.222-1.182-.415-1.907-.578l-4.524-.996L-2.9 7.4c-1.262.71-1.894 1.258-1.894 1.646 0 .655.293 1.536.88 2.642z"/>
        <path id="prefix__r" d="M4.751 2.3c.868-.553 3.576-.91 6.14-1.382C12.374.646 13.854.213 14.787 0c1.691 0 2.02 2.58 2.45 5.283.43 2.704 1.387 5.802.81 7.454-.386 1.1-1.005 1.877-1.86 2.33.73 3.155.73 5.218 0 6.19-1.092 1.457-8.436 3.907-11.436 2.24-3-1.666-.936-4.913-2.235-9.191-1.3-4.279-2.54-6.364-2.159-8.376.381-2.012 3.024-2.758 4.394-3.63z"/>
        <path id="prefix__t" d="M6.18 5.935c0 .881.072 1.428.215 1.643.59-.214 1.16.15 1.711 1.093.826 1.414 1.079 2.96.625 4.384-.454 1.424-2.812 1.996-4.946.822C.875 12.259.847 8.836 1.144 8.533c.296-.304 1.502-.254-.298-6.029-1.2-3.85.578-2.706 5.335 3.431z"/>
        <path id="prefix__y" d="M11.27 114.452C-1.198 87.535-3.266 56.579 5.065 21.584c1.706-7.165 4.333-13.26 7.88-18.285 2.489-3.525 7.363-4.364 10.888-1.876.588.415 1.115.909 1.568 1.468 4.063 5.023 7.265 11.254 9.607 18.693 10.075 32.009 8.61 62.965-4.397 92.868-.9 2.712-4.16 4.068-9.779 4.068-5.618 0-8.806-1.356-9.564-4.068z"/>
        <path id="prefix__S" d="M19.964.277c-.833 0-4.139 6.499-9.916 19.497L.264 29.938c.638-.228 1.261-.117 1.87.334.609.451 1.284.982 2.026 1.594 5.61-4.2 8.885-6.73 9.822-7.589 1.405-1.289 7.67-16.069 7.67-18.603 0-2.534-.438-5.397-1.688-5.397z"/>
        <path id="prefix__V" d="M12.367 2.497c2.65 1.852 7.258 5.563 8.063 6.858.804 1.294-1.323 6.785-2.88 9.255-1.556 2.47-1.243 9.707-.643 11.714.163.547-7.848 2.42-13.005-.42-4.436-2.442-4.021-4.733-3.375-6.86.431-1.417.647-3.2.647-5.347-.016-5.788.143-9.328.48-10.621.503-1.94-.077-6.425.886-6.937.964-.511 7.177.507 9.827 2.358z"/>
        <path id="prefix__ac" d="M9.186.132c.415.96-3.173 7.54-4.35 11.433-1.176 3.893-2.122 10.737-2.728 14.658-.211 1.366-.847 3.469-1.908 6.308 5.974 2.021 10.316 1.53 13.027-1.475-.333-1.664-.07-4.171-.372-6.981-.302-2.81-.054-8.258 2.471-12.86.793-2.993 1.243-4.559 1.351-4.698C15.5 4.938 13.002 2.81 9.187.132z"/>
        <path id="prefix__ah" d="M6.652.12c-.156.973-.367 1.982-.632 3.028s-.356 1.929-.272 2.65c-.365 1.155-1.283 1.908-2.754 2.257-1.471.348-2.4-.005-2.788-1.062l.767-4.054L6.653.12z"/>
        <path id="prefix__ak" d="M.824 2.822C.609 3.523.44 4.817.319 6.704c-.182 2.83-.206 4.814 0 5.275.207.46 1.858 1.143 3.518.624 1.66-.52 2.545-1.273 2.89-1.9.346-.625.765-1.587 1.373-2.866.608-1.278 2.11-3.22 1.74-4.827C9.47 1.402 7.908-.131 5.246.093 3.472.242 1.998 1.152.824 2.822z"/>
        <path id="prefix__al" d="M6.366 4.447c-1.257.59-2.546.822-3.868.694C.516 4.949-.242 4.036.138 2.76.515 1.484 2.41-.072 5.671.021c2.174.063 3.442.92 3.801 2.571.619.113.94.511.968 1.194.04 1.024-1.21 4.201-1.86 4.839-.433.425-.731.206-.895-.655-.065.841-.18 1.153-.345.937-.248-.326-.423-.305-.268-1.17.154-.865.061-1.416-.346-1.457-.407-.04-.823-.788-.686-1.254.09-.31.199-.504.325-.58z"/>
        <filter id="prefix__m" width="100%" height="100%" x="0%" y="0%" filterUnits="objectBoundingBox">
            <feGaussianBlur in="SourceGraphic"/>
        </filter>
        <filter id="prefix__x" width="100%" height="100%" x="0%" y="0%" filterUnits="objectBoundingBox">
            <feGaussianBlur in="SourceGraphic"/>
        </filter>
        <filter id="prefix__P" width="100%" height="100%" x="0%" y="0%" filterUnits="objectBoundingBox">
            <feGaussianBlur in="SourceGraphic"/>
        </filter>
        <ellipse id="prefix__A" cx="12.025" cy="11.957" rx="12.025" ry="11.957"/>
    </defs>
    <g fill="none" fill-rule="evenodd">
        <g>
            <g>
                <path fill="url(#prefix__a)" d="M84.328 6.028l125.64 69.217v4.185c0 .51-.271.981-.712 1.237L129.89 126.65c-.887.513-1.98.514-2.866 0L2.17 54.348c-.441-.255-.713-.726-.713-1.236v-4.185L81.6 6.01c.853-.457 1.88-.45 2.728.017z" transform="matrix(-1 0 0 1 235.069 0) translate(0 95.883)"/>
                <path fill="url(#prefix__b)" d="M84.328 5.043l125.64 69.217v4.185c0 .51-.271.981-.712 1.237l-79.366 45.983c-.887.513-1.98.513-2.866 0L2.17 53.363c-.441-.255-.713-.727-.713-1.236v-4.185L81.6 5.026c.853-.457 1.88-.45 2.728.017z" transform="matrix(-1 0 0 1 235.069 0) translate(0 95.883)"/>
                <path fill="url(#prefix__c)" d="M84.399.827l124.859 72.196c.683.395.917 1.269.522 1.952-.125.217-.305.397-.522.522l-79.37 45.878c-.886.511-1.977.511-2.862 0L2.167 49.178c-.683-.395-.917-1.27-.522-1.953.126-.216.306-.396.522-.522L81.537.827c.886-.512 1.977-.512 2.862 0z" transform="matrix(-1 0 0 1 235.069 0) translate(0 95.883)"/>
                <path fill="url(#prefix__d)" d="M85.667 11.14l-24.83 15.138c-.387.236-.51.74-.274 1.127.073.119.174.217.294.286l101.668 57.974c1.503.857 3.346.862 4.854.012l23.194-13.063c.395-.223.535-.723.312-1.118-.07-.126-.174-.231-.3-.305L88.194 11.12c-.781-.459-1.752-.45-2.526.02z" opacity=".246" transform="matrix(-1 0 0 1 235.069 0) translate(0 95.883)"/>
                <g transform="matrix(-1 0 0 1 235.069 0) translate(0 95.883) translate(48.648 47.942)">
                    <mask id="prefix__h" fill="#fff">
                        <use xlink:href="#prefix__e"/>
                    </mask>
                    <use fill="url(#prefix__f)" xlink:href="#prefix__e"/>
                    <path fill="url(#prefix__g)" d="M30.53 2.438l45.193 25.786c.247.14.333.455.192.702-.046.08-.112.146-.192.192L46.995 45.504c-.316.18-.703.18-1.02 0L.784 19.718c-.246-.141-.332-.456-.192-.702.046-.08.112-.147.192-.192L29.511 2.438c.316-.18.704-.18 1.02 0z" mask="url(#prefix__h)"/>
                </g>
            </g>
            <g>
                <path fill="#80B1FF" d="M4.175.344l124.963 71.661c.889.51 1.437 1.456 1.437 2.48v91.987c0 .502-.263.967-.694 1.226l-1.777 1.067c-.68.408-1.529.408-2.208 0L3.495 95.263c-.84-.505-1.364-1.405-1.386-2.385L.034 2.918C.014 2.024.55 1.211 1.381.878L2.933.257c.406-.162.863-.13 1.242.087z" transform="matrix(-1 0 0 1 235.069 0) translate(82.968)"/>
                <path fill="url(#prefix__i)" d="M2.145 1.24l124.857 72.195c.884.51 1.428 1.454 1.428 2.474v91.757c0 .79-.64 1.43-1.43 1.43-.25 0-.497-.067-.715-.193L1.428 96.71C.544 96.198 0 95.255 0 94.234V2.477c0-.789.64-1.429 1.43-1.429.25 0 .497.066.715.192z" transform="matrix(-1 0 0 1 235.069 0) translate(82.968)"/>
                <path fill="url(#prefix__j)" d="M5.005 9.302L122.982 77.697 122.982 160.998 5.005 92.603z" transform="matrix(-1 0 0 1 235.069 0) translate(82.968)"/>
            </g>
        </g>
        <g>
            <path fill="#C7DCFF" d="M.2 4.796V61.8c0 2.935 1.56 5.649 4.095 7.127l68.347 39.843c1.312.765 2.996.321 3.76-.99.246-.421.375-.9.375-1.386V49.56c0-2.93-1.554-5.64-4.082-7.12L4.34 2.423c-1.31-.767-2.995-.327-3.763.984-.246.421-.376.9-.376 1.39z" transform="matrix(-1 0 0 1 171.807 2.027)"/>
            <path fill="#528BE1" d="M6.611 15.488L14.324 19.876 14.324 59.702 6.611 55.314zM20.384 23.785L28.096 28.174 28.096 67.446 20.384 63.057zM34.156 30.976L41.869 35.364 41.869 75.19 34.156 70.801zM47.929 38.719L55.642 43.108 55.642 82.934 47.929 78.545zM61.702 45.91L69.415 50.299 69.415 89.018 61.702 84.63z" transform="matrix(-1 0 0 1 171.807 2.027)"/>
            <path fill="#FFF" d="M6.611 22.454L14.324 26.843 14.324 66.34 6.611 61.951zM20.384 41.26L28.096 45.649 28.096 74.084 20.384 69.695zM34.156 55.314L41.869 59.702 41.869 81.828 34.156 77.439zM47.929 56.42L55.642 60.809 55.642 89.572 47.929 85.183zM61.702 78.606L69.415 82.994 69.415 95.656 61.702 91.267z" transform="matrix(-1 0 0 1 171.807 2.027)"/>
        </g>
        <g transform="matrix(-1 0 0 1 77.06 56.17)">
            <path fill="#C7DCFF" d="M.2 4.796V61.8c0 2.935 1.56 5.649 4.095 7.127l68.347 39.843c1.312.765 2.996.321 3.76-.99.246-.421.375-.9.375-1.386V49.56c0-2.93-1.554-5.64-4.082-7.12L4.34 2.423c-1.31-.767-2.995-.327-3.763.984-.246.421-.376.9-.376 1.39z"/>
            <path fill="#98BDF4" d="M6.611 36.93L14.324 41.319 14.324 66.34 6.611 61.951zM20.384 55.737L28.096 60.126 28.096 74.084 20.384 69.695zM34.156 69.79L41.869 74.179 41.869 81.828 34.156 77.439zM47.929 70.896L55.642 75.285 55.642 89.572 47.929 85.183zM61.702 87.292L69.415 91.68 69.415 95.656 61.702 91.267z"/>
            <path stroke="#FFF" stroke-linecap="round" stroke-width="2.893" d="M69.363 79.283c-6.331-10.002-11.679-16.255-16.043-18.76-6.546-3.76-9.941 2.182-16.463-1.616-6.521-3.797-12.2-24.898-27.545-33.766"/>
            <ellipse cx="38.313" cy="59.124" fill="url(#prefix__k)" stroke="#FFF" stroke-opacity=".286" stroke-width="2.315" rx="3.18" ry="5.064" transform="scale(-1 1) rotate(27 0 -100.463)"/>
        </g>
        <g transform="matrix(-1 0 0 1 322.918 74.12)">
            <ellipse cx="22.324" cy="103.875" fill="url(#prefix__l)" filter="url(#prefix__m)" opacity=".211" rx="19.498" ry="11.581"/>
            <g>
                <path fill="#051B4D" d="M4.947 9.842c-.032 1.157.531 2.158 1.692 3 1.74 1.265 3.191.876 4.762 1.67 1.572.793 6.143.22 6.501-1.448.359-1.669-5.26-2.081-5.629-2.28-.246-.132-2.688-.447-7.326-.942z" transform="rotate(41 -108.23 63.676)"/>
                <path fill="#FFBBB0" d="M4.291 2.995l3.98 5.137c.64.824 1.49 1.458 2.463 1.834 1.584.612 2.817 1.003 3.699 1.173 1.718.33 1.41 1.774-.942 2.333-1.327.316-3.198.056-5.613-.78-.862-.3-1.64-.8-2.27-1.46l-.358-.375L.784 6.175l3.507-3.18z" transform="rotate(41 -108.23 63.676)"/>
            </g>
            <path fill="url(#prefix__n)" d="M9.718 42.037c-1.72 5.22-1.784 9.592-.19 13.119-.19 8.631 1.306 14.064 1.306 16.76v20.975c.92 1.067 1.976 1.6 3.165 1.6 1.19 0 2.232-.267 3.125-.804l.5-26.136 2.492-27.432-10.398 1.918z"/>
            <g>
                <path fill="#0D3677" d="M16.976 18.536c.577-1.176 1.592-1.436 3.046-.781 2.18.982 2.05 1.492 1.856 2.043-.193.55-2.17.431-3.097 0-.62-.288-1.22-.709-1.805-1.262z" transform="rotate(112 14.956 32.084)"/>
                <g transform="rotate(112 14.956 32.084) translate(16.108)">
                    <mask id="prefix__p" fill="#fff">
                        <use xlink:href="#prefix__o"/>
                    </mask>
                    <use fill="#FFBBB0" transform="rotate(-80 5.984 11.342)" xlink:href="#prefix__o"/>
                    <path fill="#A9AAC4" d="M9.424 4.458c-.116 0-1.233.439-1.446 1.535-.212 1.095-.773 2.002-.387 1.851.258-.1.822-.448 1.69-1.042.173-1.563.22-2.344.143-2.344zM6.723 4.81c.748-.873 1.594-1.479 2.538-1.82 1.415-.512 1.898-.512 2.17-.653.272-.141-1.337-.184-3.206.299-1.247.321-1.747 1.046-1.502 2.173z" mask="url(#prefix__p)" opacity=".2" style="mix-blend-mode:multiply"/>
                </g>
                <path fill="#586DFF" d="M.218 30.217c.11-2.377 1.695-3.864 4.752-4.462 3.058-.597 6.097-1.102 9.116-1.513l2.99-5.953c1.142 1.433 2.779 1.863 4.91 1.29-1.95 4.612-3.206 7.227-3.767 7.846-.421.464-5.239 2.841-11.792 3.658-1.45.18-3.52-.108-6.21-.866z" transform="rotate(112 14.956 32.084)"/>
            </g>
            <g>
                <path fill="#051B4D" d="M2.018 8.2c-.48.869-.04 2.376 1.32 4.524 2.038 3.22 3.933 4.35 6.048 4.63 2.115.282.585-3.336-.974-4.946-1.04-1.073-1.964-2.805-2.774-5.196l-3.62.989z" transform="rotate(10 -489.256 171.485)"/>
                <path fill="#FFBBB0" d="M4.584 0L5.96 7.94c1.394 2.815 2.452 4.625 3.173 5.432 1.083 1.21-1.564 2.146-3.173 1.04-1.072-.738-2.31-2.49-3.714-5.257L0 1.155 4.584 0z" transform="rotate(10 -489.256 171.485)"/>
            </g>
            <path fill="url(#prefix__q)" d="M16.79 39.382c-.722 5.29-.286 9.7 1.307 13.226 1.194 5.215 2.075 9.661 2.642 13.339l.395 25.435c.47.945 1.565 1.418 3.288 1.418 1.723 0 2.608-.473 2.655-1.418.837-10.85 1.256-19.647 1.256-26.39 0-6.741-1.921-15.856-5.764-27.343l-5.78 1.733z"/>
            <g transform="translate(6.932 18.862)">
                <mask id="prefix__s" fill="#fff">
                    <use xlink:href="#prefix__r"/>
                </mask>
                <use fill="#586DFF" xlink:href="#prefix__r"/>
                <path fill="#A9AAC4" d="M-.595 5.768C2.036 7.337 3.702 9.47 4.4 12.17c1.05 4.05 3.037 4.193 5.334 3.756 2.298-.438 4.172-1.202 7.305-.88 3.134.32 1.174 1.433-1.102 1.186-2.275-.247-3.499.031-5.695.904-2.195.873-4.126.857-5.376-.457.377 2.402-1.916 6.554 2.886 7.35 4.801.798-4.277 5.288-7.237-2.032-1.973-4.88-2.343-10.29-1.111-16.23z" style="mix-blend-mode:multiply" mask="url(#prefix__s)"/>
            </g>
            <g>
                <g transform="translate(5.657) translate(6.351 12.418)">
                    <mask id="prefix__u" fill="#fff">
                        <use xlink:href="#prefix__t"/>
                    </mask>
                    <use fill="#FFBBB0" transform="rotate(4 4.719 7.393)" xlink:href="#prefix__t"/>
                    <path fill="#A9AAC4" d="M2.022 3.02s.835 4.462 4.523 4.278c3.69-.183.85-2.283.426-2.634-.426-.352-4.95-1.644-4.95-1.644z" mask="url(#prefix__u)" opacity=".2" style="mix-blend-mode:multiply"/>
                </g>
                <g transform="translate(5.657) rotate(12 1.887 18.194)">
                    <ellipse cx="3.809" cy="3.821" fill="#30334F" rx="3.809" ry="3.821"/>
                    <ellipse cx="6.189" cy="5.89" fill="#FFF" rx="2.38" ry="2.388"/>
                    <path fill="#30334F" d="M14.275 8.855c2.32-.435 2.134-5.451-1.404-4.926-2.774 0-4.117-2.008-7.277.687-3.16 2.696-3.16 9.548 1.92 9.548s7.104-3.184 6.761-5.309z"/>
                    <path fill="#FFBBB0" d="M13.624 6.686c.431.586.647 1.788.647 3.606 0 2.727.288 6.513-1.969 6.578-2.256.066-3.599-.501-4.8-1.995-.8-.996-1.197-1.627-1.193-1.894-.705-.15-1.105-.473-1.202-.97-.145-.744.254-1.442 1.325-1.442 1.07 0 4.571.442 5.995-3.651.24.097.457.125.65.084.193-.04.375-.146.547-.316z"/>
                </g>
            </g>
            <g transform="rotate(19 -53.042 35.778)">
                <path fill="url(#prefix__v)" d="M14.63 1.617l2.773-1.16c.132-.056.283-.017.372.094l.177.222-2.292 7.995-3.626 1.665 2.227-8.392c.05-.191.187-.348.37-.424z" transform="rotate(-8 14.993 5.432)"/>
                <path fill="#80B1FF" d="M14.387 1.802L16.902.32c.151-.089.346-.039.435.113.035.058.05.127.043.194l-.82 7.886c-.02.198-.132.374-.3.477l-2.7 1.651c-.15.092-.346.045-.437-.105-.038-.062-.054-.134-.045-.205l1-8.059c.025-.196.139-.37.31-.47z"/>
                <circle cx="15.982" cy="2.48" r="1" fill="url(#prefix__w)" transform="rotate(25 15.982 2.48)"/>
                <path fill="#FFBBB0" d="M8.393 14.911l5.051-6.155c-.003-1.396.155-2.392.476-2.989.481-.894.396-2.05.905-1.853.34.13.427.857.261 2.178 1.262-1.588 1.918-2.688 1.967-3.298.074-.915.645.953.242 1.498.231.887.273 1.513-.1 2.524-.373 1.01.02.547-1.236 2.193-.837 1.098-2.668 4.164-5.492 9.198l-2.074-3.296z"/>
                <path fill="#586DFF" d="M2.752 1.91C.917 3.394 0 5.213 0 7.366c0 3.23.589 12.334 3.4 15.577 1.874 2.162 4.707.315 8.498-5.542L8.186 14.37l-2.19 2.253c-.45-3.395-.856-6.575-1.217-9.54-.361-2.965-1.037-4.69-2.027-5.172z"/>
            </g>
        </g>
        <path stroke="#3C7092" stroke-dasharray="1.736 2.025" stroke-width="1.157" d="M132.666 106.929l78.547 46.253c1.502.884 2.423 2.496 2.423 4.238v1.473c0 2.082 1.066 4.02 2.825 5.133l23.524 14.901h0"/>
        <g transform="translate(172.674 24.61)">
            <ellipse cx="19.498" cy="115.523" fill="url(#prefix__l)" filter="url(#prefix__x)" opacity=".211" rx="19.498" ry="11.581"/>
            <ellipse cx="20.71" cy="115.657" fill="#83A3E7" rx="10.651" ry="6.087"/>
            <path fill="#131C5D" d="M13.509 96.617c0-3.81-7.479 4.374-8.42 13.025-.375 3.459-.528 4.804 1.089 4.768.93-.02 1.885-1.387 3.473-3.142 1.762-1.95 3.464-3.143 5.104-3.581-.831-3.38-1.246-7.07-1.246-11.07z"/>
            <mask id="prefix__z" fill="#fff">
                <use xlink:href="#prefix__y"/>
            </mask>
            <use fill="#C5DFFF" xlink:href="#prefix__y"/>
            <path fill="#83A3E7" d="M-5.217 78.266C-1.863 86.09 6.78 90.004 20.71 90.004s22.591-3.913 25.982-11.738l-1.227-54.619c10.897 20.53-60.94 20.53-48.942 0l-1.74 54.619z" mask="url(#prefix__z)"/>
            <path stroke="#1E2243" stroke-linecap="round" stroke-width=".5" d="M-5.217 82.614C-1.863 90.439 6.78 94.352 20.71 94.352s22.591-3.913 25.982-11.738l-1.227-63.315c10.897 20.53-60.94 20.53-48.942 0l-1.74 63.315z" mask="url(#prefix__z)"/>
            <g transform="translate(13.102 45.22)">
                <ellipse cx="14.406" cy="14.325" fill="#131C5D" rx="14.406" ry="14.325"/>
                <ellipse cx="15.835" cy="14.325" fill="#C5DFFF" rx="14.406" ry="14.325"/>
                <g transform="translate(3.81 2.368)">
                    <mask id="prefix__B" fill="#fff">
                        <use xlink:href="#prefix__A"/>
                    </mask>
                    <use fill="#FFF" xlink:href="#prefix__A"/>
                    <path fill="#C5DFFF" d="M8.745 -0.754L16.592 -0.773 16.527 26.256 8.68 26.275z" mask="url(#prefix__B)" opacity=".299" transform="rotate(29 12.636 12.751)"/>
                    <path fill="#C5DFFF" d="M2.969 -6.418L7.963 -6.43 7.898 20.598 2.904 20.61z" mask="url(#prefix__B)" opacity=".299" transform="rotate(29 5.433 7.09)"/>
                </g>
                <ellipse cx="15.835" cy="14.325" stroke="#1E2243" stroke-linecap="round" stroke-width=".5" rx="12.025" ry="11.957"/>
            </g>
            <path fill="url(#prefix__C)" d="M31.738 97.062c0-5.577 7.478 6.402 8.419 19.066.375 5.061.528 7.03-1.089 6.978-.93-.03-1.885-2.03-3.472-4.6-1.492-2.413-2.939-4.035-4.343-4.866-.451-.267-.694-.783-.612-1.301l.046-.296c.7-4.612 1.05-9.605 1.05-14.98z"/>
            <path fill="url(#prefix__C)" d="M6.523 98.367c0-5.578 7.479 6.402 8.42 19.065.375 5.061.528 7.031-1.089 6.978-.93-.03-1.885-2.03-3.473-4.6-1.125-1.82-2.225-3.19-3.3-4.11-.171-.147-.376-.298-.615-.454-.712-.465-1.087-1.302-.96-2.142.065-.43.117-.789.156-1.078.574-4.24.861-8.793.861-13.66z" transform="matrix(-1 0 0 1 20.467 0)"/>
        </g>
        <g>
            <path fill="url(#prefix__D)" d="M1.013 26.982L4 21.794 41.145.544c1.37-.783 3.118-.308 3.902 1.063.25.436.38.93.378 1.431l-.345 90.493c-.007 1.92-.977 3.708-2.583 4.76L7.013 121.569c-.6.394-1.372.417-1.995.06l-3.33-1.912c-.89-.51-1.437-1.456-1.437-2.48v-87.4c0-1.002.263-1.986.762-2.854z" transform="scale(1 -1) rotate(60 380.753 142.828)"/>
            <path fill="url(#prefix__E)" d="M3.13 26.66L40.425 5.326c.797-.457 1.765-.502 2.602-.122l3.484 1.582c.877.398 1.428 1.285 1.397 2.248l-2.744 84.603c-.06 1.861-1.022 3.576-2.58 4.597L7.014 121.568c-.6.394-1.372.417-1.995.06l-3.33-1.912c-.89-.51-1.437-1.456-1.437-2.48V31.624c0-2.052 1.099-3.946 2.88-4.965z" transform="scale(1 -1) rotate(60 380.753 142.828)"/>
            <path fill="url(#prefix__F)" d="M3.78 27.036L41.074 5.702c.797-.457 1.766-.502 2.602-.122l3.485 1.582c.876.399 1.428 1.285 1.396 2.248l-2.743 84.603c-.06 1.861-1.023 3.576-2.58 4.597L7.662 121.944c-.6.394-1.372.417-1.995.06l-3.33-1.912c-.889-.51-1.437-1.456-1.437-2.48V32c0-2.052 1.099-3.946 2.88-4.965z" transform="scale(1 -1) rotate(60 380.753 142.828)"/>
            <path fill="url(#prefix__G)" stroke="#FFF" stroke-width=".5" d="M7.156 28.933L44.812 7.42c1.372-.783 3.119-.306 3.902 1.065.247.432.377.921.377 1.419v85.656c0 2.052-1.1 3.948-2.883 4.966L8.552 122.039c-1.371.783-3.118.307-3.902-1.065-.247-.432-.377-.92-.377-1.419V33.9c0-2.053 1.1-3.949 2.883-4.967z" transform="scale(1 -1) rotate(60 380.753 142.828)"/>
            <path fill="url(#prefix__H)" d="M27.412 27.608c1.803-.982 3.25-3.363 3.232-5.318-.018-1.956-1.494-2.744-3.297-1.762-1.803.982-3.25 3.364-3.232 5.319.018 1.955 1.494 2.744 3.297 1.761z" transform="scale(1 -1) rotate(60 380.753 142.828) rotate(-180 27.38 24.068)"/>
            <path fill="url(#prefix__I)" d="M5.526 41.97L47.602 18.004 47.602 92.746 5.526 116.712z" opacity=".246" transform="scale(1 -1) rotate(60 380.753 142.828)"/>
            <path fill="url(#prefix__J)" d="M19.761 83.766L19.988 41.26 34.603 49.703 34.377 92.209z" opacity=".246" transform="scale(1 -1) rotate(60 380.753 142.828) rotate(60 27.182 66.735)"/>
            <path fill="url(#prefix__J)" d="M19.826 61.07L20.053 18.564 34.668 27.007 34.442 69.513z" opacity=".246" transform="scale(1 -1) rotate(60 380.753 142.828) rotate(60 27.247 44.038)"/>
            <path fill="url(#prefix__J)" d="M19.664 105.616L19.891 63.11 34.507 71.553 34.28 114.059z" opacity=".246" transform="scale(1 -1) rotate(60 380.753 142.828) rotate(60 27.085 88.585)"/>
            <g>
                <g>
                    <path fill="url(#prefix__K)" d="M0.091 43.204L0.374 0.599 1.024 0.223 14.945 9.042 15.311 51.271 14.662 51.647z" transform="scale(1 -1) rotate(60 380.753 142.828) translate(6.257 50.445) rotate(60 3.746 57.915)"/>
                    <path fill="#092965" d="M0.741 42.828L1.024 0.223 15.594 8.666 15.311 51.271z" transform="scale(1 -1) rotate(60 380.753 142.828) translate(6.257 50.445) rotate(60 3.746 57.915)"/>
                    <path fill="url(#prefix__L)" d="M9.087 34.824L9.523 8.998 11.96 10.41 11.524 36.236z" opacity=".5" transform="scale(1 -1) rotate(60 380.753 142.828) translate(6.257 50.445) rotate(60 3.746 57.915)"/>
                    <path fill="url(#prefix__M)" d="M4.654 17.652l2.436 1.41-.244 14.464-2.436-1.412.244-14.462z" opacity=".5" transform="scale(1 -1) rotate(60 380.753 142.828) translate(6.257 50.445) rotate(60 3.746 57.915)"/>
                    <path fill="url(#prefix__N)" d="M8.135 43.843c1.878-1.07 3.384-3.665 3.363-5.797-.02-2.132-1.56-2.993-3.439-1.923-1.879 1.069-3.385 3.664-3.364 5.796.021 2.132 1.56 2.993 3.44 1.924z" opacity=".5" transform="scale(1 -1) rotate(60 380.753 142.828) translate(6.257 50.445) rotate(60 3.746 57.915) scale(-1 1) rotate(15 0 -21.519)"/>
                </g>
                <g opacity=".8">
                    <path fill="url(#prefix__K)" d="M0.039 43.204L0.322 0.599 0.971 0.223 14.892 9.042 15.259 51.271 14.61 51.647z" transform="scale(1 -1) rotate(60 380.753 142.828) translate(6.257 50.445) rotate(60 22.701 39.616)"/>
                    <path fill="url(#prefix__O)" d="M0.689 42.828L0.971 0.223 15.542 8.666 15.259 51.271z" transform="scale(1 -1) rotate(60 380.753 142.828) translate(6.257 50.445) rotate(60 22.701 39.616)"/>
                    <path fill="url(#prefix__L)" d="M9.035 34.824L9.471 8.998 11.908 10.41 11.471 36.236z" opacity=".5" transform="scale(1 -1) rotate(60 380.753 142.828) translate(6.257 50.445) rotate(60 22.701 39.616)"/>
                    <path fill="url(#prefix__M)" d="M4.601 17.652l2.436 1.41-.243 14.464-2.437-1.412.244-14.462z" opacity=".5" transform="scale(1 -1) rotate(60 380.753 142.828) translate(6.257 50.445) rotate(60 22.701 39.616)"/>
                    <path fill="url(#prefix__N)" d="M8.082 43.843c1.879-1.07 3.385-3.665 3.364-5.797-.02-2.132-1.56-2.993-3.44-1.923-1.878 1.069-3.384 3.664-3.363 5.796.02 2.132 1.56 2.993 3.44 1.924z" opacity=".5" transform="scale(1 -1) rotate(60 380.753 142.828) translate(6.257 50.445) rotate(60 22.701 39.616) scale(-1 1) rotate(15 0 -21.121)"/>
                </g>
            </g>
        </g>
        <g transform="translate(286.774 119.735)">
            <ellipse cx="55.608" cy="81.49" fill="url(#prefix__l)" filter="url(#prefix__P)" opacity=".211" rx="19.498" ry="11.581"/>
            <g>
                <path fill="#30334F" d="M41.772 62.67c1.036.346 1.455 1.223 1.258 2.633-.297 2.115-1.43 1.378-1.977 3.328-.547 1.951-2.326 3.578-3.316 3.86-.99.282-2.925.642-3.311-.93-.258-1.05 2.19-4.012 7.346-8.89z" transform="translate(26.68 .106)"/>
                <path fill="url(#prefix__Q)" d="M26.185 40.363C14.747 54.263 9.99 63.733 11.913 68.77c2.886 7.556 25.786-1.814 26.83-2.293 1.042-.478 3.395-2.337 3.395-4.744l-19.33-.388c5.588-5.852 9.208-10.127 10.86-12.826 1.652-2.7-.842-5.418-7.483-8.156z" transform="translate(26.68 .106)"/>
                <path fill="#30334F" d="M26.687 81.276c.155.441.207.95.155 1.525-.077.864-2.732 1.664-3.308 1.91-.577.245-1.203 2.653-4.42 3.194-3.217.54-4.534-.432-4.286-1.52.165-.727 4.118-2.43 11.859-5.11z" transform="translate(26.68 .106)"/>
                <path fill="#181E36" d="M21.406 77.095c-1.882 3.15-3.751 5.629-5.608 7.436-2.784 2.71 1.045 3.332 3.69 2.71 2.646-.623 3.169-3.23 4.545-3.65.538-.164 2.559-1.011 2.78-2.051.105-.488-.077-1.65-.545-3.49" transform="translate(26.68 .106)"/>
                <path fill="url(#prefix__R)" d="M42.595 46.104c1.456 9.147-.796 13.72-6.757 13.72l-8.804-.095-.16 18.806c-1.415 1.333-3.618 1.193-6.609-.423-2.991-12.534-4.487-20.295-4.487-23.28 0-2.632 2.84-5.247 6.458-5.79 6.247-.936 14.81-.774 15.064-1.382.267-.64 2.032-1.159 5.295-1.556z" transform="translate(26.68 .106)"/>
                <g>
                    <g>
                        <g transform="translate(26.68 .106) rotate(-12 44.957 3.24) translate(.11 7.883) translate(.083 2.694)">
                            <mask id="prefix__U" fill="#fff">
                                <use xlink:href="#prefix__S"/>
                            </mask>
                            <use fill="url(#prefix__T)" xlink:href="#prefix__S"/>
                            <path fill="#D8D8D8" d="M18.267 21.817c-2.163-4.056-2.86-7.11-2.093-9.163 1.151-3.078 3.141-7.488 3.141-9.118 0-1.087 1.355-.546 4.066 1.622l-5.114 16.66z" style="mix-blend-mode:multiply" mask="url(#prefix__U)"/>
                        </g>
                        <g transform="translate(26.68 .106) rotate(-12 44.957 3.24) translate(.11 7.883) translate(17.226 2.946)">
                            <mask id="prefix__X" fill="#fff">
                                <use xlink:href="#prefix__V"/>
                            </mask>
                            <use fill="#FFF" xlink:href="#prefix__V"/>
                            <path fill="url(#prefix__W)" fill-opacity=".2" d="M7.706 6.34l-3.818.554C5.09 4.463 6.132 2.921 7.012 2.268c.88-.653 1.25-.614 1.11.117-.213.185-.38.671-.497 1.46-.118.79-.091 1.62.081 2.495z" mask="url(#prefix__X)"/>
                            <path fill="url(#prefix__Y)" fill-opacity=".2" d="M9.21 1.02c-2.036.483-4.108 4.305-5.685 8.816-1.576 4.51-1.477 7.515-1.02 11.232.225 1.821.553 3.756.467 5.248-.09 1.554-.254 2.985-.674 3.63-.548.843-1.877 1.99-3.984 3.438 1.87-1.91 2.821-3.723 2.855-5.44.051-2.574-1.996-11.418-1.633-14.31C-.1 10.74 1.39 8.051 1.693 5.742 1.995 3.434 1.577.763 2.51.15c.935-.613 3.938.048 6.7.87z" style="mix-blend-mode:multiply" mask="url(#prefix__X)"/>
                            <g fill="url(#prefix__Z)" mask="url(#prefix__X)">
                                <path d="M14.346 2.612c1.58 1.125-.18 3.23-2.838 3.71-1.26.229-2.536.615-3.828 1.158-.212-1.461-.284-2.522-.214-3.183.242-2.3 1.378-3.79 3.408-4.468 1.26 1.105 2.418 2.033 3.472 2.783z"/>
                            </g>
                            <path fill="url(#prefix__aa)" d="M8.398 8.041L5.914 24.737 3.307 26.549 2.731 23.309 7.056 7.322z" mask="url(#prefix__X)"/>
                            <path fill="#092965" d="M8.951 6.756L7.456 6.307 6.566 6.506 6.861 8.022 8.349 8.504 9.675 7.715z" mask="url(#prefix__X)"/>
                            <path fill="url(#prefix__ab)" d="M8.951 6.756l2.017 3.252c2.337-3.335 3.268-5.743 2.796-7.224-.247 1.521-.87 2.515-1.865 2.98-.996.467-1.979.797-2.948.992z" mask="url(#prefix__X)"/>
                        </g>
                        <g transform="translate(26.68 .106) rotate(-12 44.957 3.24) translate(.11 7.883) translate(21.508 6.095)">
                            <mask id="prefix__ae" fill="#fff">
                                <use xlink:href="#prefix__ac"/>
                            </mask>
                            <use fill="#092965" xlink:href="#prefix__ac"/>
                            <path fill="url(#prefix__ad)" d="M3.153 22.349c.73-4.38 2.705-7.216 5.927-8.507L7.786 9.846l2.498-.585c-.264-3.219-.366-5.396-.309-6.532.058-1.135.056-1.841-.008-2.116l-.59-1.257c-.843-.649-1.584-1.036-2.224-1.163-.639-.126-.232.374 1.22 1.501.243.018.443.122.599.313.156.192-1.851 4.264-6.023 12.217-.593 11.13-.525 14.505.204 10.125z" style="mix-blend-mode:multiply" mask="url(#prefix__ae)"/>
                        </g>
                        <path fill="url(#prefix__af)" d="M31.483 8.824c-.058 1.136.097 2.892.465 5.267l-2.73 1.236 1.218 3.382c-2.272 3.344-5.67 6.315-6.4 10.692.659-4.348 1.187-8.032 2.308-11.74 1.177-3.894 4.765-10.46 4.35-11.42-.208-.623-.51-1.023-.905-1.201-.068-.15-.015-.174.16-.072.262.154.737.43 1.04.762.29.316.455.587.501 1.06.048.321.046.999-.007 2.034z" transform="translate(26.68 .106) rotate(-12 44.957 3.24) translate(.11 7.883)"/>
                        <path fill="#092965" d="M26.437 3.966c-2.037.483-4.656 4.19-5.95 8.616-1.294 4.425-1.213 7.715-.756 11.433.458 3.717-1.382 6.735-2.205 8-.548.842-1.301 1.965-2.259 3.367-.25-1.331-.292-2.862-.128-4.594.248-2.598 2.458-8.309 2.822-11.202.364-2.894.164-8.009.467-10.317.303-2.31.375-5.56 1.31-6.173.934-.613 3.937.049 6.699.87z" transform="translate(26.68 .106) rotate(-12 44.957 3.24) translate(.11 7.883)"/>
                        <path fill="url(#prefix__ag)" d="M26.437 3.966c-2.037.483-4.656 4.19-5.95 8.616-1.294 4.425-1.213 7.715-.756 11.433.122.985-.151 2.459-.24 3.3-.012.115-.022.228-.03.34-.054.054-.081.026-.078-.093.035-1.403-.584-4.833-1.857-10.291l2.064-4.67-.63-.889c3.07-4.567 5.324-7.22 6.76-7.955.24.068.48.138.717.209z" transform="translate(26.68 .106) rotate(-12 44.957 3.24) translate(.11 7.883)"/>
                        <g transform="translate(26.68 .106) rotate(-12 44.957 3.24) translate(.11 7.883) translate(25.01 .116)">
                            <mask id="prefix__aj" fill="#fff">
                                <use xlink:href="#prefix__ah"/>
                            </mask>
                            <use fill="#FCCBCB" xlink:href="#prefix__ah"/>
                            <path fill="url(#prefix__ai)" d="M.344 6.72c1.613.072 2.87-.305 3.771-1.132.901-.827 1.39-2.06 1.467-3.698l-4.875.48-.363 4.35z" mask="url(#prefix__aj)"/>
                        </g>
                    </g>
                    <g transform="translate(26.68 .106) rotate(-12 44.957 3.24) translate(23.653 .052)">
                        <g transform="translate(0 .914)">
                            <use fill="#FCCBCB" xlink:href="#prefix__ak"/>
                        </g>
                        <mask id="prefix__an" fill="#fff">
                            <use xlink:href="#prefix__al"/>
                        </mask>
                        <use fill="#30334F" xlink:href="#prefix__al"/>
                        <path fill="url(#prefix__am)" d="M6.852 6.487c1.18-.626 2.074-.878 2.685-.755.61.123.916.446.916.97-1.347 2.243-2.077 3.364-2.19 3.364-.115 0-.772-.123-1.973-.37l.562-3.21z" mask="url(#prefix__an)"/>
                        <path fill="#031120" d="M9.252 2.793L6.603 4.37c.674-.27 1.265-.533 1.772-.789.507-.256.8-.519.877-.79zM5.27 3.851c-2.023.583-3.446.315-4.27-.804 1.018.883 2.441 1.15 4.27.804z" mask="url(#prefix__an)"/>
                        <g>
                            <path fill="#FCCBCB" d="M.188.736C.276.498.5.326.86.216c.54-.162.939.685.512 1.458-.264.478-.477.808-.869 1.068-.064.043-.156.043-.275 0-.064.137-.114.244-.152.319-.049-.43-.023-1.11 0-1.387.03-.358.067-.67.112-.938z" transform="translate(7.584 6.627)"/>
                            <path fill="url(#prefix__ao)" d="M.487.9C.691.725.864.665 1.01.722c.216.086.297.573-.046.984-.228.274-.402.418-.522.43L.487.9z" transform="translate(7.584 6.627)"/>
                        </g>
                    </g>
                </g>
            </g>
            <g>
                <path fill="url(#prefix__K)" d="M0.091 43.204L0.374 0.599 1.024 0.223 14.945 9.042 15.311 51.271 14.662 51.647z" transform="scale(-1 1) rotate(-60 17.926 72.517)"/>
                <path fill="url(#prefix__O)" d="M0.741 42.828L1.024 0.223 15.594 8.666 15.311 51.271z" transform="scale(-1 1) rotate(-60 17.926 72.517)"/>
                <path fill="url(#prefix__L)" d="M9.087 34.824L9.523 8.998 11.96 10.41 11.524 36.236z" opacity=".5" transform="scale(-1 1) rotate(-60 17.926 72.517)"/>
                <path fill="url(#prefix__M)" d="M4.654 17.652l2.436 1.41-.244 14.464-2.436-1.412.244-14.462z" opacity=".5" transform="scale(-1 1) rotate(-60 17.926 72.517)"/>
                <path fill="url(#prefix__N)" d="M8.135 43.843c1.878-1.07 3.384-3.665 3.363-5.797-.02-2.132-1.56-2.993-3.439-1.923-1.879 1.069-3.385 3.664-3.364 5.796.021 2.132 1.56 2.993 3.44 1.924z" opacity=".5" transform="scale(-1 1) rotate(-60 17.926 72.517) scale(-1 1) rotate(15 0 -21.519)"/>
            </g>
            <path fill="#FCCBCB" d="M48.95 51.599c-1.625.568-2.817 1.128-3.578 1.678-1.14.825-3.088 1.74-2.672 2.003.276.175 1.23.015 2.858-.482l-3.687 3.739c.63.253 1.172.186 1.623-.2.8.286 1.372.261 1.717-.073.76.105 1.4-.02 1.922-.375.521-.355 2.33-1.981 5.425-4.88.003-.857-.4-1.489-1.21-1.894-.809-.406-1.608-.244-2.398.484z"/>
            <g transform="scale(-1 1) rotate(7 -206.208 -562.031)">
                <path fill="url(#prefix__ap)" d="M2.384.007c-3.17.36-3.375 9.343.58 15.891 3.955 6.549 2.14 4.955 5.11 7.02 1.98 1.376 6.536 3.86 13.667 7.45.379-1.717 1.398-2.575 3.057-2.575L11.144 17.559C7.417 5.618 4.497-.233 2.384.007z"/>
                <circle cx="20.496" cy="28.766" r="1" fill="#D8D8D8"/>
            </g>
        </g>
    </g>
</svg>
