<?xml version="1.0" encoding="utf-8"?>
<!-- Generator: Adobe Illustrator 21.1.0, SVG Export Plug-In . SVG Version: 6.00 Build 0)  -->
<svg version="1.1" id="Capa_1" xmlns="http://www.w3.org/2000/svg" xmlns:xlink="http://www.w3.org/1999/xlink" x="0px" y="0px"
	 viewBox="0 0 188 52" style="enable-background:new 0 0 188 52;" xml:space="preserve">
<path d="M82,48c1.1,0,2,0.9,2,2s-0.9,2-2,2s-2-0.9-2-2S80.9,48,82,48z M66,48c1.1,0,2,0.9,2,2s-0.9,2-2,2s-2-0.9-2-2S64.9,48,66,48z
	 M50,48c1.1,0,2,0.9,2,2s-0.9,2-2,2s-2-0.9-2-2S48.9,48,50,48z M34,48c1.1,0,2,0.9,2,2s-0.9,2-2,2s-2-0.9-2-2S32.9,48,34,48z M18,48
	c1.1,0,2,0.9,2,2s-0.9,2-2,2s-2-0.9-2-2S16.9,48,18,48z M2,48c1.1,0,2,0.9,2,2s-0.9,2-2,2s-2-0.9-2-2S0.9,48,2,48z M178,48
	c1.1,0,2,0.9,2,2s-0.9,2-2,2s-2-0.9-2-2S176.9,48,178,48z M162,48c1.1,0,2,0.9,2,2s-0.9,2-2,2s-2-0.9-2-2S160.9,48,162,48z M146,48
	c1.1,0,2,0.9,2,2s-0.9,2-2,2s-2-0.9-2-2S144.9,48,146,48z M130,48c1.1,0,2,0.9,2,2s-0.9,2-2,2s-2-0.9-2-2S128.9,48,130,48z M114,48
	c1.1,0,2,0.9,2,2s-0.9,2-2,2s-2-0.9-2-2S112.9,48,114,48z M98,48c1.1,0,2,0.9,2,2s-0.9,2-2,2s-2-0.9-2-2S96.9,48,98,48z M186,32
	c1.1,0,2,0.9,2,2s-0.9,2-2,2s-2-0.9-2-2S184.9,32,186,32z M170,32c1.1,0,2,0.9,2,2s-0.9,2-2,2s-2-0.9-2-2S168.9,32,170,32z M154,32
	c1.1,0,2,0.9,2,2s-0.9,2-2,2s-2-0.9-2-2S152.9,32,154,32z M138,32c1.1,0,2,0.9,2,2s-0.9,2-2,2s-2-0.9-2-2S136.9,32,138,32z M122,32
	c1.1,0,2,0.9,2,2s-0.9,2-2,2s-2-0.9-2-2S120.9,32,122,32z M106,32c1.1,0,2,0.9,2,2s-0.9,2-2,2s-2-0.9-2-2S104.9,32,106,32z M90,32
	c1.1,0,2,0.9,2,2s-0.9,2-2,2s-2-0.9-2-2S88.9,32,90,32z M74,32c1.1,0,2,0.9,2,2s-0.9,2-2,2s-2-0.9-2-2S72.9,32,74,32z M58,32
	c1.1,0,2,0.9,2,2s-0.9,2-2,2s-2-0.9-2-2S56.9,32,58,32z M42,32c1.1,0,2,0.9,2,2s-0.9,2-2,2s-2-0.9-2-2S40.9,32,42,32z M26,32
	c1.1,0,2,0.9,2,2s-0.9,2-2,2s-2-0.9-2-2S24.9,32,26,32z M10,32c1.1,0,2,0.9,2,2s-0.9,2-2,2s-2-0.9-2-2S8.9,32,10,32z M178,16
	c1.1,0,2,0.9,2,2s-0.9,2-2,2s-2-0.9-2-2S176.9,16,178,16z M162,16c1.1,0,2,0.9,2,2s-0.9,2-2,2s-2-0.9-2-2S160.9,16,162,16z M146,16
	c1.1,0,2,0.9,2,2s-0.9,2-2,2s-2-0.9-2-2S144.9,16,146,16z M130,16c1.1,0,2,0.9,2,2s-0.9,2-2,2s-2-0.9-2-2S128.9,16,130,16z M114,16
	c1.1,0,2,0.9,2,2s-0.9,2-2,2s-2-0.9-2-2S112.9,16,114,16z M98,16c1.1,0,2,0.9,2,2s-0.9,2-2,2s-2-0.9-2-2S96.9,16,98,16z M82,16
	c1.1,0,2,0.9,2,2s-0.9,2-2,2s-2-0.9-2-2S80.9,16,82,16z M66,16c1.1,0,2,0.9,2,2s-0.9,2-2,2s-2-0.9-2-2S64.9,16,66,16z M50,16
	c1.1,0,2,0.9,2,2s-0.9,2-2,2s-2-0.9-2-2S48.9,16,50,16z M34,16c1.1,0,2,0.9,2,2s-0.9,2-2,2s-2-0.9-2-2S32.9,16,34,16z M18,16
	c1.1,0,2,0.9,2,2s-0.9,2-2,2s-2-0.9-2-2S16.9,16,18,16z M2,16c1.1,0,2,0.9,2,2s-0.9,2-2,2s-2-0.9-2-2S0.9,16,2,16z M106,0
	c1.1,0,2,0.9,2,2s-0.9,2-2,2s-2-0.9-2-2S104.9,0,106,0z M186,0c1.1,0,2,0.9,2,2s-0.9,2-2,2s-2-0.9-2-2S184.9,0,186,0z M170,0
	c1.1,0,2,0.9,2,2s-0.9,2-2,2s-2-0.9-2-2S168.9,0,170,0z M154,0c1.1,0,2,0.9,2,2s-0.9,2-2,2s-2-0.9-2-2S152.9,0,154,0z M138,0
	c1.1,0,2,0.9,2,2s-0.9,2-2,2s-2-0.9-2-2S136.9,0,138,0z M122,0c1.1,0,2,0.9,2,2s-0.9,2-2,2s-2-0.9-2-2S120.9,0,122,0z M10,0
	c1.1,0,2,0.9,2,2s-0.9,2-2,2S8,3.1,8,2S8.9,0,10,0z M90,0c1.1,0,2,0.9,2,2s-0.9,2-2,2s-2-0.9-2-2S88.9,0,90,0z M74,0
	c1.1,0,2,0.9,2,2s-0.9,2-2,2s-2-0.9-2-2S72.9,0,74,0z M58,0c1.1,0,2,0.9,2,2s-0.9,2-2,2s-2-0.9-2-2S56.9,0,58,0z M42,0
	c1.1,0,2,0.9,2,2s-0.9,2-2,2s-2-0.9-2-2S40.9,0,42,0z M26,0c1.1,0,2,0.9,2,2s-0.9,2-2,2s-2-0.9-2-2S24.9,0,26,0z"/>
</svg>
