<?xml version="1.0" encoding="utf-8"?>
<!-- Generator: Adobe Illustrator 21.1.0, SVG Export Plug-In . SVG Version: 6.00 Build 0)  -->
<svg version="1.1" id="Capa_1" xmlns="http://www.w3.org/2000/svg" xmlns:xlink="http://www.w3.org/1999/xlink" x="0px" y="0px"
	 viewBox="0 0 24 20.2" style="enable-background:new 0 0 24 20.2;" xml:space="preserve">
<style type="text/css">
	.st0{fill:#440099;}
	.st1{fill:#EB20B3;}
</style>
<g>
	<path class="st0" d="M5.9,19.7c8.8-2.1,18-5.4,18.1-10c0,0,1.2-6.1-17.6-9.4c0,0-3.4-0.6-4.1,0c-0.6,0.6,2,1.5,2,1.5
		c5,1.8,10.6,4.6,10.8,8.1c0,0,1.2,4.4-10.7,8.6c0,0-2.5,0.8-2.2,1.5C2.5,20.5,4.9,19.9,5.9,19.7"/>
	<path class="st1" d="M3.6,17.5c5.2-1.8,10.1-4.3,10.2-7.5c0,0,0.8-3.9-10-7.6C3.4,2.3,2,1.9,1.4,2.5c-0.5,0.5,1,1.4,1,1.4
		c2.1,1.5,4.1,3.5,4,5.8c-0.1,2.1-1.9,4-4.5,5.6c0,0-2.4,1.4-1.8,2.2C0.8,18.5,2.7,17.8,3.6,17.5"/>
</g>
</svg>
