<svg xmlns="http://www.w3.org/2000/svg" width="88" height="40" viewBox="0 0 88 40">
    <g fill="none" fill-rule="evenodd">
        <g fill="#50E3C2">
            <path d="M18.9 26.7c-.8 3.4-3.5 5.3-7.5 5.4-3.4.1-6.3-1.1-9-2.8-.3-.2-.6-.4-.2-.8.3-.3.4-.9 1.1-.4 1.6 1.1 3.3 1.9 5.3 2.2 2.4.5 4.7.4 6.9-1 1.7-1.1 2.2-2.8 1.4-4.4-1.6 3.5-4.2 4.8-8.3 3.9-1.5-.3-2.9-1-4.2-1.8-.3-.2-.8-.3-.4-.7.3-.3.4-1 1.2-.5 1.5.9 3 1.6 4.8 1.8 1.5.2 2.8-.1 4-1 1.6-1.2 1.6-2.8.1-4.1-.6-.5-1.4-.9-2.1-1.4-3-1.8-6-3.5-8.4-6-2-2.1-2.6-4.6-1.8-7.3.6 4.6 3.7 7.4 7.3 9.9 2.9 1.9 6.2 3.4 8.9 5.6 4.1 3.3 3.5 8.2-1.2 10.5-.7.3-1.5.7-2.2.8-5.2 1.3-9.9-.1-14.2-2.9-.4-.2-.5-.4-.2-.8s.6-.8 1.2-.3c2.1 1.4 4.4 2.4 7 2.8 2.8.4 5.6.3 8.1-1.1 2.4-1.3 3.2-3.3 2.4-5.6M8.2 7.7c1.8-4 4.9-5.3 9.7-4.2 1 .2 1.9.5 2.8 1 .3.1.8.2.5.7-.3.3-.4 1.1-1.1.6-1.2-.7-2.6-1-4-1.2-1.5-.2-2.9 0-4.3.7-1.8.9-2.4 2.9-1.5 4.8.3-1.9 1.1-3.3 2.9-3.7 2.2-.6 4.2-.2 6.2.8-.4 1-1 1.3-2 .9-.9-.4-1.9-.5-2.9-.4-1.1.1-2 .5-2.5 1.6-.4 1.1-.1 2 .6 2.9.9 1 1.9 1.7 3 2.3 2.8 1.7 5.6 3.3 7.8 5.8 2 2.2 3.2 4.6 2.1 7.7-.1.2-.1.5-.4.6 0-4.9-3-8-6.6-10.5-2.3-1.6-4.7-3-7-4.5-1.4-.9-2.7-1.9-3.7-3.3-2.3-3.2-1.4-7.2 2.1-9 3.8-2 7.6-1.4 11.4 0 .5.2.9.4 1.4.7.3.2.9.3.5.8-.3.4-.5.9-1.3.5-3-1.7-6.3-2.4-9.7-1.4-2 .6-3.6 1.7-4 4-.3.6-.3 1.2 0 1.8"/>
            <path d="M8.2 1.3c-3.6 2.7-3.8 7.5-.4 11 1.7 1.8 3.7 3 5.7 4.2 2.2 1.3 4.5 2.6 6.4 4.3 1.9 1.6 3.3 3.5 3.5 6.2.2 2.4-1 4.1-2.9 5.4.7-1.2 1.3-2.4 1.5-3.8.3-3-1.2-5.2-3.4-7-2.2-1.8-4.6-3.1-7-4.5-2.3-1.4-4.5-2.9-6-5.1-2.2-3-2.3-6.7-.1-9.1.7-.8 1.4-1.7 2.7-1.6zM7.8 1.4L7.8 1.2 7.8 1.4 7.8 1.4"/>
        </g>
        <g fill="#000" fill-rule="nonzero">
            <path d="M0 8.2h3.3v2.1h.1c.5-.8 1.2-1.5 2-1.8.8-.4 1.8-.6 2.7-.6 1.1 0 2 .2 2.8.6.8.4 1.6.9 2.2 1.5.6.7 1 1.4 1.3 2.3.3.9.5 1.8.5 2.8 0 1-.2 2-.5 2.8-.3.9-.8 1.6-1.4 2.3-.6.7-1.3 1.2-2.1 1.5-.8.3-1.7.6-2.7.6-.7 0-1.2-.1-1.7-.2s-.9-.3-1.3-.5-.7-.4-1-.7c-.3-.2-.5-.5-.7-.7h-.1v8.3H0V8.2zm11.4 6.9c0-.5-.1-1.1-.3-1.5-.2-.5-.4-.9-.8-1.3s-.8-.7-1.3-.9c-.5-.3-1-.4-1.7-.4-.6 0-1.2.1-1.7.3-.5.2-.9.5-1.3.9s-.6.8-.8 1.3c-.2.5-.3 1-.3 1.5s.1 1.1.3 1.5c.2.5.4.9.8 1.3s.8.7 1.3.9c.5.2 1.1.3 1.7.3.6 0 1.2-.1 1.7-.3.5-.2.9-.5 1.3-.9s.6-.8.8-1.3c.2-.3.3-.8.3-1.4zM17.6 3.6c0-.6.2-1 .6-1.4.4-.4.9-.6 1.6-.6.6 0 1.2.2 1.6.6.4.4.6.9.6 1.5s-.2 1.1-.6 1.5c-.4.4-1 .6-1.6.6-.6 0-1.2-.2-1.6-.6-.4-.6-.6-1.1-.6-1.6zm.5 4.6h3.4V22h-3.4V8.2zM25.5 8.2h3.4v2.2h.1c.4-.8.9-1.4 1.6-1.9.7-.4 1.5-.7 2.4-.7.2 0 .4 0 .6.1.2.1.4.1.6.1v3.3c-.3-.1-.6-.1-.8-.2-.2-.1-.5-.1-.8-.1-.8 0-1.4.1-1.9.4-.5.3-.9.6-1.1 1-.3.4-.4.8-.5 1.1-.1.4-.1.7-.1.9V22h-3.4V8.2h-.1zM45.2 20.1c-.6.8-1.2 1.4-2 1.7-.8.4-1.6.5-2.5.5-.6 0-1.2-.1-1.8-.3-.6-.2-1.1-.4-1.6-.8-.5-.3-.8-.8-1.1-1.3-.3-.5-.4-1.1-.4-1.8s.1-1.4.4-1.9c.3-.5.6-1 1.1-1.3.4-.4 1-.6 1.6-.8.6-.2 1.2-.4 1.8-.5.6-.1 1.3-.2 1.9-.2h2.7V13c0-.9-.3-1.5-.9-1.9-.6-.4-1.3-.6-2.3-.6-.7 0-1.4.1-2 .4-.6.3-1.2.6-1.6 1l-1.8-1.8c.8-.8 1.7-1.3 2.7-1.7 1-.3 2.1-.5 3.2-.5 1 0 1.8.1 2.5.3.7.2 1.2.5 1.7.8.4.3.8.7 1 1.2.2.5.4.9.5 1.4.1.5.2.9.2 1.3V22h-3.1v-1.9h-.2zm-.2-4.3h-.7c-.5 0-1 0-1.6.1-.6 0-1.2.1-1.7.3-.5.2-1 .4-1.3.6-.4.3-.5.7-.5 1.2 0 .3.1.6.2.8.1.2.3.4.6.6.2.2.5.3.8.3.3.1.6.1.9.1 1.2 0 2.1-.3 2.6-.8.6-.6.8-1.3.8-2.3v-.9H45zM52.1.3L55.5.3 55.5 22 52.1 22z" transform="translate(32 11)"/>
        </g>
    </g>
</svg>
