<?xml version="1.0" encoding="utf-8"?>
<!-- Generator: Adobe Illustrator 21.1.0, SVG Export Plug-In . SVG Version: 6.00 Build 0)  -->
<svg version="1.1" id="Capa_1" xmlns="http://www.w3.org/2000/svg" xmlns:xlink="http://www.w3.org/1999/xlink" x="0px" y="0px"
	 viewBox="0 0 21.5 21.5" style="enable-background:new 0 0 21.5 21.5;" xml:space="preserve">
<path d="M18.3,3.1c-2-2-4.7-3.1-7.5-3.1C4.9,0,0.1,4.8,0.1,10.7c0,1.9,0.5,3.7,1.4,5.3L0,21.5L5.7,20c1.6,0.9,3.3,1.3,5.1,1.3h0
	c5.9,0,10.8-4.8,10.8-10.7C21.5,7.8,20.3,5.1,18.3,3.1L18.3,3.1z M10.7,19.5c-1.6,0-3.2-0.4-4.5-1.2l-0.3-0.2L2.6,19l0.9-3.3
	l-0.2-0.3c-0.9-1.4-1.4-3-1.4-4.7c0-4.9,4-8.9,8.9-8.9c2.4,0,4.6,0.9,6.3,2.6c1.7,1.7,2.7,3.9,2.7,6.3
	C19.7,15.5,15.6,19.5,10.7,19.5L10.7,19.5z M15.6,12.9c-0.3-0.1-1.6-0.8-1.8-0.9c-0.2-0.1-0.4-0.1-0.6,0.1c-0.2,0.3-0.7,0.9-0.8,1
	c-0.2,0.2-0.3,0.2-0.6,0.1c-1.6-0.8-2.6-1.4-3.6-3.2C7.9,9.6,8.4,9.7,8.9,8.6c0.1-0.2,0-0.3,0-0.5s-0.6-1.4-0.8-2
	C7.9,5.7,7.6,5.8,7.5,5.8c-0.2,0-0.3,0-0.5,0c-0.2,0-0.5,0.1-0.7,0.3C6,6.3,5.3,7,5.3,8.3s1,2.6,1.1,2.8c0.1,0.2,1.9,2.9,4.6,4
	c1.7,0.7,2.4,0.8,3.2,0.7c0.5-0.1,1.6-0.6,1.8-1.3c0.2-0.6,0.2-1.2,0.2-1.3C16,13.1,15.9,13,15.6,12.9z"/>
</svg>
